<svg xmlns="http://www.w3.org/2000/svg" viewBox="0 0 1439.41559 357.10352">
  <defs>
    <style>
      .cls-1 {
        fill: #ff0;
      }

      .cls-2 {
        fill: red;
      }

      .cls-3, .cls-4, .cls-5 {
        fill: none;
        stroke-miterlimit: 10;
      }

      .cls-3, .cls-5 {
        stroke: #fff;
      }

      .cls-4 {
        stroke: #000;
      }

      .cls-5 {
        stroke-dasharray: 12.05068 12.05068;
      }

      .cls-6 {
        fill: #fff;
      }
    </style>
  </defs>
  <title>Risorsa 3</title>
  <g id="Livello_2" data-name="Livello 2">
    <g id="Testi">
      <g>
        <polygon class="cls-1" points="67.982 95.062 78.348 95.062 101.153 138.062 123.959 117.062 148.837 105.062 169.569 100.062 194.448 84.062 217.253 132.062 240.059 131.062 264.938 89.062 289.816 96.062 310.548 133.062 333.354 93.062 356.159 231.062 376.891 196.062 397.623 103.062 424.575 142.062 449.454 188.062 470.186 135.062 492.992 46.062 517.87 90.062 540.676 66.062 563.481 119.062 586.286 83.062 613.238 82.062 631.897 148.062 654.703 104.062 677.508 115.062 702.387 135.062 723.119 63.062 723.119 336.062 65.909 336.062 67.982 95.062"/>
        <polygon class="cls-2" points="794.645 188.562 815.377 163.562 842.329 192.562 867.207 198.562 890.013 200.562 910.745 215.562 933.55 176.562 956.356 202.562 979.161 199.562 1004.04 201.562 1024.772 194.562 1049.651 197.562 1072.456 202.562 1093.188 192.562 1115.994 181.562 1138.799 170.562 1165.751 168.562 1190.629 180.562 1213.435 160.562 1232.094 165.562 1254.899 201.562 1277.705 161.562 1302.583 198.562 1325.389 152.562 1348.194 200.562 1373.073 180.562 1395.878 174.562 1414.537 194.562 1439.416 185.562 1439.416 335.562 794.645 335.562 794.645 188.562"/>
        <polyline class="cls-3" points="53.231 46.146 67.2 46.146 67.43 46.146 67.43 335.699 1439.416 335.699"/>
        <line class="cls-3" x1="67.74326" y1="103.98686" x2="53.23073" y2="103.98686"/>
        <line class="cls-3" x1="67.74326" y1="161.91327" x2="53.23073" y2="161.91327"/>
        <line class="cls-3" x1="67.74326" y1="219.83968" x2="53.23073" y2="219.83968"/>
        <line class="cls-3" x1="67.74326" y1="277.76608" x2="53.23073" y2="277.76608"/>
        <line class="cls-4" x1="67.74326" y1="336.09061" x2="53.23073" y2="336.09061"/>
        <line class="cls-3" x1="67.74326" y1="335.69249" x2="53.23073" y2="335.69249"/>
        <g>
          <line class="cls-3" x1="723.11859" y1="336.06152" x2="723.11859" y2="330.06152"/>
          <line class="cls-5" x1="723.11859" y1="318.01086" x2="723.11859" y2="58.92126"/>
          <line class="cls-3" x1="723.11859" y1="52.89587" x2="723.11859" y2="46.89587"/>
        </g>
        <g>
          <line class="cls-3" x1="793.91956" y1="336.06152" x2="793.91956" y2="330.06152"/>
          <line class="cls-5" x1="793.91956" y1="318.01086" x2="793.91956" y2="58.92126"/>
          <line class="cls-3" x1="793.91956" y1="52.89587" x2="793.91956" y2="46.89587"/>
        </g>
        <g>
          <path class="cls-6" d="M15.51562,274.47949H11.17334l-.25195,3.46h.09814a2.0897,2.0897,0,0,1,2.04492-1.27539A2.84259,2.84259,0,0,1,16.02,279.71777a3.19038,3.19038,0,0,1-3.48779,3.334,3.58908,3.58908,0,0,1-3.23584-1.751l1.14843-.91016a2.3053,2.3053,0,0,0,2.11524,1.33008,1.64674,1.64674,0,0,0,1.80713-1.793v-.168a1.64719,1.64719,0,0,0-1.80713-1.793,2.05432,2.05432,0,0,0-1.65283.7705l-1.30274-.18164.36426-5.44921h5.54687Z" transform="translate(-0.63037 -1.87207)"/>
          <path class="cls-6" d="M17.458,277.99512c0-3.19336,1.10693-5.05664,3.54394-5.05664,2.4375,0,3.54395,1.86328,3.54395,5.05664s-1.10645,5.05664-3.54395,5.05664C18.56494,283.05176,17.458,281.18848,17.458,277.99512Zm5.40722.85449v-1.709c0-1.709-.50439-2.85742-1.86328-2.85742-1.3584,0-1.86279,1.14844-1.86279,2.85742v1.709c0,1.709.50439,2.85742,1.86279,2.85742C22.36084,281.707,22.86523,280.55859,22.86523,278.84961Z" transform="translate(-0.63037 -1.87207)"/>
          <path class="cls-6" d="M25.85791,277.99512c0-3.19336,1.10693-5.05664,3.54395-5.05664,2.4375,0,3.54394,1.86328,3.54394,5.05664s-1.10644,5.05664-3.54394,5.05664C26.96484,283.05176,25.85791,281.18848,25.85791,277.99512Zm5.40723.85449v-1.709c0-1.709-.5044-2.85742-1.86328-2.85742-1.3584,0-1.8628,1.14844-1.8628,2.85742v1.709c0,1.709.5044,2.85742,1.8628,2.85742C30.76074,281.707,31.26514,280.55859,31.26514,278.84961Z" transform="translate(-0.63037 -1.87207)"/>
          <path class="cls-6" d="M34.25781,277.99512c0-3.19336,1.10694-5.05664,3.544-5.05664,2.4375,0,3.54394,1.86328,3.54394,5.05664s-1.10644,5.05664-3.54394,5.05664C35.36475,283.05176,34.25781,281.18848,34.25781,277.99512Zm5.40723.85449v-1.709c0-1.709-.5044-2.85742-1.86328-2.85742-1.3584,0-1.8628,1.14844-1.8628,2.85742v1.709c0,1.709.5044,2.85742,1.8628,2.85742C39.16064,281.707,39.665,280.55859,39.665,278.84961Z" transform="translate(-0.63037 -1.87207)"/>
        </g>
        <path class="cls-6" d="M34.25781,335.81836c0-3.19336,1.10694-5.05664,3.544-5.05664,2.4375,0,3.54394,1.86328,3.54394,5.05664s-1.10644,5.05664-3.54394,5.05664C35.36475,340.875,34.25781,339.01172,34.25781,335.81836Zm5.40723.85449v-1.709c0-1.709-.5044-2.85742-1.86328-2.85742-1.3584,0-1.8628,1.14843-1.8628,2.85742v1.709c0,1.709.5044,2.85742,1.8628,2.85742C39.16064,339.53027,39.665,338.38184,39.665,336.67285Z" transform="translate(-0.63037 -1.87207)"/>
        <g>
          <path class="cls-6" d="M1.23242,225.06055v-1.31641H3.978v-7.3125H3.86621l-2.26953,2.42383-.96631-.86914,2.49317-2.70313H5.5332v8.46094H7.91406v1.31641Z" transform="translate(-0.63037 -1.87207)"/>
          <path class="cls-6" d="M9.05811,220.17188c0-3.19336,1.10693-5.05665,3.54394-5.05665,2.4375,0,3.544,1.86329,3.544,5.05665s-1.10645,5.05664-3.544,5.05664C10.165,225.22852,9.05811,223.36523,9.05811,220.17188Zm5.40722.85546v-1.709c0-1.709-.50439-2.85742-1.86328-2.85742-1.3584,0-1.86279,1.14844-1.86279,2.85742v1.709c0,1.709.50439,2.85743,1.86279,2.85743C13.96094,223.88477,14.46533,222.73633,14.46533,221.02734Z" transform="translate(-0.63037 -1.87207)"/>
          <path class="cls-6" d="M17.458,220.17188c0-3.19336,1.10693-5.05665,3.54394-5.05665,2.4375,0,3.54395,1.86329,3.54395,5.05665s-1.10645,5.05664-3.54395,5.05664C18.56494,225.22852,17.458,223.36523,17.458,220.17188Zm5.40722.85546v-1.709c0-1.709-.50439-2.85742-1.86328-2.85742-1.3584,0-1.86279,1.14844-1.86279,2.85742v1.709c0,1.709.50439,2.85743,1.86279,2.85743C22.36084,223.88477,22.86523,222.73633,22.86523,221.02734Z" transform="translate(-0.63037 -1.87207)"/>
          <path class="cls-6" d="M25.85791,220.17188c0-3.19336,1.10693-5.05665,3.54395-5.05665,2.4375,0,3.54394,1.86329,3.54394,5.05665s-1.10644,5.05664-3.54394,5.05664C26.96484,225.22852,25.85791,223.36523,25.85791,220.17188Zm5.40723.85546v-1.709c0-1.709-.5044-2.85742-1.86328-2.85742-1.3584,0-1.8628,1.14844-1.8628,2.85742v1.709c0,1.709.5044,2.85743,1.8628,2.85743C30.76074,223.88477,31.26514,222.73633,31.26514,221.02734Z" transform="translate(-0.63037 -1.87207)"/>
          <path class="cls-6" d="M34.25781,220.17188c0-3.19336,1.10694-5.05665,3.544-5.05665,2.4375,0,3.54394,1.86329,3.54394,5.05665s-1.10644,5.05664-3.54394,5.05664C35.36475,225.22852,34.25781,223.36523,34.25781,220.17188Zm5.40723.85546v-1.709c0-1.709-.5044-2.85742-1.86328-2.85742-1.3584,0-1.8628,1.14844-1.8628,2.85742v1.709c0,1.709.5044,2.85743,1.8628,2.85743C39.16064,223.88477,39.665,222.73633,39.665,221.02734Z" transform="translate(-0.63037 -1.87207)"/>
        </g>
        <g>
          <path class="cls-6" d="M1.23242,167.2373v-1.3164H3.978v-7.3125H3.86621l-2.26953,2.42383-.96631-.86914L3.12354,157.46H5.5332v8.46094H7.91406v1.3164Z" transform="translate(-0.63037 -1.87207)"/>
          <path class="cls-6" d="M15.51562,158.833H11.17334l-.25195,3.46h.09814a2.08969,2.08969,0,0,1,2.04492-1.27539A2.84258,2.84258,0,0,1,16.02,164.07129a3.19037,3.19037,0,0,1-3.48779,3.334,3.58909,3.58909,0,0,1-3.23584-1.751l1.14843-.91016a2.3053,2.3053,0,0,0,2.11524,1.33008,1.64675,1.64675,0,0,0,1.80713-1.793v-.168a1.64719,1.64719,0,0,0-1.80713-1.793,2.05432,2.05432,0,0,0-1.65283.77051l-1.30274-.18164L9.96875,157.46h5.54687Z" transform="translate(-0.63037 -1.87207)"/>
          <path class="cls-6" d="M17.458,162.34863c0-3.19336,1.10693-5.05664,3.54394-5.05664,2.4375,0,3.54395,1.86328,3.54395,5.05664s-1.10645,5.05664-3.54395,5.05664C18.56494,167.40527,17.458,165.542,17.458,162.34863Zm5.40722.85449v-1.709c0-1.709-.50439-2.85742-1.86328-2.85742-1.3584,0-1.86279,1.14844-1.86279,2.85742v1.709c0,1.709.50439,2.85743,1.86279,2.85743C22.36084,166.06055,22.86523,164.91211,22.86523,163.20312Z" transform="translate(-0.63037 -1.87207)"/>
          <path class="cls-6" d="M25.85791,162.34863c0-3.19336,1.10693-5.05664,3.54395-5.05664,2.4375,0,3.54394,1.86328,3.54394,5.05664s-1.10644,5.05664-3.54394,5.05664C26.96484,167.40527,25.85791,165.542,25.85791,162.34863Zm5.40723.85449v-1.709c0-1.709-.5044-2.85742-1.86328-2.85742-1.3584,0-1.8628,1.14844-1.8628,2.85742v1.709c0,1.709.5044,2.85743,1.8628,2.85743C30.76074,166.06055,31.26514,164.91211,31.26514,163.20312Z" transform="translate(-0.63037 -1.87207)"/>
          <path class="cls-6" d="M34.25781,162.34863c0-3.19336,1.10694-5.05664,3.544-5.05664,2.4375,0,3.54394,1.86328,3.54394,5.05664s-1.10644,5.05664-3.54394,5.05664C35.36475,167.40527,34.25781,165.542,34.25781,162.34863Zm5.40723.85449v-1.709c0-1.709-.5044-2.85742-1.86328-2.85742-1.3584,0-1.8628,1.14844-1.8628,2.85742v1.709c0,1.709.5044,2.85743,1.8628,2.85743C39.16064,166.06055,39.665,164.91211,39.665,163.20312Z" transform="translate(-0.63037 -1.87207)"/>
        </g>
        <g>
          <path class="cls-6" d="M7.57812,109.415H.93848v-1.5127L4.062,105.11426a3.6238,3.6238,0,0,0,1.541-2.5625v-.18262a1.44929,1.44929,0,0,0-1.583-1.52637,1.82409,1.82409,0,0,0-1.835,1.54l-1.38672-.53222a3.28615,3.28615,0,0,1,3.34814-2.38086,2.8271,2.8271,0,0,1,3.1377,2.89941c0,1.583-1.05078,2.61914-2.33936,3.72656l-2.29736,1.97461H7.57812Z" transform="translate(-0.63037 -1.87207)"/>
          <path class="cls-6" d="M9.05811,104.52637c0-3.19336,1.10693-5.05664,3.54394-5.05664,2.4375,0,3.544,1.86328,3.544,5.05664s-1.10645,5.05664-3.544,5.05664C10.165,109.583,9.05811,107.71973,9.05811,104.52637Zm5.40722.85449v-1.709c0-1.709-.50439-2.85743-1.86328-2.85743-1.3584,0-1.86279,1.14844-1.86279,2.85743v1.709c0,1.709.50439,2.85742,1.86279,2.85742C13.96094,108.23828,14.46533,107.08984,14.46533,105.38086Z" transform="translate(-0.63037 -1.87207)"/>
          <path class="cls-6" d="M17.458,104.52637c0-3.19336,1.10693-5.05664,3.54394-5.05664,2.4375,0,3.54395,1.86328,3.54395,5.05664S23.43945,109.583,21.002,109.583C18.56494,109.583,17.458,107.71973,17.458,104.52637Zm5.40722.85449v-1.709c0-1.709-.50439-2.85743-1.86328-2.85743-1.3584,0-1.86279,1.14844-1.86279,2.85743v1.709c0,1.709.50439,2.85742,1.86279,2.85742C22.36084,108.23828,22.86523,107.08984,22.86523,105.38086Z" transform="translate(-0.63037 -1.87207)"/>
          <path class="cls-6" d="M25.85791,104.52637c0-3.19336,1.10693-5.05664,3.54395-5.05664,2.4375,0,3.54394,1.86328,3.54394,5.05664s-1.10644,5.05664-3.54394,5.05664C26.96484,109.583,25.85791,107.71973,25.85791,104.52637Zm5.40723.85449v-1.709c0-1.709-.5044-2.85743-1.86328-2.85743-1.3584,0-1.8628,1.14844-1.8628,2.85743v1.709c0,1.709.5044,2.85742,1.8628,2.85742C30.76074,108.23828,31.26514,107.08984,31.26514,105.38086Z" transform="translate(-0.63037 -1.87207)"/>
          <path class="cls-6" d="M34.25781,104.52637c0-3.19336,1.10694-5.05664,3.544-5.05664,2.4375,0,3.54394,1.86328,3.54394,5.05664s-1.10644,5.05664-3.54394,5.05664C35.36475,109.583,34.25781,107.71973,34.25781,104.52637Zm5.40723.85449v-1.709c0-1.709-.5044-2.85743-1.86328-2.85743-1.3584,0-1.8628,1.14844-1.8628,2.85743v1.709c0,1.709.5044,2.85742,1.8628,2.85742C39.16064,108.23828,39.665,107.08984,39.665,105.38086Z" transform="translate(-0.63037 -1.87207)"/>
        </g>
        <g>
          <path class="cls-6" d="M7.57812,51.5918H.93848V50.0791L4.062,47.291a3.6238,3.6238,0,0,0,1.541-2.5625V44.5459A1.44929,1.44929,0,0,0,4.02,43.01953a1.82409,1.82409,0,0,0-1.835,1.54L.79834,44.02734a3.28616,3.28616,0,0,1,3.34814-2.38086,2.8271,2.8271,0,0,1,3.1377,2.89942c0,1.583-1.05078,2.61914-2.33936,3.72656L2.64746,50.24707H7.57812Z" transform="translate(-0.63037 -1.87207)"/>
          <path class="cls-6" d="M15.51562,43.1875H11.17334l-.25195,3.46h.09814a2.08969,2.08969,0,0,1,2.04492-1.27539A2.84259,2.84259,0,0,1,16.02,48.42578a3.19038,3.19038,0,0,1-3.48779,3.334,3.5891,3.5891,0,0,1-3.23584-1.751l1.14843-.91016a2.3053,2.3053,0,0,0,2.11524,1.33008,1.64674,1.64674,0,0,0,1.80713-1.793v-.168a1.6472,1.6472,0,0,0-1.80713-1.793,2.05432,2.05432,0,0,0-1.65283.77051l-1.30274-.18164.36426-5.44922h5.54687Z" transform="translate(-0.63037 -1.87207)"/>
          <path class="cls-6" d="M17.458,46.70312c0-3.19335,1.10693-5.05664,3.54394-5.05664,2.4375,0,3.54395,1.86329,3.54395,5.05664s-1.10645,5.05665-3.54395,5.05665C18.56494,51.75977,17.458,49.89648,17.458,46.70312Zm5.40722.8545v-1.709c0-1.709-.50439-2.85742-1.86328-2.85742-1.3584,0-1.86279,1.14844-1.86279,2.85742v1.709c0,1.709.50439,2.85742,1.86279,2.85742C22.36084,50.415,22.86523,49.2666,22.86523,47.55762Z" transform="translate(-0.63037 -1.87207)"/>
          <path class="cls-6" d="M25.85791,46.70312c0-3.19335,1.10693-5.05664,3.54395-5.05664,2.4375,0,3.54394,1.86329,3.54394,5.05664s-1.10644,5.05665-3.54394,5.05665C26.96484,51.75977,25.85791,49.89648,25.85791,46.70312Zm5.40723.8545v-1.709c0-1.709-.5044-2.85742-1.86328-2.85742-1.3584,0-1.8628,1.14844-1.8628,2.85742v1.709c0,1.709.5044,2.85742,1.8628,2.85742C30.76074,50.415,31.26514,49.2666,31.26514,47.55762Z" transform="translate(-0.63037 -1.87207)"/>
          <path class="cls-6" d="M34.25781,46.70312c0-3.19335,1.10694-5.05664,3.544-5.05664,2.4375,0,3.54394,1.86329,3.54394,5.05664s-1.10644,5.05665-3.54394,5.05665C35.36475,51.75977,34.25781,49.89648,34.25781,46.70312Zm5.40723.8545v-1.709c0-1.709-.5044-2.85742-1.86328-2.85742-1.3584,0-1.8628,1.14844-1.8628,2.85742v1.709c0,1.709.5044,2.85742,1.8628,2.85742C39.16064,50.415,39.665,49.2666,39.665,47.55762Z" transform="translate(-0.63037 -1.87207)"/>
        </g>
        <g>
          <path class="cls-6" d="M66.62207,358.80762v-1.31641h2.74512v-7.3125h-.11182l-2.26953,2.42383-.96631-.86914,2.49317-2.70313h2.40966v8.46094h2.38086v1.31641Z" transform="translate(-0.63037 -1.87207)"/>
          <path class="cls-6" d="M77.90723,358.80762H75.80615c2.21338-1.61133,3.4878-2.89942,3.96436-5.001l-.09815-.02734a2.4021,2.4021,0,0,1-2.26953,1.42871,2.80825,2.80825,0,0,1-2.87158-3.02637,3.19939,3.19939,0,0,1,3.43213-3.31934c2.15723,0,3.4458,1.47071,3.4458,3.80958A7.70231,7.70231,0,0,1,77.90723,358.80762Zm1.86328-6.668v-.19531a1.80719,1.80719,0,0,0-3.61426,0v.19531a1.80719,1.80719,0,0,0,3.61426,0Z" transform="translate(-0.63037 -1.87207)"/>
          <path class="cls-6" d="M82.88916,356.14648a2.38692,2.38692,0,0,1,1.96143-2.40918v-.1123a2.32076,2.32076,0,0,1-1.667-2.25586c0-1.49805,1.17676-2.50684,3.20752-2.50684,2.03125,0,3.208,1.00879,3.208,2.50684a2.32075,2.32075,0,0,1-1.667,2.25586v.1123a2.3865,2.3865,0,0,1,1.96094,2.40918c0,1.61036-1.23243,2.82911-3.502,2.82911C84.12207,358.97559,82.88916,357.75684,82.88916,356.14648Zm5.35107.01368v-.28028c0-.96679-.67236-1.541-1.84912-1.541-1.17627,0-1.84912.57422-1.84912,1.541v.28028c0,.96679.67285,1.541,1.84912,1.541C87.56787,357.70117,88.24023,357.127,88.24023,356.16016Zm-.18212-4.41211v-.23828c0-.88282-.58838-1.373-1.667-1.373s-1.667.49023-1.667,1.373v.23828c0,.88183.58838,1.37207,1.667,1.37207S88.05811,352.62988,88.05811,351.74805Z" transform="translate(-0.63037 -1.87207)"/>
          <path class="cls-6" d="M97.70459,350.40332H93.3623l-.252,3.46h.09815a2.08968,2.08968,0,0,1,2.04492-1.27539A2.84258,2.84258,0,0,1,98.209,355.6416a3.19038,3.19038,0,0,1-3.48779,3.334,3.58911,3.58911,0,0,1-3.23584-1.751l1.14844-.91016a2.30528,2.30528,0,0,0,2.11523,1.33008,1.64674,1.64674,0,0,0,1.80713-1.793v-.168a1.64719,1.64719,0,0,0-1.80713-1.793,2.05434,2.05434,0,0,0-1.65283.77051l-1.30273-.18164.36425-5.44922h5.54688Z" transform="translate(-0.63037 -1.87207)"/>
        </g>
        <g>
          <path class="cls-6" d="M697.72754,358.80762h-6.63965v-1.5127l3.12354-2.78808a3.6255,3.6255,0,0,0,1.541-2.5625v-.18262a1.44929,1.44929,0,0,0-1.583-1.52637,1.82409,1.82409,0,0,0-1.835,1.54l-1.38672-.53223a3.286,3.286,0,0,1,3.34766-2.38086,2.82685,2.82685,0,0,1,3.1377,2.89942c0,1.583-1.0503,2.61914-2.33887,3.72656l-2.29736,1.97461h4.93066Z" transform="translate(-0.63037 -1.87207)"/>
          <path class="cls-6" d="M699.20752,353.919c0-3.19336,1.10693-5.05665,3.54394-5.05665,2.4375,0,3.54395,1.86329,3.54395,5.05665s-1.10645,5.05664-3.54395,5.05664C700.31445,358.97559,699.20752,357.1123,699.20752,353.919Zm5.40723.85449v-1.709c0-1.709-.5044-2.85742-1.86329-2.85742-1.35839,0-1.86279,1.14844-1.86279,2.85742v1.709c0,1.709.5044,2.85742,1.86279,2.85742C704.11035,357.63086,704.61475,356.48242,704.61475,354.77344Z" transform="translate(-0.63037 -1.87207)"/>
          <path class="cls-6" d="M708.18213,358.80762v-1.31641h2.74512v-7.3125h-.11182l-2.26953,2.42383-.96631-.86914,2.49316-2.70313h2.40967v8.46094h2.38086v1.31641Z" transform="translate(-0.63037 -1.87207)"/>
          <path class="cls-6" d="M722.46484,350.40332h-4.34228l-.25195,3.46h.09814a2.08969,2.08969,0,0,1,2.04492-1.27539,2.84259,2.84259,0,0,1,2.95557,3.05371,3.19038,3.19038,0,0,1-3.48779,3.334,3.58909,3.58909,0,0,1-3.23584-1.751l1.14843-.91016a2.3053,2.3053,0,0,0,2.11524,1.33008,1.64674,1.64674,0,0,0,1.80713-1.793v-.168a1.6472,1.6472,0,0,0-1.80713-1.793,2.05432,2.05432,0,0,0-1.65283.77051l-1.30274-.18164.36426-5.44922h5.54687Z" transform="translate(-0.63037 -1.87207)"/>
        </g>
        <g>
          <path class="cls-6" d="M800.08887,358.80762h-6.63965v-1.5127l3.12305-2.78808a3.6255,3.6255,0,0,0,1.541-2.5625v-.18262a1.44929,1.44929,0,0,0-1.583-1.52637,1.82446,1.82446,0,0,0-1.835,1.54l-1.38672-.53223a3.286,3.286,0,0,1,3.34766-2.38086,2.82685,2.82685,0,0,1,3.1377,2.89942c0,1.583-1.04981,2.61914-2.33887,3.72656l-2.29688,1.97461h4.93067Z" transform="translate(-0.63037 -1.87207)"/>
          <path class="cls-6" d="M801.56836,353.919c0-3.19336,1.10742-5.05665,3.54394-5.05665,2.4375,0,3.54395,1.86329,3.54395,5.05665s-1.10645,5.05664-3.54395,5.05664C802.67578,358.97559,801.56836,357.1123,801.56836,353.919Zm5.40723.85449v-1.709c0-1.709-.50391-2.85742-1.86329-2.85742-1.35839,0-1.8623,1.14844-1.8623,2.85742v1.709c0,1.709.50391,2.85742,1.8623,2.85742C806.47168,357.63086,806.97559,356.48242,806.97559,354.77344Z" transform="translate(-0.63037 -1.87207)"/>
          <path class="cls-6" d="M810.543,358.80762v-1.31641h2.74512v-7.3125h-.11133l-2.26953,2.42383-.9668-.86914,2.49316-2.70313h2.41016v8.46094h2.38086v1.31641Z" transform="translate(-0.63037 -1.87207)"/>
          <path class="cls-6" d="M820.10547,358.80762l3.54394-8.47461h-3.69824v1.80664h-1.3584v-3.10938h6.625v1.37305l-3.44531,8.4043Z" transform="translate(-0.63037 -1.87207)"/>
        </g>
        <g>
          <path class="cls-6" d="M1414.02441,358.80762h-6.63964v-1.5127l3.123-2.78808a3.62548,3.62548,0,0,0,1.541-2.5625v-.18262a1.44929,1.44929,0,0,0-1.583-1.52637,1.82446,1.82446,0,0,0-1.835,1.54l-1.38672-.53223a3.286,3.286,0,0,1,3.34766-2.38086,2.82685,2.82685,0,0,1,3.13769,2.89942c0,1.583-1.0498,2.61914-2.33887,3.72656l-2.29687,1.97461h4.93066Z" transform="translate(-0.63037 -1.87207)"/>
          <path class="cls-6" d="M1415.50391,353.919c0-3.19336,1.10742-5.05665,3.54394-5.05665,2.4375,0,3.54395,1.86329,3.54395,5.05665s-1.10645,5.05664-3.54395,5.05664C1416.61133,358.97559,1415.50391,357.1123,1415.50391,353.919Zm5.40722.85449v-1.709c0-1.709-.5039-2.85742-1.86328-2.85742-1.3584,0-1.8623,1.14844-1.8623,2.85742v1.709c0,1.709.5039,2.85742,1.8623,2.85742C1420.40723,357.63086,1420.91113,356.48242,1420.91113,354.77344Z" transform="translate(-0.63037 -1.87207)"/>
          <path class="cls-6" d="M1428.27441,358.80762v-1.90528h-4.53808V355.544l3.96387-6.51368h2.07324v6.626h1.33105v1.24609h-1.33105v1.90528Zm-3.19336-3.15137h3.19336v-5.18359h-.09765Z" transform="translate(-0.63037 -1.87207)"/>
          <path class="cls-6" d="M1438.76172,350.40332H1434.419l-.252,3.46h.09863a2.08879,2.08879,0,0,1,2.04493-1.27539,2.84221,2.84221,0,0,1,2.95507,3.05371,3.19,3.19,0,0,1-3.4873,3.334,3.59,3.59,0,0,1-3.23633-1.751l1.14844-.91016a2.30581,2.30581,0,0,0,2.11523,1.33008,1.64688,1.64688,0,0,0,1.80762-1.793v-.168a1.64733,1.64733,0,0,0-1.80762-1.793,2.05328,2.05328,0,0,0-1.65234.77051l-1.30273-.18164.36425-5.44922h5.54688Z" transform="translate(-0.63037 -1.87207)"/>
        </g>
        <g>
          <path class="cls-6" d="M69.835,10.249,65.36279,3.17383H69.0791l2.85547,4.95508h.063L74.895,3.17383h3.44336L73.82422,10.3125l4.76611,7.5166H74.895l-3.17041-5.39648h-.063L68.5752,17.8291H65.13184Z" transform="translate(-0.63037 -1.87207)"/>
          <path class="cls-6" d="M80.12549,4.09766V3.63574c0-.88183.5459-1.5332,1.80566-1.5332s1.80567.65137,1.80567,1.5332v.46192c0,.88183-.5459,1.53222-1.80567,1.53222S80.12549,4.97949,80.12549,4.09766Zm.252,2.708h3.10742V17.8291H80.37744Z" transform="translate(-0.63037 -1.87207)"/>
          <path class="cls-6" d="M86.3833,17.8291V6.80566h3.10742V8.6748h.126a3.00678,3.00678,0,0,1,3.06543-2.12109c2.24658,0,3.44336,1.5957,3.44336,4.36719v6.9082H93.01807V11.17285c0-1.40625-.39893-2.09961-1.53272-2.09961-1.00781,0-1.99463.52539-1.99463,1.61719V17.8291Z" transform="translate(-0.63037 -1.87207)"/>
          <path class="cls-6" d="M103.14014,22.28027c-3.82129,0-5.228-.96582-5.228-2.56152a2.054,2.054,0,0,1,2.05762-2.09961V17.3877A1.86173,1.86173,0,0,1,98.374,15.45605c0-1.15429,1.02881-1.74218,2.05762-1.95214v-.084A3.25117,3.25117,0,0,1,98.458,10.27051c0-2.22559,1.55371-3.7168,4.72412-3.7168a7.24256,7.24256,0,0,1,1.86865.21094V6.34473a1.46864,1.46864,0,0,1,1.65869-1.65918h1.74268V6.99512H106.0166v.126a3.26316,3.26316,0,0,1,1.88965,3.14942c0,2.20508-1.53271,3.65332-4.72412,3.65332a7.76039,7.76039,0,0,1-1.95264-.23145,1.03278,1.03278,0,0,0-.48291.88282c0,.52441.37793.83984,1.32276.83984h3.1914c2.6875,0,3.84229,1.17578,3.84229,3.21191C109.103,20.958,107.6333,22.28027,103.14014,22.28027Zm1.34375-4.2207h-3.7793a1.41767,1.41767,0,0,0-.39893.98731c0,.79785.62989,1.17578,2.30957,1.17578H103.875c1.67969,0,2.30957-.37793,2.30957-1.17578C106.18457,18.417,105.72266,18.05957,104.48389,18.05957Zm.5249-7.68359v-.252c0-.96679-.60889-1.51172-1.82666-1.51172s-1.82666.54493-1.82666,1.51172v.252c0,.96484.60889,1.51172,1.82666,1.51172S105.00879,11.34082,105.00879,10.376Z" transform="translate(-0.63037 -1.87207)"/>
          <path class="cls-6" d="M116.91553,15.98145h-.105a2.99189,2.99189,0,0,1-3.08643,2.0996c-2.24658,0-3.44336-1.57421-3.44336-4.3457V6.80566h3.10742v6.65625c0,1.34375.44092,2.09961,1.57471,2.09961a1.75487,1.75487,0,0,0,1.95264-1.5957V6.80566H120.023V17.8291h-3.10742Z" transform="translate(-0.63037 -1.87207)"/>
          <path class="cls-6" d="M131.23779,17.8291h-3.1914V3.17383h6.9497c2.7085,0,4.43018,1.88965,4.43018,4.68262a4.18081,4.18081,0,0,1-2.6665,4.21972l2.87646,5.75293h-3.54834l-2.56152-5.375h-2.28858Zm3.35938-8.0625a1.36051,1.36051,0,0,0,1.53271-1.44922V7.39355a1.36026,1.36026,0,0,0-1.53271-1.44824h-3.35938V9.7666Z" transform="translate(-0.63037 -1.87207)"/>
          <path class="cls-6" d="M141.78076,4.09766V3.63574c0-.88183.5459-1.5332,1.80567-1.5332s1.80566.65137,1.80566,1.5332v.46192c0,.88183-.5459,1.53222-1.80566,1.53222S141.78076,4.97949,141.78076,4.09766Zm.252,2.708h3.10743V17.8291h-3.10743Z" transform="translate(-0.63037 -1.87207)"/>
          <path class="cls-6" d="M150.39014,17.8291,146.77881,6.80566h3.06543l1.36474,4.45118,1.02881,3.99023h.168l1.02881-3.99023,1.32275-4.45118h2.93946L154.08545,17.8291Z" transform="translate(-0.63037 -1.87207)"/>
          <path class="cls-6" d="M158.47559,12.30762c0-3.48633,1.84765-5.75391,5.165-5.75391,3.65333,0,5.123,2.64649,5.123,5.627v.92383H161.688v.168a2.16559,2.16559,0,0,0,2.43555,2.373,3.49582,3.49582,0,0,0,2.70849-1.32227l1.55371,1.93164a5.9776,5.9776,0,0,1-4.61914,1.82617C160.38623,18.08105,158.47559,15.835,158.47559,12.30762Zm3.2124-1.19727v.168h3.86328v-.18945c0-1.34375-.60889-2.2461-1.84766-2.2461A2.015,2.015,0,0,0,161.688,11.11035Z" transform="translate(-0.63037 -1.87207)"/>
          <path class="cls-6" d="M170.97021,17.8291V6.80566h3.10743V9.2002h.105a2.7638,2.7638,0,0,1,2.81347-2.39454h.5459V9.7041h-.77685c-1.80567,0-2.6875.39844-2.6875,1.67969V17.8291Z" transform="translate(-0.63037 -1.87207)"/>
          <path class="cls-6" d="M183.52734,3.59375v.44043a5.868,5.868,0,0,1-2.28857,4.34668h-1.95264a6.304,6.304,0,0,0,1.93164-2.72949A1.47248,1.47248,0,0,1,179.916,4.11816V3.59375c0-.86035.54589-1.51172,1.80566-1.51172S183.52734,2.7334,183.52734,3.59375Z" transform="translate(-0.63037 -1.87207)"/>
          <path class="cls-6" d="M183.90625,16.10742l1.82666-1.84765a3.83463,3.83463,0,0,0,2.91846,1.40722c1.21777,0,1.63769-.39941,1.63769-1.05078,0-.54492-.33594-.81836-1.11279-.92383l-1.19678-.14648c-2.49853-.31445-3.71631-1.40625-3.71631-3.40137,0-2.12012,1.6587-3.59082,4.28321-3.59082a5.54085,5.54085,0,0,1,4.49316,1.72266l-1.78467,1.82617a3.68243,3.68243,0,0,0-2.54052-1.13379c-1.04981,0-1.46973.37793-1.46973.92383,0,.58789.25195.90332,1.15478,1.02832l1.23877.168c2.39356.31543,3.63233,1.40722,3.63233,3.31836,0,2.12011-1.88965,3.67382-4.72412,3.67382A5.75486,5.75486,0,0,1,183.90625,16.10742Z" transform="translate(-0.63037 -1.87207)"/>
          <path class="cls-6" d="M200.5166,3.17383h5.522c3.88428,0,6.44581,2.45605,6.44581,7.32715s-2.56153,7.32812-6.44581,7.32812h-5.522Zm5.522,11.82129c1.88965,0,3.06543-1.0293,3.06543-3.35938V9.36816c0-2.331-1.17578-3.35937-3.06543-3.35937H203.708v8.98633Z" transform="translate(-0.63037 -1.87207)"/>
          <path class="cls-6" d="M214.7334,4.09766V3.63574c0-.88183.5459-1.5332,1.80615-1.5332,1.25977,0,1.80469.65137,1.80469,1.5332v.46192c0,.88183-.54492,1.53222-1.80469,1.53222C215.2793,5.62988,214.7334,4.97949,214.7334,4.09766Zm.252,2.708h3.10694V17.8291h-3.10694Z" transform="translate(-0.63037 -1.87207)"/>
          <path class="cls-6" d="M220.08838,16.10742l1.82617-1.84765A3.83715,3.83715,0,0,0,224.8335,15.667c1.21777,0,1.63769-.39941,1.63769-1.05078,0-.54492-.33594-.81836-1.11328-.92383l-1.19629-.14648c-2.499-.31445-3.71582-1.40625-3.71582-3.40137,0-2.12012,1.6582-3.59082,4.2832-3.59082a5.53935,5.53935,0,0,1,4.49219,1.72266L227.437,10.10254a3.6804,3.6804,0,0,0-2.54-1.13379c-1.05078,0-1.4707.37793-1.4707.92383,0,.58789.252.90332,1.15527,1.02832l1.23926.168c2.39258.31543,3.63184,1.40722,3.63184,3.31836,0,2.12011-1.88965,3.67382-4.72364,3.67382A5.7552,5.7552,0,0,1,220.08838,16.10742Z" transform="translate(-0.63037 -1.87207)"/>
          <path class="cls-6" d="M230.88232,12.30762c0-3.52735,1.82715-5.75391,5.14356-5.75391a4.33275,4.33275,0,0,1,4.41016,2.877l-2.51954,1.0918a1.82664,1.82664,0,0,0-1.89062-1.51172c-1.25977,0-1.91016.90235-1.91016,2.28906v2.05665c0,1.38671.65039,2.28906,1.91016,2.28906a2.07458,2.07458,0,0,0,2.05859-1.65821l2.41407,1.04883a4.31881,4.31881,0,0,1-4.47266,3.04492C232.70947,18.08105,230.88232,15.835,230.88232,12.30762Z" transform="translate(-0.63037 -1.87207)"/>
          <path class="cls-6" d="M242.43213,2.292h3.10742V8.6748h.127A3.00556,3.00556,0,0,1,248.731,6.55371c2.24707,0,3.44336,1.5957,3.44336,4.36719v6.9082h-3.10743V11.17285c0-1.40625-.39843-2.09961-1.53222-2.09961-1.00781,0-1.99512.52539-1.99512,1.61719V17.8291h-3.10742Z" transform="translate(-0.63037 -1.87207)"/>
          <path class="cls-6" d="M263.09424,17.8291a2.09893,2.09893,0,0,1-2.09961-1.93164h-.125c-.33594,1.42774-1.55469,2.18359-3.23438,2.18359-2.2041,0-3.42187-1.30175-3.42187-3.21289,0-2.33007,1.80566-3.44336,4.72461-3.44336h1.74219v-.69238c0-1.07129-.52539-1.74316-1.82618-1.74316a2.72179,2.72179,0,0,0-2.373,1.30273L254.6333,8.65332a4.80748,4.80748,0,0,1,4.45117-2.09961c3.10742,0,4.70313,1.42774,4.70313,4.03125V15.415h1.02929V17.8291Zm-2.41406-3.33789V13.18848h-1.51172c-1.19727,0-1.82617.4414-1.82617,1.23925v.31543c0,.79688.52441,1.17579,1.44824,1.17579C259.81885,15.919,260.68018,15.499,260.68018,14.49121Z" transform="translate(-0.63037 -1.87207)"/>
          <path class="cls-6" d="M266.897,17.8291V6.80566h3.10742V9.2002h.1045a2.7638,2.7638,0,0,1,2.81347-2.39454h.5459V9.7041h-.77637c-1.80664,0-2.6875.39844-2.6875,1.67969V17.8291Z" transform="translate(-0.63037 -1.87207)"/>
          <path class="cls-6" d="M279.32861,22.28027c-3.82226,0-5.22851-.96582-5.22851-2.56152a2.05428,2.05428,0,0,1,2.05761-2.09961V17.3877a1.86173,1.86173,0,0,1-1.5957-1.93165c0-1.15429,1.02832-1.74218,2.05762-1.95214v-.084a3.25187,3.25187,0,0,1-1.97363-3.14941c0-2.22559,1.55371-3.7168,4.72363-3.7168a7.24391,7.24391,0,0,1,1.86914.21094V6.34473a1.46867,1.46867,0,0,1,1.6582-1.65918h1.74317V6.99512h-2.43555v.126a3.26391,3.26391,0,0,1,1.88965,3.14942c0,2.20508-1.5332,3.65332-4.72461,3.65332a7.76191,7.76191,0,0,1-1.95215-.23145,1.03321,1.03321,0,0,0-.4834.88282c0,.52441.37891.83984,1.32324.83984h3.19141c2.6875,0,3.84277,1.17578,3.84277,3.21191C285.2915,20.958,283.8208,22.28027,279.32861,22.28027Zm1.34375-4.2207h-3.77929a1.41606,1.41606,0,0,0-.39942.98731c0,.79785.62989,1.17578,2.30957,1.17578H280.063c1.67969,0,2.30957-.37793,2.30957-1.17578C282.37256,18.417,281.91064,18.05957,280.67236,18.05957Zm.52442-7.68359v-.252c0-.96679-.6084-1.51172-1.82715-1.51172-1.2168,0-1.82617.54493-1.82617,1.51172v.252c0,.96484.60937,1.51172,1.82617,1.51172C280.58838,11.8877,281.19678,11.34082,281.19678,10.376Z" transform="translate(-0.63037 -1.87207)"/>
          <path class="cls-6" d="M285.85986,12.30762c0-3.48633,1.84766-5.75391,5.165-5.75391,3.65332,0,5.123,2.64649,5.123,5.627v.92383h-7.0752v.168a2.16538,2.16538,0,0,0,2.43555,2.373,3.49558,3.49558,0,0,0,2.708-1.32227L295.77,16.25488a5.97688,5.97688,0,0,1-4.61914,1.82617C287.77,18.08105,285.85986,15.835,285.85986,12.30762Zm3.21289-1.19727v.168H292.936v-.18945c0-1.34375-.60938-2.2461-1.84766-2.2461A2.01478,2.01478,0,0,0,289.07275,11.11035Z" transform="translate(-0.63037 -1.87207)"/>
          <path class="cls-6" d="M306.313,1.87207h2.918a11.70385,11.70385,0,0,0-3.65235,8.69238v1.46973a11.47761,11.47761,0,0,0,3.65235,8.69238H306.2915c-2.03613-1.76367-3.65234-5.35449-3.65234-9.44824C302.63916,7.22559,304.21338,3.69824,306.313,1.87207Z" transform="translate(-0.63037 -1.87207)"/>
          <path class="cls-6" d="M310.40869,17.8291V6.80566h3.10742V8.6748h.125a2.94229,2.94229,0,0,1,2.96094-2.12109A3.0488,3.0488,0,0,1,319.688,8.78027h.06347a3.42476,3.42476,0,0,1,3.35938-2.22656c2.12012,0,3.2959,1.5957,3.2959,4.36719v6.9082h-3.10742V11.17285c0-1.42773-.48243-2.09961-1.51172-2.09961a1.65515,1.65515,0,0,0-1.82617,1.61719V17.8291H316.854V11.17285c0-1.42773-.5039-2.09961-1.51171-2.09961a1.66632,1.66632,0,0,0-1.82618,1.61719V17.8291Z" transform="translate(-0.63037 -1.87207)"/>
          <path class="cls-6" d="M330.90479,6.11328c.75585,0,1.07031-.25195,1.07031-.56738v-.084c0-.39843-.33594-.75586-.94531-.75586a2.16863,2.16863,0,0,0-1.67969.90333l-1.30078-1.23926a3.57878,3.57878,0,0,1,3.04394-1.32227c1.97363,0,3.14942.86133,3.14942,2.1211A1.71737,1.71737,0,0,1,332.647,6.86914v.084a1.79424,1.79424,0,0,1,1.72168,1.78418c0,1.42774-1.34375,2.31055-3.2959,2.31055a3.47091,3.47091,0,0,1-3.25488-1.57519l1.5957-1.21778a1.77162,1.77162,0,0,0,1.65918,1.13379c.65039,0,1.04883-.33594,1.04883-.83984v-.042c0-.48243-.52441-.67188-1.28027-.67188h-.65137V6.11328Z" transform="translate(-0.63037 -1.87207)"/>
          <path class="cls-6" d="M339.99658,20.999l6.25781-18.707h2.56055l-6.25586,18.707Z" transform="translate(-0.63037 -1.87207)"/>
          <path class="cls-6" d="M355.09521,16.10742l1.82715-1.84765a3.8321,3.8321,0,0,0,2.918,1.40722c1.21778,0,1.6377-.39941,1.6377-1.05078,0-.54492-.33594-.81836-1.11231-.92383l-1.19726-.14648c-2.498-.31445-3.7168-1.40625-3.7168-3.40137,0-2.12012,1.65918-3.59082,4.2832-3.59082A5.54236,5.54236,0,0,1,364.229,8.27637l-1.78515,1.82617a3.68448,3.68448,0,0,0-2.541-1.13379c-1.04883,0-1.46875.37793-1.46875.92383,0,.58789.252.90332,1.1543,1.02832l1.23828.168c2.39453.31543,3.63281,1.40722,3.63281,3.31836,0,2.12011-1.88965,3.67382-4.72461,3.67382A5.75453,5.75453,0,0,1,355.09521,16.10742Z" transform="translate(-0.63037 -1.87207)"/>
          <path class="cls-6" d="M367.77881,20.72656h-2.91895a11.70169,11.70169,0,0,0,3.6543-8.69238V10.56445a11.47352,11.47352,0,0,0-3.6543-8.69238h2.93946c2.03711,1.76367,3.65429,5.3125,3.65429,9.40625C371.45361,15.33105,369.87842,18.89941,367.77881,20.72656Z" transform="translate(-0.63037 -1.87207)"/>
        </g>
        <g>
          <path class="cls-6" d="M757.93506,283.84766v-4.32813a2.391,2.391,0,0,1,2.52148-2.60547,1.842,1.842,0,0,1,2.07325,1.69532h.084a2.15468,2.15468,0,0,1,2.28369-2.0459,2.63145,2.63145,0,0,1,2.81543,2.52148v4.7627Zm4.13183-1.583v-2.45117a1.09589,1.09589,0,0,0-1.1621-1.2334h-.44825a1.09659,1.09659,0,0,0-1.16308,1.2334v2.45117Zm4.2876,0v-2.71777a1.17587,1.17587,0,0,0-1.24707-1.31641h-.47656a1.17562,1.17562,0,0,0-1.24609,1.31641v2.71777Z" transform="translate(-0.63037 -1.87207)"/>
          <path class="cls-6" d="M764.07129,275.22363c-2.32568,0-3.811-1.27441-3.811-3.34765,0-2.14356,1.61133-3.23536,3.62842-3.23536h.57422v5h.23828a1.786,1.786,0,0,0,1.91895-1.918,2.13518,2.13518,0,0,0-1.09278-1.91993l.88282-.89648a3.37965,3.37965,0,0,1,1.4707,2.96973C767.88086,273.94922,766.39648,275.22363,764.07129,275.22363Zm-.71484-1.583h.09765V270.251h-.13965a1.63957,1.63957,0,0,0-1.86377,1.625A1.75378,1.75378,0,0,0,763.35645,273.64062Z" transform="translate(-0.63037 -1.87207)"/>
          <path class="cls-6" d="M767.71289,265.39453a1.38469,1.38469,0,0,1-1.51269,1.55469h-8.853v-1.52637h9.11865v-1.00879h1.24707Z" transform="translate(-0.63037 -1.87207)"/>
          <path class="cls-6" d="M764.07129,263.44922c-2.32568,0-3.811-1.31641-3.811-3.34766s1.48536-3.34765,3.811-3.34765c2.32519,0,3.80957,1.3164,3.80957,3.34765S766.39648,263.44922,764.07129,263.44922Zm.61621-5.084h-1.2334c-1.28857,0-1.9331.7002-1.9331,1.73633,0,1.03711.64453,1.73731,1.9331,1.73731h1.2334c1.28809,0,1.93262-.7002,1.93262-1.73731C766.62012,259.06543,765.97559,258.36523,764.6875,258.36523Z" transform="translate(-0.63037 -1.87207)"/>
          <path class="cls-6" d="M757.93506,251.64844v-1.877l4.97265-2.62011v-.084l-4.97265-2.61914v-1.793h9.77783v1.5127h-7.481v.07031l1.583.76953,3.90869,2.14356-3.90869,2.14355-1.583.76953v.07032h7.481v1.51367Z" transform="translate(-0.63037 -1.87207)"/>
          <path class="cls-6" d="M764.07129,240.85352c-2.32568,0-3.811-1.31641-3.811-3.34766s1.48536-3.34766,3.811-3.34766c2.32519,0,3.80957,1.31641,3.80957,3.34766S766.39648,240.85352,764.07129,240.85352Zm.61621-5.084h-1.2334c-1.28857,0-1.9331.7002-1.9331,1.73633,0,1.03711.64453,1.7373,1.9331,1.7373h1.2334c1.28809,0,1.93262-.70019,1.93262-1.7373C766.62012,236.46973,765.97559,235.76953,764.6875,235.76953Z" transform="translate(-0.63037 -1.87207)"/>
          <path class="cls-6" d="M767.71289,232.46777h-7.28467v-1.52636h1.20508v-.07032a2.03124,2.03124,0,0,1-1.373-2.04492c0-1.48437,1.03711-2.36719,2.83008-2.36719h4.62256v1.52637h-4.42676c-1.13427,0-1.70947.43457-1.70947,1.373,0,.79785.40625,1.583,1.26074,1.583h4.87549Z" transform="translate(-0.63037 -1.87207)"/>
          <path class="cls-6" d="M767.71289,222.33105a1.4462,1.4462,0,0,1-1.583,1.61036h-4.45459v1.13476h-1.24707v-.61523c0-.50489-.21-.67285-.71386-.67285H758.439V222.415h1.98926v-1.52637h1.24707V222.415h4.79053V221h1.24707Z" transform="translate(-0.63037 -1.87207)"/>
          <path class="cls-6" d="M764.07129,219.78516c-2.32568,0-3.811-1.27539-3.811-3.34766,0-2.14355,1.61133-3.23633,3.62842-3.23633h.57422v5.001h.23828a1.78672,1.78672,0,0,0,1.91895-1.91895,2.13627,2.13627,0,0,0-1.09278-1.91992l.88282-.89648a3.38022,3.38022,0,0,1,1.4707,2.9707C767.88086,218.50977,766.39648,219.78516,764.07129,219.78516Zm-.71484-1.583h.09765V214.8125h-.13965a1.63957,1.63957,0,0,0-1.86377,1.625A1.75378,1.75378,0,0,0,763.35645,218.20215Z" transform="translate(-0.63037 -1.87207)"/>
          <path class="cls-6" d="M766.50781,208.85156l-.89648-.98047a2.57652,2.57652,0,0,0,1.03711-2.05957c0-.88281-.36426-1.33105-.98047-1.33105-.46289,0-.8125.28027-.91113,1.03711l-.084.67187c-.18164,1.48438-.82617,2.39551-2.17139,2.39551-1.415,0-2.24121-1.10644-2.24121-2.7041a3.29038,3.29038,0,0,1,1.16309-2.7168l.89648.93848a2.31973,2.31973,0,0,0-.82714,1.77832c0,.84082.36425,1.2334.91113,1.2334.55957,0,.813-.35059.939-1.12012l.084-.67285c.23828-1.59668.93847-2.31152,2.11523-2.31152,1.40039,0,2.33887,1.13476,2.33887,2.88574A3.51892,3.51892,0,0,1,766.50781,208.85156Z" transform="translate(-0.63037 -1.87207)"/>
          <path class="cls-6" d="M767.71289,199.37109a1.44692,1.44692,0,0,1-1.583,1.61133h-4.45459v1.13477h-1.24707V201.5c0-.50391-.21-.67188-.71386-.67188H758.439v-1.373h1.98926v-1.52637h1.24707v1.52637h4.79053V198.041h1.24707Z" transform="translate(-0.63037 -1.87207)"/>
          <path class="cls-6" d="M767.71289,190.94141a1.26081,1.26081,0,0,1-1.21875,1.31738v.06933a2.02732,2.02732,0,0,1,1.38672,2.12891,2.0913,2.0913,0,0,1-2.1709,2.35352c-1.44336,0-2.18555-1.07813-2.18555-3.10938v-1.3164h-.6167c-.88281,0-1.40039.47656-1.40039,1.498a1.93393,1.93393,0,0,0,.99414,1.73731l-.82617.91113a2.94855,2.94855,0,0,1-1.415-2.74609c0-1.877.92481-2.92774,2.54981-2.92774h3.65576v-.77051h1.24707Zm-2.15723,1.44336h-1.05078v1.28808c0,1.06543.35059,1.583.98047,1.583h.25293c.64356,0,.98047-.47656.98047-1.23242C766.71875,193.085,766.27051,192.38477,765.55566,192.38477Z" transform="translate(-0.63037 -1.87207)"/>
          <path class="cls-6" d="M767.71289,188.59277h-7.28467v-1.52636h1.40137v-.07032a1.92565,1.92565,0,0,1-1.40137-2.00293v-.40625h1.47071v.60254c0,1.2041.40625,1.877,1.16308,1.877h4.65088Z" transform="translate(-0.63037 -1.87207)"/>
          <path class="cls-6" d="M767.71289,181.1582a1.44662,1.44662,0,0,1-1.583,1.61035h-4.45459v1.13477h-1.24707v-.61621c0-.50391-.21-.67285-.71386-.67285H758.439v-1.37207h1.98926v-1.52735h1.24707v1.52735h4.79053v-1.415h1.24707Z" transform="translate(-0.63037 -1.87207)"/>
          <path class="cls-6" d="M766.50781,178.709l-.89648-.98046a2.57375,2.57375,0,0,0,1.03711-2.05957c0-.88184-.36426-1.33008-.98047-1.33008-.46289,0-.8125.28027-.91113,1.03613l-.084.67285c-.18164,1.48438-.82617,2.39453-2.17139,2.39453-1.415,0-2.24121-1.10644-2.24121-2.70312a3.29372,3.29372,0,0,1,1.16309-2.71778l.89648.93848a2.32186,2.32186,0,0,0-.82714,1.7793c0,.84082.36425,1.23242.91113,1.23242.55957,0,.813-.34961.939-1.12012l.084-.67285c.23828-1.59668.93847-2.31055,2.11523-2.31055,1.40039,0,2.33887,1.13379,2.33887,2.88477A3.51636,3.51636,0,0,1,766.50781,178.709Z" transform="translate(-0.63037 -1.87207)"/>
          <path class="cls-6" d="M764.07129,168.335c-2.32568,0-3.811-1.31641-3.811-3.34766s1.48536-3.34765,3.811-3.34765c2.32519,0,3.80957,1.3164,3.80957,3.34765S766.39648,168.335,764.07129,168.335Zm.61621-5.085h-1.2334c-1.28857,0-1.9331.70117-1.9331,1.7373s.64453,1.73731,1.9331,1.73731h1.2334c1.28809,0,1.93262-.70117,1.93262-1.73731S765.97559,163.25,764.6875,163.25Z" transform="translate(-0.63037 -1.87207)"/>
          <path class="cls-6" d="M760.42822,159.94922v-1.52637h1.20508v-.07031a2.06149,2.06149,0,0,1-1.373-2.04492c0-1.835,1.415-2.89942,3.811-2.89942,2.39453,0,3.80957,1.06446,3.80957,2.89942a2.08,2.08,0,0,1-1.37305,2.04492v.07031h4.00684v1.52637Zm4.273-4.93067h-1.26074a1.70854,1.70854,0,0,0-1.86377,1.751c0,.92481.50488,1.65332,1.24707,1.65332h2.49365c.74219,0,1.24707-.72851,1.24707-1.65332A1.70788,1.70788,0,0,0,764.70117,155.01855Z" transform="translate(-0.63037 -1.87207)"/>
          <path class="cls-6" d="M764.07129,152.15137c-2.32568,0-3.811-1.27442-3.811-3.34766,0-2.14355,1.61133-3.23535,3.62842-3.23535h.57422v5h.23828a1.78623,1.78623,0,0,0,1.91895-1.919,2.1336,2.1336,0,0,0-1.09278-1.91894l.88282-.89649a3.37966,3.37966,0,0,1,1.4707,2.96973C767.88086,150.877,766.39648,152.15137,764.07129,152.15137Zm-.71484-1.583h.09765v-3.38965h-.13965a1.63957,1.63957,0,0,0-1.86377,1.625A1.75378,1.75378,0,0,0,763.35645,150.56836Z" transform="translate(-0.63037 -1.87207)"/>
          <path class="cls-6" d="M767.71289,143.877h-7.28467v-1.52636h1.40137v-.07032a1.92565,1.92565,0,0,1-1.40137-2.00293v-.40625h1.47071v.60254c0,1.2041.40625,1.877,1.16308,1.877h4.65088Z" transform="translate(-0.63037 -1.87207)"/>
          <path class="cls-6" d="M767.71289,133.29a1.2608,1.2608,0,0,1-1.21875,1.31738v.06934a2.02776,2.02776,0,0,1,1.38672,2.12988,2.09144,2.09144,0,0,1-2.1709,2.35254c-1.44336,0-2.18555-1.07813-2.18555-3.10938v-1.3164h-.6167c-.88281,0-1.40039.47558-1.40039,1.49805a1.93505,1.93505,0,0,0,.99414,1.7373l-.82617.91016a2.94472,2.94472,0,0,1-1.415-2.74512c0-1.87695.92481-2.92774,2.54981-2.92774h3.65576v-.7705h1.24707Zm-2.15723,1.44336h-1.05078v1.28808c0,1.06446.35059,1.583.98047,1.583h.25293c.64356,0,.98047-.47656.98047-1.23242C766.71875,135.43359,766.27051,134.7334,765.55566,134.7334Z" transform="translate(-0.63037 -1.87207)"/>
          <path class="cls-6" d="M767.71289,128.9668a1.44663,1.44663,0,0,1-1.583,1.61035h-4.45459v1.13476h-1.24707v-.61621c0-.5039-.21-.67285-.71386-.67285H758.439v-1.37207h1.98926v-1.52734h1.24707v1.52734h4.79053v-1.415h1.24707Z" transform="translate(-0.63037 -1.87207)"/>
          <path class="cls-6" d="M758.32764,126.01367h-.23828c-.46192,0-.79883-.28027-.79883-.91113,0-.62988.33691-.89649.79883-.89649h.23828c.46191,0,.79785.26661.79785.89649C759.12549,125.7334,758.78955,126.01367,758.32764,126.01367Zm2.10058-.14062v-1.52637h7.28467v1.52637Z" transform="translate(-0.63037 -1.87207)"/>
          <path class="cls-6" d="M767.71289,122.16309h-7.28467v-1.52637h1.20508v-.07031a2.03211,2.03211,0,0,1-1.373-2.04493c0-1.48535,1.03711-2.36718,2.83008-2.36718h4.62256v1.52636h-4.42676c-1.13427,0-1.70947.43457-1.70947,1.373,0,.79785.40625,1.583,1.26074,1.583h4.87549Z" transform="translate(-0.63037 -1.87207)"/>
          <path class="cls-6" d="M770.68262,111.35449c0,2.38184-.64453,3.30567-1.751,3.30567a1.36352,1.36352,0,0,1-1.40039-1.2461h-.1543a1.11209,1.11209,0,0,1-1.12109.82617c-.75586,0-1.12012-.58789-1.28809-1.28906h-.05664a2.27482,2.27482,0,0,1-2.15771,1.33106c-1.48438,0-2.49317-1.05078-2.49317-2.89942a3.50106,3.50106,0,0,1,.22461-1.3164h-.19629c-.64453,0-1.03711-.3086-1.03711-.95313v-1.12012h1.2334v1.48438h.29395a2.282,2.282,0,0,1,1.97461-1.02246c1.47119,0,2.46631,1.06445,2.46631,2.91406a3.85372,3.85372,0,0,1-.11231.95215c.126.36426.36426.70019.72852.70019.39258,0,.5459-.37793.5459-1.02246v-1.793c0-1.793.75683-2.5498,2.01757-2.5498C769.91211,107.65625,770.68262,108.73535,770.68262,111.35449Zm-7.80323-1.40039h-.27929c-.82715,0-1.2334.51856-1.2334,1.415s.40625,1.41406,1.2334,1.41406h.27929c.82764,0,1.23389-.51758,1.23389-1.41406S763.707,109.9541,762.87939,109.9541Zm4.86182.46192v2.46582a.93839.93839,0,0,0,.83984.5039c.58887,0,.99512-.43457.99512-1.56836v-.95312c0-1.19043-.33691-1.77832-1.00879-1.77832C768.06348,109.08594,767.74121,109.42188,767.74121,110.416Z" transform="translate(-0.63037 -1.87207)"/>
        </g>
      </g>
    </g>
  </g>
</svg>
