<?xml version="1.0" encoding="utf-8"?>
<!-- Generator: Adobe Illustrator 23.0.1, SVG Export Plug-In . SVG Version: 6.00 Build 0)  -->
<svg version="1.1" id="Layer_1" xmlns="http://www.w3.org/2000/svg" xmlns:xlink="http://www.w3.org/1999/xlink" x="0px" y="0px"
	 viewBox="0 0 737.3 386.8" style="enable-background:new 0 0 737.3 386.8;" xml:space="preserve">
<style type="text/css">
	.st0{font-family:'MyriadPro-Bold';}
	.st1{font-size:12px;}
	.st2{font-family:'IBMPlexSans-Bold';}
	.st3{font-size:23.1888px;}
	.st4{letter-spacing:-1;}
	.st5{font-family:'IBMPlexSans-Medium';}
	.st6{fill:#01A648;}
	.st7{fill:none;stroke:#000000;stroke-miterlimit:10;}
	.st8{fill:none;stroke:#000000;stroke-miterlimit:10;stroke-dasharray:12.0507,12.0507;}
</style>
<title>Asset 1</title>
<g>
	<text transform="matrix(1 0 0 1 6.1558 241.3358)" class="st0 st1">5000</text>
	<text transform="matrix(1 0 0 1 24.6235 299.1589)" class="st0 st1">0</text>
	<text transform="matrix(1 0 0 1 0 183.5132)" class="st0 st1">10000</text>
	<text transform="matrix(1 0 0 1 0 125.6898)" class="st0 st1">15000</text>
	<text transform="matrix(1 0 0 1 0 67.8674)" class="st0 st1">20000</text>
	<text transform="matrix(1 0 0 1 0 10.0439)" class="st0 st1">25000</text>
	<text transform="matrix(1 0 0 1 42.1014 312.2594)" class="st0 st1">1985</text>
	<text transform="matrix(1 0 0 1 343.9618 312.2594)" class="st0 st1">2015</text>
	<text transform="matrix(1 0 0 1 400.8879 312.2594)" class="st0 st1">2017</text>
	<text transform="matrix(1 0 0 1 698.5448 312.2594)" class="st0 st1">2045</text>
	<text transform="matrix(1 0 0 1 212.3218 380.4124)" class="st2 st3">Xin</text>
	<text transform="matrix(1 0 0 1 248.3799 380.4124)" class="st2 st3">g</text>
	<text transform="matrix(1 0 0 1 261.0869 380.4124)" class="st2 st3">u Ri</text>
	<text transform="matrix(1 0 0 1 302.6406 380.4124)" class="st2 st3">v</text>
	<text transform="matrix(1 0 0 1 314.9307 380.4124)" class="st2 st3">e</text>
	<text transform="matrix(1 0 0 1 327.9629 380.4124)" class="st2 st3">r</text>
	<text transform="matrix(1 0 0 1 337.9102 380.4124)" class="st2 st3 st4">’</text>
	<text transform="matrix(1 0 0 1 343.2437 380.4124)" class="st2 st3">s discha</text>
	<text transform="matrix(1 0 0 1 431.8237 380.4124)" class="st2 st3">r</text>
	<text transform="matrix(1 0 0 1 440.8667 380.4124)" class="st2 st3">g</text>
	<text transform="matrix(1 0 0 1 453.5278 380.4124)" class="st2 st3">e (m3 / s)</text>
	<text transform="matrix(6.123234e-17 -1 1 6.123234e-17 386.165 230.8301)" class="st5 st1">Belo Mon</text>
	<text transform="matrix(6.123234e-17 -1 1 6.123234e-17 386.165 179.7354)" class="st5 st1">t</text>
	<text transform="matrix(6.123234e-17 -1 1 6.123234e-17 386.165 175.4033)" class="st5 st1">e </text>
	<text transform="matrix(6.123234e-17 -1 1 6.123234e-17 386.165 165.8994)" class="st5 st1">s</text>
	<text transform="matrix(6.123234e-17 -1 1 6.123234e-17 386.165 160.0547)" class="st5 st1">ta</text>
	<text transform="matrix(6.123234e-17 -1 1 6.123234e-17 386.165 149.0879)" class="st5 st1">r</text>
	<text transform="matrix(6.123234e-17 -1 1 6.123234e-17 386.165 144.4434)" class="st5 st1">ts ope</text>
	<text transform="matrix(6.123234e-17 -1 1 6.123234e-17 386.165 110.7598)" class="st5 st1">r</text>
	<text transform="matrix(6.123234e-17 -1 1 6.123234e-17 386.165 106.2598)" class="st5 st1">a</text>
	<text transform="matrix(6.123234e-17 -1 1 6.123234e-17 386.165 99.708)" class="st5 st1">ting</text>
	<polygon class="st6" points="49.8,55.4 54.8,55.4 65.8,98.4 76.8,77.4 88.8,65.4 98.8,60.4 110.8,44.4 121.8,92.4 132.8,91.4 
		144.8,49.4 156.8,56.4 166.8,93.4 177.8,53.4 188.8,191.4 198.8,156.4 208.8,63.4 221.8,102.4 233.8,148.4 243.8,95.4 254.8,6.4 
		266.8,50.4 277.8,26.4 288.8,79.4 299.8,43.4 312.8,42.4 321.8,108.4 332.8,64.4 343.8,75.4 355.8,95.4 365.8,23.4 365.8,296.4 
		48.8,296.4 	"/>
	<polygon points="400.3,148.9 410.3,123.9 423.3,152.9 435.3,158.9 446.3,160.9 456.3,175.9 467.3,136.9 478.3,162.9 489.3,159.9 
		501.3,161.9 511.3,154.9 523.3,157.9 534.3,162.9 544.3,152.9 555.3,141.9 566.3,130.9 579.3,128.9 591.3,140.9 602.3,120.9 
		611.3,125.9 622.3,161.9 633.3,121.9 645.3,158.9 656.3,112.9 667.3,160.9 679.3,140.9 690.3,134.9 699.3,154.9 711.3,145.9 
		711.3,295.9 400.3,295.9 	"/>
	<polyline class="st7" points="42.6,6.5 49.6,6.5 49.8,6.5 49.8,296 737.3,296 	"/>
	<line class="st7" x1="49.6" y1="64.3" x2="42.6" y2="64.3"/>
	<line class="st7" x1="49.6" y1="6.4" x2="42.6" y2="6.4"/>
	<line class="st7" x1="49.6" y1="122.2" x2="42.6" y2="122.2"/>
	<line class="st7" x1="49.6" y1="180.2" x2="42.6" y2="180.2"/>
	<line class="st7" x1="49.6" y1="238.1" x2="42.6" y2="238.1"/>
	<line class="st7" x1="49.6" y1="296.4" x2="42.6" y2="296.4"/>
	<line class="st7" x1="49.6" y1="296" x2="42.6" y2="296"/>
	<g>
		<line class="st7" x1="365.8" y1="296.4" x2="365.8" y2="290.4"/>
		<line class="st8" x1="365.8" y1="278.3" x2="365.8" y2="19.2"/>
		<line class="st7" x1="365.8" y1="13.2" x2="365.8" y2="7.2"/>
	</g>
	<g>
		<line class="st7" x1="399.9" y1="296.4" x2="399.9" y2="290.4"/>
		<line class="st8" x1="399.9" y1="278.3" x2="399.9" y2="19.2"/>
		<line class="st7" x1="399.9" y1="13.2" x2="399.9" y2="7.2"/>
	</g>
</g>
</svg>
