<?xml version="1.0" encoding="utf-8"?>
<!-- Generator: Adobe Illustrator 23.0.1, SVG Export Plug-In . SVG Version: 6.00 Build 0)  -->
<svg version="1.1" id="Layer_1" xmlns="http://www.w3.org/2000/svg" xmlns:xlink="http://www.w3.org/1999/xlink" x="0px" y="0px"
	 viewBox="0 0 778.3 379.3" style="enable-background:new 0 0 778.3 379.3;" xml:space="preserve">
<style type="text/css">
	.st0{fill:#01A648;}
	.st1{font-family:'IBMPlexSans-Bold';}
	.st2{font-size:12px;}
	.st3{fill:#19398F;}
	.st4{font-size:23.1888px;}
	.st5{fill:none;stroke:#000000;stroke-miterlimit:10;}
	.st6{fill:none;stroke:#000000;stroke-miterlimit:10;stroke-dasharray:12.0507,12.0507;}
	.st7{font-family:'MyriadPro-Bold';}
</style>
<title>Asset 2</title>
<g>
	<g id="Layer_3">
		<g>
			<path class="st0" d="M41.6,175.6c0,0,38.5-2.5,49.9-7.9s22.8-2.4,26.4-3.3s17.4-6,23.4-6.3s34.2-6.9,39.9-8.7s50.7-9.9,54.9-11.4
				s9.6-8.4,19.8-10.5c10.2-2.1,45.3-4.8,51.9-6.9s9.6-6.6,15.3-6.3s13.2,3.6,17.7,2.1s13.8-11.7,18.6-12.9s30.3-9,34.2-10.8
				s27.6-13.8,32.4-14.1s34.5,9,34.5,9v200.4H41.4L41.6,175.6z"/>
			<polygon class="st0" points="704.1,37.5 460.5,87.6 460.5,288.1 703.6,288.1 			"/>
			<polygon points="704.1,101 460.5,87.6 460.5,288.1 703.6,288.1 			"/>
			<text transform="matrix(1 0 0 1 715.3096 198.782)" class="st1 st2">With </text>
			<text transform="matrix(1 0 0 1 715.3096 213.1824)" class="st1 st2">Belo Mon</text>
			<text transform="matrix(1 0 0 1 767.0405 213.1824)" class="st1 st2">t</text>
			<text transform="matrix(1 0 0 1 771.5884 213.1824)" class="st1 st2">e</text>
			<text transform="matrix(1 0 0 1 715.3096 62.4244)" class="st3 st1 st2">Without </text>
			<text transform="matrix(1 0 0 1 715.3096 76.8248)" class="st3 st1 st2">Belo Mon</text>
			<text transform="matrix(1 0 0 1 767.0405 76.8248)" class="st3 st1 st2">t</text>
			<text transform="matrix(1 0 0 1 771.5884 76.8248)" class="st3 st1 st2">e</text>
			<text transform="matrix(1 0 0 1 248.4092 372.9696)" class="st1 st4">C</text>
			<text transform="matrix(1 0 0 1 263.2036 372.9696)" class="st1 st4">O2 Emi</text>
			<text transform="matrix(1 0 0 1 340.5835 372.9696)" class="st1 st4">s</text>
			<text transform="matrix(1 0 0 1 352.1084 372.9696)" class="st1 st4">sions (Mt</text>
			<text transform="matrix(1 0 0 1 450.1963 372.9696)" class="st1 st4">C</text>
			<text transform="matrix(1 0 0 1 464.9902 372.9696)" class="st1 st4">O2)</text>
			<g>
				<line class="st5" x1="460.2" y1="289.2" x2="460.2" y2="283.2"/>
				<line class="st6" x1="460.2" y1="271.1" x2="460.2" y2="12"/>
				<line class="st5" x1="460.2" y1="6" x2="460.2" y2="0"/>
			</g>
			<text transform="matrix(1 0 0 1 34.1898 304.8167)" class="st7 st2">1985</text>
			<text transform="matrix(1 0 0 1 446.5677 304.8167)" class="st7 st2">2015</text>
			<text transform="matrix(1 0 0 1 689.7373 304.8167)" class="st7 st2">2030</text>
			<polyline class="st5" points="41.7,114.8 41.9,8.8 41.9,288.6 709.9,288.6 			"/>
			<line class="st5" x1="41.7" y1="8.8" x2="34.7" y2="8.8"/>
			<line class="st5" x1="41.7" y1="102.2" x2="34.7" y2="102.2"/>
			<line class="st5" x1="41.7" y1="289" x2="34.7" y2="289"/>
			<line class="st5" x1="41.7" y1="195.6" x2="34.7" y2="195.6"/>
			<text transform="matrix(1 0 0 1 6.1561 197.8987)" class="st7 st2">500</text>
			<text transform="matrix(1 0 0 1 18.4675 290.5529)" class="st7 st2">0</text>
			<text transform="matrix(1 0 0 1 -1.831055e-04 105.2452)" class="st7 st2">1000</text>
			<text transform="matrix(1 0 0 1 -1.831055e-04 12.5906)" class="st7 st2">1500</text>
		</g>
	</g>
</g>
</svg>
