<svg xmlns="http://www.w3.org/2000/svg" xmlns:xlink="http://www.w3.org/1999/xlink" viewBox="0 0 1440.17529 357.10352">
  <defs>
    <style>
      .cls-1, .cls-7, .cls-8 {
        fill: none;
      }

      .cls-2 {
        clip-path: url(#clip-path);
      }

      .cls-3 {
        fill: red;
      }

      .cls-4 {
        fill: #ff0;
      }

      .cls-5 {
        fill: url(#Nuovo_campione_pattern_7);
      }

      .cls-6 {
        fill: url(#Nuovo_campione_pattern_6);
      }

      .cls-7, .cls-8 {
        stroke: #fff;
        stroke-miterlimit: 10;
      }

      .cls-8 {
        stroke-dasharray: 12.05068 12.05068;
      }

      .cls-9 {
        fill: #fff;
      }
    </style>
    <clipPath id="clip-path">
      <rect class="cls-1" x="-0.00006" y="0.00013" width="11.00701" height="11.00701"/>
    </clipPath>
    <pattern id="Nuovo_campione_pattern_7" data-name="Nuovo campione pattern 7" x="-0.63037" y="-1.87207" width="11.00701" height="11.00701" patternUnits="userSpaceOnUse" viewBox="0 0 11.007 11.007">
      <rect class="cls-1" width="11.00701" height="11.00701"/>
      <g class="cls-2">
        <g>
          <rect class="cls-4" x="-3.62508" y="-3.625" width="7.25024" height="7.25024" rx="2.02427"/>
          <rect class="cls-4" x="7.20824" y="-3.625" width="7.25024" height="7.25024" rx="2.02427"/>
          <rect class="cls-4" x="-3.62508" y="7.38202" width="7.25024" height="7.25024" rx="2.02427"/>
          <rect class="cls-4" x="7.20824" y="7.38202" width="7.25024" height="7.25024" rx="2.02427"/>
        </g>
      </g>
    </pattern>
    <pattern id="Nuovo_campione_pattern_6" data-name="Nuovo campione pattern 6" x="-0.63037" y="-1.87207" width="11.00701" height="11.00701" patternUnits="userSpaceOnUse" viewBox="0 0 11.007 11.007">
      <rect class="cls-1" width="11.00701" height="11.00701"/>
      <g class="cls-2">
        <g>
          <rect class="cls-3" x="-3.62518" y="-3.625" width="7.25024" height="7.25024" rx="2.02427"/>
          <rect class="cls-3" x="7.20814" y="-3.625" width="7.25024" height="7.25024" rx="2.02427"/>
          <rect class="cls-3" x="-3.62518" y="7.38202" width="7.25024" height="7.25024" rx="2.02427"/>
          <rect class="cls-3" x="7.20814" y="7.38202" width="7.25024" height="7.25024" rx="2.02427"/>
        </g>
      </g>
    </pattern>
  </defs>
  <title>Risorsa 11</title>
  <g id="Livello_2" data-name="Livello 2">
    <g id="Testi">
      <g>
        <polygon class="cls-5" points="67.982 95.062 78.348 95.062 101.153 138.062 123.959 117.062 148.837 105.062 169.569 100.062 194.448 84.062 217.253 132.062 240.059 131.062 264.938 89.062 289.816 96.062 310.548 133.062 333.354 93.062 356.159 231.062 376.891 196.062 397.623 103.062 412.355 124.378 414.717 132.132 424.575 142.062 449.454 188.062 470.186 135.062 492.992 46.062 517.87 90.062 540.676 66.062 563.481 119.062 586.286 83.062 613.238 82.062 631.897 148.062 654.703 104.062 677.508 115.062 702.387 135.062 731.954 46.062 731.954 336.062 65.909 336.062 67.982 95.062"/>
        <polygon class="cls-6" points="797.155 185.535 815.377 163.562 842.329 192.562 867.207 198.562 890.013 200.562 910.745 215.562 933.55 176.562 956.356 202.562 979.161 199.562 1004.04 201.562 1024.772 194.562 1049.651 197.562 1072.456 202.562 1093.188 192.562 1115.994 181.562 1138.799 170.562 1165.751 168.562 1190.629 180.562 1213.435 160.562 1232.094 165.562 1254.899 201.562 1277.705 161.562 1302.583 198.562 1325.389 152.562 1348.194 200.562 1373.073 180.562 1395.878 174.562 1414.537 194.562 1439.416 185.562 1439.416 335.562 797.541 335.562 797.155 185.535"/>
        <polyline class="cls-7" points="53.231 46.146 67.2 46.146 67.43 46.146 67.43 335.699 1439.416 335.699"/>
        <line class="cls-7" x1="67.74326" y1="103.98686" x2="53.23073" y2="103.98686"/>
        <line class="cls-7" x1="67.74326" y1="161.91327" x2="53.23073" y2="161.91327"/>
        <line class="cls-7" x1="67.74326" y1="219.83968" x2="53.23073" y2="219.83968"/>
        <line class="cls-7" x1="67.74326" y1="277.76608" x2="53.23073" y2="277.76608"/>
        <line class="cls-7" x1="67.74326" y1="335.69249" x2="53.23073" y2="335.69249"/>
        <g>
          <line class="cls-7" x1="735.68546" y1="336.06152" x2="735.68546" y2="330.06152"/>
          <line class="cls-8" x1="735.68546" y1="318.01086" x2="735.68546" y2="58.92126"/>
          <line class="cls-7" x1="735.68546" y1="52.89587" x2="735.68546" y2="46.89587"/>
        </g>
        <g>
          <line class="cls-7" x1="793.91956" y1="336.06152" x2="793.91956" y2="330.06152"/>
          <line class="cls-8" x1="793.91956" y1="318.01086" x2="793.91956" y2="58.92126"/>
          <line class="cls-7" x1="793.91956" y1="52.89587" x2="793.91956" y2="46.89587"/>
        </g>
        <g>
          <path class="cls-9" d="M15.51562,274.47949H11.17334l-.25195,3.46h.09814a2.0897,2.0897,0,0,1,2.04492-1.27539A2.84259,2.84259,0,0,1,16.02,279.71777a3.19038,3.19038,0,0,1-3.48779,3.334,3.58908,3.58908,0,0,1-3.23584-1.751l1.14843-.91016a2.3053,2.3053,0,0,0,2.11524,1.33008,1.64674,1.64674,0,0,0,1.80713-1.793v-.168a1.64719,1.64719,0,0,0-1.80713-1.793,2.05432,2.05432,0,0,0-1.65283.7705l-1.30274-.18164.36426-5.44921h5.54687Z" transform="translate(-0.63037 -1.87207)"/>
          <path class="cls-9" d="M17.458,277.99512c0-3.19336,1.10693-5.05664,3.54394-5.05664,2.4375,0,3.54395,1.86328,3.54395,5.05664s-1.10645,5.05664-3.54395,5.05664C18.56494,283.05176,17.458,281.18848,17.458,277.99512Zm5.40722.85449v-1.709c0-1.709-.50439-2.85742-1.86328-2.85742-1.3584,0-1.86279,1.14844-1.86279,2.85742v1.709c0,1.709.50439,2.85742,1.86279,2.85742C22.36084,281.707,22.86523,280.55859,22.86523,278.84961Z" transform="translate(-0.63037 -1.87207)"/>
          <path class="cls-9" d="M25.85791,277.99512c0-3.19336,1.10693-5.05664,3.54395-5.05664,2.4375,0,3.54394,1.86328,3.54394,5.05664s-1.10644,5.05664-3.54394,5.05664C26.96484,283.05176,25.85791,281.18848,25.85791,277.99512Zm5.40723.85449v-1.709c0-1.709-.5044-2.85742-1.86328-2.85742-1.3584,0-1.8628,1.14844-1.8628,2.85742v1.709c0,1.709.5044,2.85742,1.8628,2.85742C30.76074,281.707,31.26514,280.55859,31.26514,278.84961Z" transform="translate(-0.63037 -1.87207)"/>
          <path class="cls-9" d="M34.25781,277.99512c0-3.19336,1.10694-5.05664,3.544-5.05664,2.4375,0,3.54394,1.86328,3.54394,5.05664s-1.10644,5.05664-3.54394,5.05664C35.36475,283.05176,34.25781,281.18848,34.25781,277.99512Zm5.40723.85449v-1.709c0-1.709-.5044-2.85742-1.86328-2.85742-1.3584,0-1.8628,1.14844-1.8628,2.85742v1.709c0,1.709.5044,2.85742,1.8628,2.85742C39.16064,281.707,39.665,280.55859,39.665,278.84961Z" transform="translate(-0.63037 -1.87207)"/>
        </g>
        <path class="cls-9" d="M34.25781,335.81836c0-3.19336,1.10694-5.05664,3.544-5.05664,2.4375,0,3.54394,1.86328,3.54394,5.05664s-1.10644,5.05664-3.54394,5.05664C35.36475,340.875,34.25781,339.01172,34.25781,335.81836Zm5.40723.85449v-1.709c0-1.709-.5044-2.85742-1.86328-2.85742-1.3584,0-1.8628,1.14843-1.8628,2.85742v1.709c0,1.709.5044,2.85742,1.8628,2.85742C39.16064,339.53027,39.665,338.38184,39.665,336.67285Z" transform="translate(-0.63037 -1.87207)"/>
        <g>
          <path class="cls-9" d="M1.23242,225.06055v-1.31641H3.978v-7.3125H3.86621l-2.26953,2.42383-.96631-.86914,2.49317-2.70313H5.5332v8.46094H7.91406v1.31641Z" transform="translate(-0.63037 -1.87207)"/>
          <path class="cls-9" d="M9.05811,220.17188c0-3.19336,1.10693-5.05665,3.54394-5.05665,2.4375,0,3.544,1.86329,3.544,5.05665s-1.10645,5.05664-3.544,5.05664C10.165,225.22852,9.05811,223.36523,9.05811,220.17188Zm5.40722.85546v-1.709c0-1.709-.50439-2.85742-1.86328-2.85742-1.3584,0-1.86279,1.14844-1.86279,2.85742v1.709c0,1.709.50439,2.85743,1.86279,2.85743C13.96094,223.88477,14.46533,222.73633,14.46533,221.02734Z" transform="translate(-0.63037 -1.87207)"/>
          <path class="cls-9" d="M17.458,220.17188c0-3.19336,1.10693-5.05665,3.54394-5.05665,2.4375,0,3.54395,1.86329,3.54395,5.05665s-1.10645,5.05664-3.54395,5.05664C18.56494,225.22852,17.458,223.36523,17.458,220.17188Zm5.40722.85546v-1.709c0-1.709-.50439-2.85742-1.86328-2.85742-1.3584,0-1.86279,1.14844-1.86279,2.85742v1.709c0,1.709.50439,2.85743,1.86279,2.85743C22.36084,223.88477,22.86523,222.73633,22.86523,221.02734Z" transform="translate(-0.63037 -1.87207)"/>
          <path class="cls-9" d="M25.85791,220.17188c0-3.19336,1.10693-5.05665,3.54395-5.05665,2.4375,0,3.54394,1.86329,3.54394,5.05665s-1.10644,5.05664-3.54394,5.05664C26.96484,225.22852,25.85791,223.36523,25.85791,220.17188Zm5.40723.85546v-1.709c0-1.709-.5044-2.85742-1.86328-2.85742-1.3584,0-1.8628,1.14844-1.8628,2.85742v1.709c0,1.709.5044,2.85743,1.8628,2.85743C30.76074,223.88477,31.26514,222.73633,31.26514,221.02734Z" transform="translate(-0.63037 -1.87207)"/>
          <path class="cls-9" d="M34.25781,220.17188c0-3.19336,1.10694-5.05665,3.544-5.05665,2.4375,0,3.54394,1.86329,3.54394,5.05665s-1.10644,5.05664-3.54394,5.05664C35.36475,225.22852,34.25781,223.36523,34.25781,220.17188Zm5.40723.85546v-1.709c0-1.709-.5044-2.85742-1.86328-2.85742-1.3584,0-1.8628,1.14844-1.8628,2.85742v1.709c0,1.709.5044,2.85743,1.8628,2.85743C39.16064,223.88477,39.665,222.73633,39.665,221.02734Z" transform="translate(-0.63037 -1.87207)"/>
        </g>
        <g>
          <path class="cls-9" d="M1.23242,167.2373v-1.3164H3.978v-7.3125H3.86621l-2.26953,2.42383-.96631-.86914L3.12354,157.46H5.5332v8.46094H7.91406v1.3164Z" transform="translate(-0.63037 -1.87207)"/>
          <path class="cls-9" d="M15.51562,158.833H11.17334l-.25195,3.46h.09814a2.08969,2.08969,0,0,1,2.04492-1.27539A2.84258,2.84258,0,0,1,16.02,164.07129a3.19037,3.19037,0,0,1-3.48779,3.334,3.58909,3.58909,0,0,1-3.23584-1.751l1.14843-.91016a2.3053,2.3053,0,0,0,2.11524,1.33008,1.64675,1.64675,0,0,0,1.80713-1.793v-.168a1.64719,1.64719,0,0,0-1.80713-1.793,2.05432,2.05432,0,0,0-1.65283.77051l-1.30274-.18164L9.96875,157.46h5.54687Z" transform="translate(-0.63037 -1.87207)"/>
          <path class="cls-9" d="M17.458,162.34863c0-3.19336,1.10693-5.05664,3.54394-5.05664,2.4375,0,3.54395,1.86328,3.54395,5.05664s-1.10645,5.05664-3.54395,5.05664C18.56494,167.40527,17.458,165.542,17.458,162.34863Zm5.40722.85449v-1.709c0-1.709-.50439-2.85742-1.86328-2.85742-1.3584,0-1.86279,1.14844-1.86279,2.85742v1.709c0,1.709.50439,2.85743,1.86279,2.85743C22.36084,166.06055,22.86523,164.91211,22.86523,163.20312Z" transform="translate(-0.63037 -1.87207)"/>
          <path class="cls-9" d="M25.85791,162.34863c0-3.19336,1.10693-5.05664,3.54395-5.05664,2.4375,0,3.54394,1.86328,3.54394,5.05664s-1.10644,5.05664-3.54394,5.05664C26.96484,167.40527,25.85791,165.542,25.85791,162.34863Zm5.40723.85449v-1.709c0-1.709-.5044-2.85742-1.86328-2.85742-1.3584,0-1.8628,1.14844-1.8628,2.85742v1.709c0,1.709.5044,2.85743,1.8628,2.85743C30.76074,166.06055,31.26514,164.91211,31.26514,163.20312Z" transform="translate(-0.63037 -1.87207)"/>
          <path class="cls-9" d="M34.25781,162.34863c0-3.19336,1.10694-5.05664,3.544-5.05664,2.4375,0,3.54394,1.86328,3.54394,5.05664s-1.10644,5.05664-3.54394,5.05664C35.36475,167.40527,34.25781,165.542,34.25781,162.34863Zm5.40723.85449v-1.709c0-1.709-.5044-2.85742-1.86328-2.85742-1.3584,0-1.8628,1.14844-1.8628,2.85742v1.709c0,1.709.5044,2.85743,1.8628,2.85743C39.16064,166.06055,39.665,164.91211,39.665,163.20312Z" transform="translate(-0.63037 -1.87207)"/>
        </g>
        <g>
          <path class="cls-9" d="M7.57812,109.415H.93848v-1.5127L4.062,105.11426a3.6238,3.6238,0,0,0,1.541-2.5625v-.18262a1.44929,1.44929,0,0,0-1.583-1.52637,1.82409,1.82409,0,0,0-1.835,1.54l-1.38672-.53222a3.28615,3.28615,0,0,1,3.34814-2.38086,2.8271,2.8271,0,0,1,3.1377,2.89941c0,1.583-1.05078,2.61914-2.33936,3.72656l-2.29736,1.97461H7.57812Z" transform="translate(-0.63037 -1.87207)"/>
          <path class="cls-9" d="M9.05811,104.52637c0-3.19336,1.10693-5.05664,3.54394-5.05664,2.4375,0,3.544,1.86328,3.544,5.05664s-1.10645,5.05664-3.544,5.05664C10.165,109.583,9.05811,107.71973,9.05811,104.52637Zm5.40722.85449v-1.709c0-1.709-.50439-2.85743-1.86328-2.85743-1.3584,0-1.86279,1.14844-1.86279,2.85743v1.709c0,1.709.50439,2.85742,1.86279,2.85742C13.96094,108.23828,14.46533,107.08984,14.46533,105.38086Z" transform="translate(-0.63037 -1.87207)"/>
          <path class="cls-9" d="M17.458,104.52637c0-3.19336,1.10693-5.05664,3.54394-5.05664,2.4375,0,3.54395,1.86328,3.54395,5.05664S23.43945,109.583,21.002,109.583C18.56494,109.583,17.458,107.71973,17.458,104.52637Zm5.40722.85449v-1.709c0-1.709-.50439-2.85743-1.86328-2.85743-1.3584,0-1.86279,1.14844-1.86279,2.85743v1.709c0,1.709.50439,2.85742,1.86279,2.85742C22.36084,108.23828,22.86523,107.08984,22.86523,105.38086Z" transform="translate(-0.63037 -1.87207)"/>
          <path class="cls-9" d="M25.85791,104.52637c0-3.19336,1.10693-5.05664,3.54395-5.05664,2.4375,0,3.54394,1.86328,3.54394,5.05664s-1.10644,5.05664-3.54394,5.05664C26.96484,109.583,25.85791,107.71973,25.85791,104.52637Zm5.40723.85449v-1.709c0-1.709-.5044-2.85743-1.86328-2.85743-1.3584,0-1.8628,1.14844-1.8628,2.85743v1.709c0,1.709.5044,2.85742,1.8628,2.85742C30.76074,108.23828,31.26514,107.08984,31.26514,105.38086Z" transform="translate(-0.63037 -1.87207)"/>
          <path class="cls-9" d="M34.25781,104.52637c0-3.19336,1.10694-5.05664,3.544-5.05664,2.4375,0,3.54394,1.86328,3.54394,5.05664s-1.10644,5.05664-3.54394,5.05664C35.36475,109.583,34.25781,107.71973,34.25781,104.52637Zm5.40723.85449v-1.709c0-1.709-.5044-2.85743-1.86328-2.85743-1.3584,0-1.8628,1.14844-1.8628,2.85743v1.709c0,1.709.5044,2.85742,1.8628,2.85742C39.16064,108.23828,39.665,107.08984,39.665,105.38086Z" transform="translate(-0.63037 -1.87207)"/>
        </g>
        <g>
          <path class="cls-9" d="M7.57812,51.5918H.93848V50.0791L4.062,47.291a3.6238,3.6238,0,0,0,1.541-2.5625V44.5459A1.44929,1.44929,0,0,0,4.02,43.01953a1.82409,1.82409,0,0,0-1.835,1.54L.79834,44.02734a3.28616,3.28616,0,0,1,3.34814-2.38086,2.8271,2.8271,0,0,1,3.1377,2.89942c0,1.583-1.05078,2.61914-2.33936,3.72656L2.64746,50.24707H7.57812Z" transform="translate(-0.63037 -1.87207)"/>
          <path class="cls-9" d="M15.51562,43.1875H11.17334l-.25195,3.46h.09814a2.08969,2.08969,0,0,1,2.04492-1.27539A2.84259,2.84259,0,0,1,16.02,48.42578a3.19038,3.19038,0,0,1-3.48779,3.334,3.5891,3.5891,0,0,1-3.23584-1.751l1.14843-.91016a2.3053,2.3053,0,0,0,2.11524,1.33008,1.64674,1.64674,0,0,0,1.80713-1.793v-.168a1.6472,1.6472,0,0,0-1.80713-1.793,2.05432,2.05432,0,0,0-1.65283.77051l-1.30274-.18164.36426-5.44922h5.54687Z" transform="translate(-0.63037 -1.87207)"/>
          <path class="cls-9" d="M17.458,46.70312c0-3.19335,1.10693-5.05664,3.54394-5.05664,2.4375,0,3.54395,1.86329,3.54395,5.05664s-1.10645,5.05665-3.54395,5.05665C18.56494,51.75977,17.458,49.89648,17.458,46.70312Zm5.40722.8545v-1.709c0-1.709-.50439-2.85742-1.86328-2.85742-1.3584,0-1.86279,1.14844-1.86279,2.85742v1.709c0,1.709.50439,2.85742,1.86279,2.85742C22.36084,50.415,22.86523,49.2666,22.86523,47.55762Z" transform="translate(-0.63037 -1.87207)"/>
          <path class="cls-9" d="M25.85791,46.70312c0-3.19335,1.10693-5.05664,3.54395-5.05664,2.4375,0,3.54394,1.86329,3.54394,5.05664s-1.10644,5.05665-3.54394,5.05665C26.96484,51.75977,25.85791,49.89648,25.85791,46.70312Zm5.40723.8545v-1.709c0-1.709-.5044-2.85742-1.86328-2.85742-1.3584,0-1.8628,1.14844-1.8628,2.85742v1.709c0,1.709.5044,2.85742,1.8628,2.85742C30.76074,50.415,31.26514,49.2666,31.26514,47.55762Z" transform="translate(-0.63037 -1.87207)"/>
          <path class="cls-9" d="M34.25781,46.70312c0-3.19335,1.10694-5.05664,3.544-5.05664,2.4375,0,3.54394,1.86329,3.54394,5.05664s-1.10644,5.05665-3.54394,5.05665C35.36475,51.75977,34.25781,49.89648,34.25781,46.70312Zm5.40723.8545v-1.709c0-1.709-.5044-2.85742-1.86328-2.85742-1.3584,0-1.8628,1.14844-1.8628,2.85742v1.709c0,1.709.5044,2.85742,1.8628,2.85742C39.16064,50.415,39.665,49.2666,39.665,47.55762Z" transform="translate(-0.63037 -1.87207)"/>
        </g>
        <g>
          <path class="cls-9" d="M66.62207,358.80762v-1.31641h2.74512v-7.3125h-.11182l-2.26953,2.42383-.96631-.86914,2.49317-2.70313h2.40966v8.46094h2.38086v1.31641Z" transform="translate(-0.63037 -1.87207)"/>
          <path class="cls-9" d="M77.90723,358.80762H75.80615c2.21338-1.61133,3.4878-2.89942,3.96436-5.001l-.09815-.02734a2.4021,2.4021,0,0,1-2.26953,1.42871,2.80825,2.80825,0,0,1-2.87158-3.02637,3.19939,3.19939,0,0,1,3.43213-3.31934c2.15723,0,3.4458,1.47071,3.4458,3.80958A7.70231,7.70231,0,0,1,77.90723,358.80762Zm1.86328-6.668v-.19531a1.80719,1.80719,0,0,0-3.61426,0v.19531a1.80719,1.80719,0,0,0,3.61426,0Z" transform="translate(-0.63037 -1.87207)"/>
          <path class="cls-9" d="M82.88916,356.14648a2.38692,2.38692,0,0,1,1.96143-2.40918v-.1123a2.32076,2.32076,0,0,1-1.667-2.25586c0-1.49805,1.17676-2.50684,3.20752-2.50684,2.03125,0,3.208,1.00879,3.208,2.50684a2.32075,2.32075,0,0,1-1.667,2.25586v.1123a2.3865,2.3865,0,0,1,1.96094,2.40918c0,1.61036-1.23243,2.82911-3.502,2.82911C84.12207,358.97559,82.88916,357.75684,82.88916,356.14648Zm5.35107.01368v-.28028c0-.96679-.67236-1.541-1.84912-1.541-1.17627,0-1.84912.57422-1.84912,1.541v.28028c0,.96679.67285,1.541,1.84912,1.541C87.56787,357.70117,88.24023,357.127,88.24023,356.16016Zm-.18212-4.41211v-.23828c0-.88282-.58838-1.373-1.667-1.373s-1.667.49023-1.667,1.373v.23828c0,.88183.58838,1.37207,1.667,1.37207S88.05811,352.62988,88.05811,351.74805Z" transform="translate(-0.63037 -1.87207)"/>
          <path class="cls-9" d="M97.70459,350.40332H93.3623l-.252,3.46h.09815a2.08968,2.08968,0,0,1,2.04492-1.27539A2.84258,2.84258,0,0,1,98.209,355.6416a3.19038,3.19038,0,0,1-3.48779,3.334,3.58911,3.58911,0,0,1-3.23584-1.751l1.14844-.91016a2.30528,2.30528,0,0,0,2.11523,1.33008,1.64674,1.64674,0,0,0,1.80713-1.793v-.168a1.64719,1.64719,0,0,0-1.80713-1.793,2.05434,2.05434,0,0,0-1.65283.77051l-1.30273-.18164.36425-5.44922h5.54688Z" transform="translate(-0.63037 -1.87207)"/>
        </g>
        <g>
          <path class="cls-9" d="M710.294,358.80762H703.6543v-1.5127l3.12353-2.78808a3.62548,3.62548,0,0,0,1.541-2.5625v-.18262a1.44929,1.44929,0,0,0-1.583-1.52637,1.82409,1.82409,0,0,0-1.835,1.54l-1.38672-.53223a3.286,3.286,0,0,1,3.34766-2.38086,2.82685,2.82685,0,0,1,3.13769,2.89942c0,1.583-1.05029,2.61914-2.33887,3.72656l-2.29736,1.97461H710.294Z" transform="translate(-0.63037 -1.87207)"/>
          <path class="cls-9" d="M711.77393,353.919c0-3.19336,1.10693-5.05665,3.54394-5.05665,2.4375,0,3.54395,1.86329,3.54395,5.05665s-1.10645,5.05664-3.54395,5.05664C712.88086,358.97559,711.77393,357.1123,711.77393,353.919Zm5.40722.85449v-1.709c0-1.709-.50439-2.85742-1.86328-2.85742-1.3584,0-1.86279,1.14844-1.86279,2.85742v1.709c0,1.709.50439,2.85742,1.86279,2.85742C716.67676,357.63086,717.18115,356.48242,717.18115,354.77344Z" transform="translate(-0.63037 -1.87207)"/>
          <path class="cls-9" d="M720.74854,358.80762v-1.31641h2.74511v-7.3125h-.11181l-2.26954,2.42383-.9663-.86914,2.49316-2.70313h2.40967v8.46094h2.38086v1.31641Z" transform="translate(-0.63037 -1.87207)"/>
          <path class="cls-9" d="M735.03125,350.40332H730.689l-.25195,3.46h.09815a2.08968,2.08968,0,0,1,2.04492-1.27539,2.84258,2.84258,0,0,1,2.95556,3.05371,3.19038,3.19038,0,0,1-3.48779,3.334,3.58911,3.58911,0,0,1-3.23584-1.751l1.14844-.91016a2.30528,2.30528,0,0,0,2.11523,1.33008,1.64674,1.64674,0,0,0,1.80713-1.793v-.168a1.64719,1.64719,0,0,0-1.80713-1.793,2.05434,2.05434,0,0,0-1.65283.77051l-1.30273-.18164.36426-5.44922h5.54687Z" transform="translate(-0.63037 -1.87207)"/>
        </g>
        <g>
          <path class="cls-9" d="M800.08887,358.80762h-6.63965v-1.5127l3.12305-2.78808a3.6255,3.6255,0,0,0,1.541-2.5625v-.18262a1.44929,1.44929,0,0,0-1.583-1.52637,1.82446,1.82446,0,0,0-1.835,1.54l-1.38672-.53223a3.286,3.286,0,0,1,3.34766-2.38086,2.82685,2.82685,0,0,1,3.1377,2.89942c0,1.583-1.04981,2.61914-2.33887,3.72656l-2.29688,1.97461h4.93067Z" transform="translate(-0.63037 -1.87207)"/>
          <path class="cls-9" d="M801.56836,353.919c0-3.19336,1.10742-5.05665,3.54394-5.05665,2.4375,0,3.54395,1.86329,3.54395,5.05665s-1.10645,5.05664-3.54395,5.05664C802.67578,358.97559,801.56836,357.1123,801.56836,353.919Zm5.40723.85449v-1.709c0-1.709-.50391-2.85742-1.86329-2.85742-1.35839,0-1.8623,1.14844-1.8623,2.85742v1.709c0,1.709.50391,2.85742,1.8623,2.85742C806.47168,357.63086,806.97559,356.48242,806.97559,354.77344Z" transform="translate(-0.63037 -1.87207)"/>
          <path class="cls-9" d="M810.543,358.80762v-1.31641h2.74512v-7.3125h-.11133l-2.26953,2.42383-.9668-.86914,2.49316-2.70313h2.41016v8.46094h2.38086v1.31641Z" transform="translate(-0.63037 -1.87207)"/>
          <path class="cls-9" d="M820.10547,358.80762l3.54394-8.47461h-3.69824v1.80664h-1.3584v-3.10938h6.625v1.37305l-3.44531,8.4043Z" transform="translate(-0.63037 -1.87207)"/>
        </g>
        <g>
          <path class="cls-9" d="M1414.02441,358.80762h-6.63964v-1.5127l3.123-2.78808a3.62548,3.62548,0,0,0,1.541-2.5625v-.18262a1.44929,1.44929,0,0,0-1.583-1.52637,1.82446,1.82446,0,0,0-1.835,1.54l-1.38672-.53223a3.286,3.286,0,0,1,3.34766-2.38086,2.82685,2.82685,0,0,1,3.13769,2.89942c0,1.583-1.0498,2.61914-2.33887,3.72656l-2.29687,1.97461h4.93066Z" transform="translate(-0.63037 -1.87207)"/>
          <path class="cls-9" d="M1415.50391,353.919c0-3.19336,1.10742-5.05665,3.54394-5.05665,2.4375,0,3.54395,1.86329,3.54395,5.05665s-1.10645,5.05664-3.54395,5.05664C1416.61133,358.97559,1415.50391,357.1123,1415.50391,353.919Zm5.40722.85449v-1.709c0-1.709-.5039-2.85742-1.86328-2.85742-1.3584,0-1.8623,1.14844-1.8623,2.85742v1.709c0,1.709.5039,2.85742,1.8623,2.85742C1420.40723,357.63086,1420.91113,356.48242,1420.91113,354.77344Z" transform="translate(-0.63037 -1.87207)"/>
          <path class="cls-9" d="M1428.27441,358.80762v-1.90528h-4.53808V355.544l3.96387-6.51368h2.07324v6.626h1.33105v1.24609h-1.33105v1.90528Zm-3.19336-3.15137h3.19336v-5.18359h-.09765Z" transform="translate(-0.63037 -1.87207)"/>
          <path class="cls-9" d="M1438.76172,350.40332H1434.419l-.252,3.46h.09863a2.08879,2.08879,0,0,1,2.04493-1.27539,2.84221,2.84221,0,0,1,2.95507,3.05371,3.19,3.19,0,0,1-3.4873,3.334,3.59,3.59,0,0,1-3.23633-1.751l1.14844-.91016a2.30581,2.30581,0,0,0,2.11523,1.33008,1.64688,1.64688,0,0,0,1.80762-1.793v-.168a1.64733,1.64733,0,0,0-1.80762-1.793,2.05328,2.05328,0,0,0-1.65234.77051l-1.30273-.18164.36425-5.44922h5.54688Z" transform="translate(-0.63037 -1.87207)"/>
        </g>
        <g>
          <path class="cls-9" d="M74.79053,10.249,70.31836,3.17383h3.71631l2.85547,4.95508h.063l2.89747-4.95508H83.294L78.77979,10.3125l4.76611,7.5166H79.85059l-3.17041-5.39648h-.063L73.53076,17.8291H70.0874Z" transform="translate(-0.63037 -1.87207)"/>
          <path class="cls-9" d="M85.08105,4.09766V3.63574c0-.88183.5459-1.5332,1.80567-1.5332s1.80566.65137,1.80566,1.5332v.46192c0,.88183-.5459,1.53222-1.80566,1.53222S85.08105,4.97949,85.08105,4.09766Zm.252,2.708h3.10742V17.8291H85.333Z" transform="translate(-0.63037 -1.87207)"/>
          <path class="cls-9" d="M91.33887,17.8291V6.80566h3.10742V8.6748h.126A3.00678,3.00678,0,0,1,97.6377,6.55371c2.24658,0,3.44335,1.5957,3.44335,4.36719v6.9082H97.97363V11.17285c0-1.40625-.39892-2.09961-1.53271-2.09961-1.00781,0-1.99463.52539-1.99463,1.61719V17.8291Z" transform="translate(-0.63037 -1.87207)"/>
          <path class="cls-9" d="M108.0957,22.28027c-3.82129,0-5.228-.96582-5.228-2.56152a2.054,2.054,0,0,1,2.05761-2.09961V17.3877a1.86173,1.86173,0,0,1-1.5957-1.93165c0-1.15429,1.02881-1.74218,2.05762-1.95214v-.084a3.25116,3.25116,0,0,1-1.97364-3.14941c0-2.22559,1.55372-3.7168,4.72413-3.7168a7.24256,7.24256,0,0,1,1.86865.21094V6.34473A1.46863,1.46863,0,0,1,111.665,4.68555h1.74267V6.99512h-2.43554v.126a3.26316,3.26316,0,0,1,1.88965,3.14942c0,2.20508-1.53272,3.65332-4.72412,3.65332a7.76028,7.76028,0,0,1-1.95264-.23145,1.03276,1.03276,0,0,0-.48291.88282c0,.52441.37793.83984,1.32275.83984h3.19141c2.6875,0,3.84228,1.17578,3.84228,3.21191C114.05859,20.958,112.58887,22.28027,108.0957,22.28027Zm1.34375-4.2207h-3.77929a1.41767,1.41767,0,0,0-.39893.98731c0,.79785.62988,1.17578,2.30957,1.17578h1.25977c1.67968,0,2.30957-.37793,2.30957-1.17578C111.14014,18.417,110.67822,18.05957,109.43945,18.05957Zm.52491-7.68359v-.252c0-.96679-.60889-1.51172-1.82666-1.51172S106.311,9.15723,106.311,10.124v.252c0,.96484.60888,1.51172,1.82666,1.51172S109.96436,11.34082,109.96436,10.376Z" transform="translate(-0.63037 -1.87207)"/>
          <path class="cls-9" d="M121.87109,15.98145h-.105a2.99188,2.99188,0,0,1-3.08642,2.0996c-2.24658,0-3.44336-1.57421-3.44336-4.3457V6.80566h3.10742v6.65625c0,1.34375.44092,2.09961,1.57471,2.09961a1.75486,1.75486,0,0,0,1.95263-1.5957V6.80566h3.10743V17.8291h-3.10743Z" transform="translate(-0.63037 -1.87207)"/>
          <path class="cls-9" d="M136.19336,17.8291H133.002V3.17383h6.94971c2.7085,0,4.43018,1.88965,4.43018,4.68262a4.1808,4.1808,0,0,1-2.66651,4.21972l2.87647,5.75293h-3.54834l-2.56153-5.375h-2.28857Zm3.35937-8.0625a1.36051,1.36051,0,0,0,1.53272-1.44922V7.39355a1.36026,1.36026,0,0,0-1.53272-1.44824h-3.35937V9.7666Z" transform="translate(-0.63037 -1.87207)"/>
          <path class="cls-9" d="M146.73633,4.09766V3.63574c0-.88183.5459-1.5332,1.80566-1.5332s1.80567.65137,1.80567,1.5332v.46192c0,.88183-.5459,1.53222-1.80567,1.53222S146.73633,4.97949,146.73633,4.09766Zm.25195,2.708h3.10742V17.8291h-3.10742Z" transform="translate(-0.63037 -1.87207)"/>
          <path class="cls-9" d="M155.3457,17.8291,151.73438,6.80566h3.06542l1.36475,4.45118,1.02881,3.99023h.168l1.02881-3.99023,1.32275-4.45118h2.93945L159.041,17.8291Z" transform="translate(-0.63037 -1.87207)"/>
          <path class="cls-9" d="M163.43115,12.30762c0-3.48633,1.84766-5.75391,5.165-5.75391,3.65332,0,5.12305,2.64649,5.12305,5.627v.92383h-7.07569v.168a2.1656,2.1656,0,0,0,2.43555,2.373,3.49582,3.49582,0,0,0,2.7085-1.32227l1.55371,1.93164a5.97763,5.97763,0,0,1-4.61914,1.82617C165.3418,18.08105,163.43115,15.835,163.43115,12.30762Zm3.2124-1.19727v.168h3.86329v-.18945c0-1.34375-.60889-2.2461-1.84766-2.2461A2.015,2.015,0,0,0,166.64355,11.11035Z" transform="translate(-0.63037 -1.87207)"/>
          <path class="cls-9" d="M175.92578,17.8291V6.80566h3.10742V9.2002h.105a2.76382,2.76382,0,0,1,2.81348-2.39454h.5459V9.7041h-.77686c-1.80566,0-2.6875.39844-2.6875,1.67969V17.8291Z" transform="translate(-0.63037 -1.87207)"/>
          <path class="cls-9" d="M188.48291,3.59375v.44043a5.868,5.868,0,0,1-2.28857,4.34668H184.2417a6.304,6.304,0,0,0,1.93164-2.72949,1.47249,1.47249,0,0,1-1.30176-1.53321V3.59375c0-.86035.5459-1.51172,1.80567-1.51172S188.48291,2.7334,188.48291,3.59375Z" transform="translate(-0.63037 -1.87207)"/>
          <path class="cls-9" d="M188.86182,16.10742l1.82666-1.84765a3.8346,3.8346,0,0,0,2.91845,1.40722c1.21778,0,1.6377-.39941,1.6377-1.05078,0-.54492-.33594-.81836-1.11279-.92383l-1.19678-.14648c-2.49854-.31445-3.71631-1.40625-3.71631-3.40137,0-2.12012,1.65869-3.59082,4.2832-3.59082a5.54089,5.54089,0,0,1,4.49317,1.72266l-1.78467,1.82617a3.68244,3.68244,0,0,0-2.54053-1.13379c-1.0498,0-1.46972.37793-1.46972.92383,0,.58789.25195.90332,1.15478,1.02832l1.23877.168c2.39355.31543,3.63232,1.40722,3.63232,3.31836,0,2.12011-1.88964,3.67382-4.72412,3.67382A5.75485,5.75485,0,0,1,188.86182,16.10742Z" transform="translate(-0.63037 -1.87207)"/>
          <path class="cls-9" d="M205.47217,3.17383h5.522c3.88428,0,6.4458,2.45605,6.4458,7.32715s-2.56152,7.32812-6.4458,7.32812h-5.522Zm5.522,11.82129c1.88965,0,3.06543-1.0293,3.06543-3.35938V9.36816c0-2.331-1.17578-3.35937-3.06543-3.35937h-2.33057v8.98633Z" transform="translate(-0.63037 -1.87207)"/>
          <path class="cls-9" d="M219.68994,4.09766V3.63574c0-.88183.54492-1.5332,1.80469-1.5332s1.80664.65137,1.80664,1.5332v.46192c0,.88183-.54688,1.53222-1.80664,1.53222S219.68994,4.97949,219.68994,4.09766Zm.25195,2.708h3.10743V17.8291h-3.10743Z" transform="translate(-0.63037 -1.87207)"/>
          <path class="cls-9" d="M225.04443,16.10742l1.82715-1.84765a3.8321,3.8321,0,0,0,2.918,1.40722c1.21777,0,1.6377-.39941,1.6377-1.05078,0-.54492-.33594-.81836-1.11231-.92383l-1.19726-.14648c-2.49805-.31445-3.7168-1.40625-3.7168-3.40137,0-2.12012,1.65918-3.59082,4.2832-3.59082a5.54236,5.54236,0,0,1,4.49414,1.72266l-1.78515,1.82617a3.68448,3.68448,0,0,0-2.541-1.13379c-1.04883,0-1.46875.37793-1.46875.92383,0,.58789.252.90332,1.1543,1.02832l1.23828.168c2.39453.31543,3.63281,1.40722,3.63281,3.31836,0,2.12011-1.88965,3.67382-4.72461,3.67382A5.75452,5.75452,0,0,1,225.04443,16.10742Z" transform="translate(-0.63037 -1.87207)"/>
          <path class="cls-9" d="M235.83838,12.30762c0-3.52735,1.82617-5.75391,5.14453-5.75391a4.331,4.331,0,0,1,4.4082,2.877l-2.51953,1.0918a1.82384,1.82384,0,0,0-1.88867-1.51172c-1.25977,0-1.91113.90235-1.91113,2.28906v2.05665c0,1.38671.65136,2.28906,1.91113,2.28906a2.07239,2.07239,0,0,0,2.05664-1.65821l2.415,1.04883a4.31911,4.31911,0,0,1-4.47168,3.04492C237.66455,18.08105,235.83838,15.835,235.83838,12.30762Z" transform="translate(-0.63037 -1.87207)"/>
          <path class="cls-9" d="M247.38721,2.292h3.10742V8.6748h.12695A3.00556,3.00556,0,0,1,253.686,6.55371c2.24707,0,3.44335,1.5957,3.44335,4.36719v6.9082H254.022V11.17285c0-1.40625-.39843-2.09961-1.53222-2.09961-1.00782,0-1.99512.52539-1.99512,1.61719V17.8291h-3.10742Z" transform="translate(-0.63037 -1.87207)"/>
          <path class="cls-9" d="M268.04932,17.8291a2.09893,2.09893,0,0,1-2.09961-1.93164h-.125c-.33594,1.42774-1.55469,2.18359-3.23438,2.18359-2.2041,0-3.42187-1.30175-3.42187-3.21289,0-2.33007,1.80566-3.44336,4.72461-3.44336h1.74218v-.69238c0-1.07129-.52539-1.74316-1.82617-1.74316a2.72178,2.72178,0,0,0-2.373,1.30273l-1.84766-1.63867a4.80747,4.80747,0,0,1,4.45117-2.09961c3.10742,0,4.70313,1.42774,4.70313,4.03125V15.415H269.772V17.8291Zm-2.41407-3.33789V13.18848h-1.51171c-1.19727,0-1.82618.4414-1.82618,1.23925v.31543c0,.79688.52442,1.17579,1.44825,1.17579C264.77393,15.919,265.63525,15.499,265.63525,14.49121Z" transform="translate(-0.63037 -1.87207)"/>
          <path class="cls-9" d="M271.85205,17.8291V6.80566h3.10742V9.2002h.10547a2.76381,2.76381,0,0,1,2.81348-2.39454h.5459V9.7041H277.647c-1.80468,0-2.6875.39844-2.6875,1.67969V17.8291Z" transform="translate(-0.63037 -1.87207)"/>
          <path class="cls-9" d="M284.28369,22.28027c-3.82226,0-5.22851-.96582-5.22851-2.56152a2.05428,2.05428,0,0,1,2.05761-2.09961V17.3877a1.86173,1.86173,0,0,1-1.5957-1.93165c0-1.15429,1.02832-1.74218,2.05762-1.95214v-.084a3.25188,3.25188,0,0,1-1.97364-3.14941c0-2.22559,1.55372-3.7168,4.72364-3.7168a7.24391,7.24391,0,0,1,1.86914.21094V6.34473a1.46867,1.46867,0,0,1,1.6582-1.65918h1.74316V6.99512h-2.43554v.126a3.26391,3.26391,0,0,1,1.88965,3.14942c0,2.20508-1.53321,3.65332-4.72461,3.65332a7.76191,7.76191,0,0,1-1.95215-.23145,1.03319,1.03319,0,0,0-.4834.88282c0,.52441.37891.83984,1.32324.83984h3.19141c2.6875,0,3.84277,1.17578,3.84277,3.21191C290.24658,20.958,288.77588,22.28027,284.28369,22.28027Zm1.34375-4.2207h-3.7793a1.4161,1.4161,0,0,0-.39941.98731c0,.79785.62988,1.17578,2.30957,1.17578h1.25977c1.67968,0,2.30957-.37793,2.30957-1.17578C287.32764,18.417,286.86572,18.05957,285.62744,18.05957Zm.52442-7.68359v-.252c0-.96679-.6084-1.51172-1.82715-1.51172-1.2168,0-1.82617.54493-1.82617,1.51172v.252c0,.96484.60937,1.51172,1.82617,1.51172C285.54346,11.8877,286.15186,11.34082,286.15186,10.376Z" transform="translate(-0.63037 -1.87207)"/>
          <path class="cls-9" d="M290.81494,12.30762c0-3.48633,1.84766-5.75391,5.165-5.75391,3.65332,0,5.123,2.64649,5.123,5.627v.92383h-7.0752v.168a2.16538,2.16538,0,0,0,2.43555,2.373,3.49559,3.49559,0,0,0,2.708-1.32227l1.55371,1.93164a5.97688,5.97688,0,0,1-4.61914,1.82617C292.7251,18.08105,290.81494,15.835,290.81494,12.30762Zm3.21289-1.19727v.168h3.86328v-.18945c0-1.34375-.60937-2.2461-1.84765-2.2461A2.01478,2.01478,0,0,0,294.02783,11.11035Z" transform="translate(-0.63037 -1.87207)"/>
          <path class="cls-9" d="M311.26807,1.87207h2.918a11.70385,11.70385,0,0,0-3.65235,8.69238v1.46973a11.47761,11.47761,0,0,0,3.65235,8.69238h-2.93946c-2.03613-1.76367-3.65234-5.35449-3.65234-9.44824C307.59424,7.22559,309.16846,3.69824,311.26807,1.87207Z" transform="translate(-0.63037 -1.87207)"/>
          <path class="cls-9" d="M315.36377,17.8291V6.80566h3.10742V8.6748h.127a2.94026,2.94026,0,0,1,2.96-2.12109A3.05069,3.05069,0,0,1,324.645,8.78027h.0625a3.42384,3.42384,0,0,1,3.35937-2.22656c2.1211,0,3.29688,1.5957,3.29688,4.36719v6.9082h-3.10742V11.17285c0-1.42773-.4834-2.09961-1.51172-2.09961a1.656,1.656,0,0,0-1.82715,1.61719V17.8291h-3.10742V11.17285c0-1.42773-.50391-2.09961-1.51172-2.09961a1.66664,1.66664,0,0,0-1.82715,1.61719V17.8291Z" transform="translate(-0.63037 -1.87207)"/>
          <path class="cls-9" d="M335.85986,6.11328c.75586,0,1.07032-.25195,1.07032-.56738v-.084c0-.39843-.33594-.75586-.94532-.75586a2.16862,2.16862,0,0,0-1.67968.90333l-1.30079-1.23926a3.5788,3.5788,0,0,1,3.04395-1.32227c1.97363,0,3.14941.86133,3.14941,2.1211a1.71736,1.71736,0,0,1-1.5957,1.70019v.084a1.79424,1.79424,0,0,1,1.72168,1.78418c0,1.42774-1.34375,2.31055-3.2959,2.31055A3.47091,3.47091,0,0,1,332.773,9.47266l1.5957-1.21778a1.77162,1.77162,0,0,0,1.65918,1.13379c.65039,0,1.04883-.33594,1.04883-.83984v-.042c0-.48243-.52441-.67188-1.28027-.67188H335.145V6.11328Z" transform="translate(-0.63037 -1.87207)"/>
          <path class="cls-9" d="M339.99658,20.999l6.25781-18.707h2.56055l-6.25586,18.707Z" transform="translate(-0.63037 -1.87207)"/>
          <path class="cls-9" d="M350.13916,16.10742l1.82617-1.84765a3.83717,3.83717,0,0,0,2.91895,1.40722c1.21777,0,1.63769-.39941,1.63769-1.05078,0-.54492-.33593-.81836-1.11328-.92383l-1.19629-.14648c-2.499-.31445-3.71582-1.40625-3.71582-3.40137,0-2.12012,1.65821-3.59082,4.28321-3.59082A5.53934,5.53934,0,0,1,359.272,8.27637l-1.78418,1.82617a3.6804,3.6804,0,0,0-2.54-1.13379c-1.05078,0-1.4707.37793-1.4707.92383,0,.58789.25195.90332,1.15527,1.02832l1.23926.168c2.39258.31543,3.63184,1.40722,3.63184,3.31836,0,2.12011-1.88965,3.67382-4.72363,3.67382A5.75521,5.75521,0,0,1,350.13916,16.10742Z" transform="translate(-0.63037 -1.87207)"/>
          <path class="cls-9" d="M362.82275,20.72656h-2.918a11.70387,11.70387,0,0,0,3.65234-8.69238V10.56445a11.47919,11.47919,0,0,0-3.65234-8.69238h2.93945c2.03613,1.76367,3.65234,5.3125,3.65234,9.40625C366.49658,15.33105,364.92236,18.89941,362.82275,20.72656Z" transform="translate(-0.63037 -1.87207)"/>
        </g>
        <g>
          <path class="cls-9" d="M759.93018,283.84766v-4.32813a2.391,2.391,0,0,1,2.52148-2.60547,1.84181,1.84181,0,0,1,2.07275,1.69532h.084a2.15419,2.15419,0,0,1,2.2832-2.0459A2.63145,2.63145,0,0,1,769.707,279.085v4.7627Zm4.13134-1.583v-2.45117a1.09577,1.09577,0,0,0-1.16162-1.2334h-.44824a1.09659,1.09659,0,0,0-1.16309,1.2334v2.45117Zm4.28711,0v-2.71777a1.17587,1.17587,0,0,0-1.24707-1.31641H766.625a1.17562,1.17562,0,0,0-1.24609,1.31641v2.71777Z" transform="translate(-0.63037 -1.87207)"/>
          <path class="cls-9" d="M766.06543,275.22363c-2.3252,0-3.81006-1.27441-3.81006-3.34765,0-2.14356,1.61084-3.23536,3.62744-3.23536h.57422v5h.23828a1.786,1.786,0,0,0,1.91895-1.918,2.13518,2.13518,0,0,0-1.09278-1.91993l.88282-.89648a3.37965,3.37965,0,0,1,1.4707,2.96973C769.875,273.94922,768.39062,275.22363,766.06543,275.22363Zm-.71484-1.583h.09765V270.251h-.13965a1.63939,1.63939,0,0,0-1.86328,1.625A1.75363,1.75363,0,0,0,765.35059,273.64062Z" transform="translate(-0.63037 -1.87207)"/>
          <path class="cls-9" d="M769.707,265.39453a1.38469,1.38469,0,0,1-1.51269,1.55469h-8.852v-1.52637H768.46v-1.00879H769.707Z" transform="translate(-0.63037 -1.87207)"/>
          <path class="cls-9" d="M766.06543,263.44922c-2.3252,0-3.81006-1.31641-3.81006-3.34766s1.48486-3.34765,3.81006-3.34765,3.80957,1.3164,3.80957,3.34765S768.39062,263.44922,766.06543,263.44922Zm.61621-5.084h-1.2334c-1.28808,0-1.93262.7002-1.93262,1.73633,0,1.03711.64454,1.73731,1.93262,1.73731h1.2334c1.28809,0,1.93262-.7002,1.93262-1.73731C768.61426,259.06543,767.96973,258.36523,766.68164,258.36523Z" transform="translate(-0.63037 -1.87207)"/>
          <path class="cls-9" d="M759.93018,251.64844v-1.877l4.97216-2.62011v-.084l-4.97216-2.61914v-1.793H769.707v1.5127h-7.48v.07031l1.58252.76953,3.9082,2.14356-3.9082,2.14355-1.58252.76953v.07032h7.48v1.51367Z" transform="translate(-0.63037 -1.87207)"/>
          <path class="cls-9" d="M766.06543,240.85352c-2.3252,0-3.81006-1.31641-3.81006-3.34766s1.48486-3.34766,3.81006-3.34766,3.80957,1.31641,3.80957,3.34766S768.39062,240.85352,766.06543,240.85352Zm.61621-5.084h-1.2334c-1.28808,0-1.93262.7002-1.93262,1.73633,0,1.03711.64454,1.7373,1.93262,1.7373h1.2334c1.28809,0,1.93262-.70019,1.93262-1.7373C768.61426,236.46973,767.96973,235.76953,766.68164,235.76953Z" transform="translate(-0.63037 -1.87207)"/>
          <path class="cls-9" d="M769.707,232.46777h-7.28369v-1.52636h1.20459v-.07032a2.03146,2.03146,0,0,1-1.37256-2.04492c0-1.48437,1.03662-2.36719,2.82959-2.36719H769.707v1.52637h-4.42676c-1.13379,0-1.709.43457-1.709,1.373,0,.79785.40625,1.583,1.26074,1.583h4.875Z" transform="translate(-0.63037 -1.87207)"/>
          <path class="cls-9" d="M769.707,222.33105a1.4462,1.4462,0,0,1-1.583,1.61036h-4.4541v1.13476h-1.24658v-.61523c0-.50489-.21-.67285-.71387-.67285h-1.27539V222.415h1.98926v-1.52637h1.24658V222.415h4.79V221H769.707Z" transform="translate(-0.63037 -1.87207)"/>
          <path class="cls-9" d="M766.06543,219.78516c-2.3252,0-3.81006-1.27539-3.81006-3.34766,0-2.14355,1.61084-3.23633,3.62744-3.23633h.57422v5.001h.23828a1.78672,1.78672,0,0,0,1.91895-1.91895,2.13627,2.13627,0,0,0-1.09278-1.91992l.88282-.89648a3.38022,3.38022,0,0,1,1.4707,2.9707C769.875,218.50977,768.39062,219.78516,766.06543,219.78516Zm-.71484-1.583h.09765V214.8125h-.13965a1.63939,1.63939,0,0,0-1.86328,1.625A1.75363,1.75363,0,0,0,765.35059,218.20215Z" transform="translate(-0.63037 -1.87207)"/>
          <path class="cls-9" d="M768.502,208.85156l-.89648-.98047a2.57652,2.57652,0,0,0,1.03711-2.05957c0-.88281-.36426-1.33105-.98047-1.33105-.46289,0-.8125.28027-.91113,1.03711l-.084.67187c-.18164,1.48438-.82617,2.39551-2.1709,2.39551-1.41455,0-2.24072-1.10644-2.24072-2.7041a3.29152,3.29152,0,0,1,1.1626-2.7168l.89648.93848a2.31973,2.31973,0,0,0-.82715,1.77832c0,.84082.36426,1.2334.91114,1.2334.55957,0,.8125-.35059.93847-1.12012l.084-.67285c.23828-1.59668.93848-2.31152,2.11523-2.31152,1.40039,0,2.33887,1.13476,2.33887,2.88574A3.5189,3.5189,0,0,1,768.502,208.85156Z" transform="translate(-0.63037 -1.87207)"/>
          <path class="cls-9" d="M769.707,199.37109a1.44692,1.44692,0,0,1-1.583,1.61133h-4.4541v1.13477h-1.24658V201.5c0-.50391-.21-.67188-.71387-.67188h-1.27539v-1.373h1.98926v-1.52637h1.24658v1.52637h4.79V198.041H769.707Z" transform="translate(-0.63037 -1.87207)"/>
          <path class="cls-9" d="M769.707,190.94141a1.26081,1.26081,0,0,1-1.21875,1.31738v.06933A2.02732,2.02732,0,0,1,769.875,194.457a2.0913,2.0913,0,0,1-2.1709,2.35352c-1.44336,0-2.18555-1.07813-2.18555-3.10938v-1.3164h-.61621c-.88281,0-1.40039.47656-1.40039,1.498a1.93393,1.93393,0,0,0,.99414,1.73731l-.82617.91113a2.94919,2.94919,0,0,1-1.41455-2.74609c0-1.877.92481-2.92774,2.54932-2.92774H768.46v-.77051H769.707Zm-2.15723,1.44336H766.499v1.28808c0,1.06543.35059,1.583.98047,1.583h.25293c.64356,0,.98047-.47656.98047-1.23242C768.71289,193.085,768.26465,192.38477,767.5498,192.38477Z" transform="translate(-0.63037 -1.87207)"/>
          <path class="cls-9" d="M769.707,188.59277h-7.28369v-1.52636h1.40088v-.07032a1.92579,1.92579,0,0,1-1.40088-2.00293v-.40625h1.47021v.60254c0,1.2041.40625,1.877,1.16309,1.877H769.707Z" transform="translate(-0.63037 -1.87207)"/>
          <path class="cls-9" d="M769.707,181.1582a1.44662,1.44662,0,0,1-1.583,1.61035h-4.4541v1.13477h-1.24658v-.61621c0-.50391-.21-.67285-.71387-.67285h-1.27539v-1.37207h1.98926v-1.52735h1.24658v1.52735h4.79v-1.415H769.707Z" transform="translate(-0.63037 -1.87207)"/>
          <path class="cls-9" d="M768.502,178.709l-.89648-.98046a2.57375,2.57375,0,0,0,1.03711-2.05957c0-.88184-.36426-1.33008-.98047-1.33008-.46289,0-.8125.28027-.91113,1.03613l-.084.67285c-.18164,1.48438-.82617,2.39453-2.1709,2.39453-1.41455,0-2.24072-1.10644-2.24072-2.70312a3.29486,3.29486,0,0,1,1.1626-2.71778l.89648.93848a2.32187,2.32187,0,0,0-.82715,1.7793c0,.84082.36426,1.23242.91114,1.23242.55957,0,.8125-.34961.93847-1.12012l.084-.67285c.23828-1.59668.93848-2.31055,2.11523-2.31055,1.40039,0,2.33887,1.13379,2.33887,2.88477A3.51633,3.51633,0,0,1,768.502,178.709Z" transform="translate(-0.63037 -1.87207)"/>
          <path class="cls-9" d="M766.06543,168.335c-2.3252,0-3.81006-1.31641-3.81006-3.34766s1.48486-3.34765,3.81006-3.34765,3.80957,1.3164,3.80957,3.34765S768.39062,168.335,766.06543,168.335Zm.61621-5.085h-1.2334c-1.28808,0-1.93262.70117-1.93262,1.7373s.64454,1.73731,1.93262,1.73731h1.2334c1.28809,0,1.93262-.70117,1.93262-1.73731S767.96973,163.25,766.68164,163.25Z" transform="translate(-0.63037 -1.87207)"/>
          <path class="cls-9" d="M762.42334,159.94922v-1.52637h1.20459v-.07031a2.0617,2.0617,0,0,1-1.37256-2.04492c0-1.835,1.41455-2.89942,3.81006-2.89942,2.39453,0,3.80957,1.06446,3.80957,2.89942a2.08,2.08,0,0,1-1.37305,2.04492v.07031h4.00684v1.52637Zm4.272-4.93067h-1.26074a1.70839,1.70839,0,0,0-1.86328,1.751c0,.92481.50488,1.65332,1.24707,1.65332h2.49316c.74219,0,1.24707-.72851,1.24707-1.65332A1.70788,1.70788,0,0,0,766.69531,155.01855Z" transform="translate(-0.63037 -1.87207)"/>
          <path class="cls-9" d="M766.06543,152.15137c-2.3252,0-3.81006-1.27442-3.81006-3.34766,0-2.14355,1.61084-3.23535,3.62744-3.23535h.57422v5h.23828a1.78623,1.78623,0,0,0,1.91895-1.919,2.1336,2.1336,0,0,0-1.09278-1.91894l.88282-.89649a3.37966,3.37966,0,0,1,1.4707,2.96973C769.875,150.877,768.39062,152.15137,766.06543,152.15137Zm-.71484-1.583h.09765v-3.38965h-.13965a1.63939,1.63939,0,0,0-1.86328,1.625A1.75363,1.75363,0,0,0,765.35059,150.56836Z" transform="translate(-0.63037 -1.87207)"/>
          <path class="cls-9" d="M769.707,143.877h-7.28369v-1.52636h1.40088v-.07032a1.92579,1.92579,0,0,1-1.40088-2.00293v-.40625h1.47021v.60254c0,1.2041.40625,1.877,1.16309,1.877H769.707Z" transform="translate(-0.63037 -1.87207)"/>
          <path class="cls-9" d="M769.707,133.29a1.2608,1.2608,0,0,1-1.21875,1.31738v.06934a2.02776,2.02776,0,0,1,1.38672,2.12988,2.09144,2.09144,0,0,1-2.1709,2.35254c-1.44336,0-2.18555-1.07813-2.18555-3.10938v-1.3164h-.61621c-.88281,0-1.40039.47558-1.40039,1.49805a1.93505,1.93505,0,0,0,.99414,1.7373l-.82617.91016a2.94536,2.94536,0,0,1-1.41455-2.74512c0-1.87695.92481-2.92774,2.54932-2.92774H768.46v-.7705H769.707Zm-2.15723,1.44336H766.499v1.28808c0,1.06446.35059,1.583.98047,1.583h.25293c.64356,0,.98047-.47656.98047-1.23242C768.71289,135.43359,768.26465,134.7334,767.5498,134.7334Z" transform="translate(-0.63037 -1.87207)"/>
          <path class="cls-9" d="M769.707,128.9668a1.44663,1.44663,0,0,1-1.583,1.61035h-4.4541v1.13476h-1.24658v-.61621c0-.5039-.21-.67285-.71387-.67285h-1.27539v-1.37207h1.98926v-1.52734h1.24658v1.52734h4.79v-1.415H769.707Z" transform="translate(-0.63037 -1.87207)"/>
          <path class="cls-9" d="M760.32275,126.01367h-.23828c-.46191,0-.79883-.28027-.79883-.91113,0-.62988.33692-.89649.79883-.89649h.23828c.46192,0,.79786.26661.79786.89649C761.12061,125.7334,760.78467,126.01367,760.32275,126.01367Zm2.10059-.14062v-1.52637H769.707v1.52637Z" transform="translate(-0.63037 -1.87207)"/>
          <path class="cls-9" d="M769.707,122.16309h-7.28369v-1.52637h1.20459v-.07031a2.03233,2.03233,0,0,1-1.37256-2.04493c0-1.48535,1.03662-2.36718,2.82959-2.36718H769.707v1.52636h-4.42676c-1.13379,0-1.709.43457-1.709,1.373,0,.79785.40625,1.583,1.26074,1.583h4.875Z" transform="translate(-0.63037 -1.87207)"/>
          <path class="cls-9" d="M772.67676,111.35449c0,2.38184-.64453,3.30567-1.751,3.30567a1.36352,1.36352,0,0,1-1.40039-1.2461h-.1543a1.11208,1.11208,0,0,1-1.12109.82617c-.75586,0-1.12012-.58789-1.28809-1.28906h-.05664a2.27461,2.27461,0,0,1-2.15722,1.33106c-1.48438,0-2.49268-1.05078-2.49268-2.89942a3.50087,3.50087,0,0,1,.22461-1.3164h-.19629c-.64453,0-1.03711-.3086-1.03711-.95313v-1.12012H762.48v1.48438h.29395a2.28112,2.28112,0,0,1,1.97412-1.02246c1.4707,0,2.46582,1.06445,2.46582,2.91406a3.85325,3.85325,0,0,1-.11231.95215c.126.36426.36426.70019.72852.70019.39258,0,.5459-.37793.5459-1.02246v-1.793c0-1.793.75683-2.5498,2.01757-2.5498C771.90625,107.65625,772.67676,108.73535,772.67676,111.35449ZM764.874,109.9541h-.27929c-.82715,0-1.2334.51856-1.2334,1.415s.40625,1.41406,1.2334,1.41406h.27929c.82715,0,1.2334-.51758,1.2334-1.41406S765.70117,109.9541,764.874,109.9541Zm4.86133.46192v2.46582a.93839.93839,0,0,0,.83985.5039c.58886,0,.99511-.43457.99511-1.56836v-.95312c0-1.19043-.33691-1.77832-1.00879-1.77832C770.05762,109.08594,769.73535,109.42188,769.73535,110.416Z" transform="translate(-0.63037 -1.87207)"/>
        </g>
        <g>
          <path class="cls-9" d="M1099.6875,21.00879l-2.84961-12.05664h1.98633l1.22656,5.80371.8457,4.00781h.05176l.96778-4.00781,1.43359-5.80371h2.17676l1.416,5.80371.9502,3.99023h.05176l.88086-3.99023,1.26074-5.80371h1.917l-2.9707,12.05664h-2.19336l-1.53711-6.23535-.89844-3.66211h-.03516l-.915,3.66211-1.57226,6.23535Z" transform="translate(-0.63037 -1.87207)"/>
          <path class="cls-9" d="M1113.5918,9.43555v-.293c0-.57031.3457-.98438,1.123-.98438s1.10547.41407,1.10547.98438v.293c0,.57031-.32812.98535-1.10547.98535S1113.5918,10.00586,1113.5918,9.43555Zm.17285,2.59179h1.88281v8.98145h-1.88281Z" transform="translate(-0.63037 -1.87207)"/>
          <path class="cls-9" d="M1120.8291,21.00879a1.784,1.784,0,0,1-1.98633-1.95215V13.56445h-1.39941V12.02734h.75976c.62208,0,.82911-.25976.82911-.88183V9.57422h1.69336v2.45312h1.88281v1.53711h-1.88281v5.90723h1.74414v1.53711Z" transform="translate(-0.63037 -1.87207)"/>
          <path class="cls-9" d="M1124.64551,8.22656h1.88281V13.5127h.08691a2.50379,2.50379,0,0,1,2.52149-1.69336c1.83105,0,2.91894,1.27832,2.91894,3.48925v5.7002h-1.88281V15.5332c0-1.38183-.53515-2.08984-1.69238-2.08984-.98438,0-1.95215.501-1.95215,1.53711v6.02832h-1.88281Z" transform="translate(-0.63037 -1.87207)"/>
          <path class="cls-9" d="M1134.05859,16.51758c0-2.86719,1.624-4.69824,4.12891-4.69824,2.50391,0,4.12793,1.831,4.12793,4.69824s-1.624,4.69824-4.12793,4.69824C1135.68262,21.21582,1134.05859,19.38477,1134.05859,16.51758Zm6.27051.75976V15.75781c0-1.58886-.86426-2.38379-2.1416-2.38379-1.27832,0-2.14258.79493-2.14258,2.38379v1.51953c0,1.58985.86426,2.38379,2.14258,2.38379C1139.46484,19.66113,1140.3291,18.86719,1140.3291,17.27734Z" transform="translate(-0.63037 -1.87207)"/>
          <path class="cls-9" d="M1149.8457,19.52344h-.06836a2.46907,2.46907,0,0,1-2.52246,1.69238c-1.84765,0-2.93652-1.26074-2.93652-3.47168v-5.7168h1.88281V17.502c0,1.36524.57031,2.09082,1.72754,2.09082.96777,0,1.917-.501,1.917-1.55468V12.02734h1.88282v8.98145h-1.88282Z" transform="translate(-0.63037 -1.87207)"/>
          <path class="cls-9" d="M1156.91016,21.00879a1.784,1.784,0,0,1-1.98633-1.95215V13.56445h-1.39942V12.02734h.75977c.62207,0,.8291-.25976.8291-.88183V9.57422h1.69336v2.45312h1.88281v1.53711h-1.88281v5.90723h1.74414v1.53711Z" transform="translate(-0.63037 -1.87207)"/>
          <path class="cls-9" d="M1164.94141,8.95215h5.33691a2.94908,2.94908,0,0,1,3.21289,3.10937,2.27161,2.27161,0,0,1-2.08984,2.55664v.10352a2.65474,2.65474,0,0,1,2.52148,2.81543,3.24485,3.24485,0,0,1-3.1084,3.47168h-5.873Zm1.95214,5.0957h3.02247a1.35073,1.35073,0,0,0,1.51953-1.43359v-.55274a1.35028,1.35028,0,0,0-1.51953-1.43359h-3.02247Zm0,5.28516h3.35059a1.45037,1.45037,0,0,0,1.624-1.53711V17.209a1.45036,1.45036,0,0,0-1.624-1.5371h-3.35059Z" transform="translate(-0.63037 -1.87207)"/>
          <path class="cls-9" d="M1175.58105,16.51758c0-2.86719,1.57129-4.69824,4.12793-4.69824,2.64258,0,3.99024,1.98632,3.99024,4.47363v.709h-6.167v.293a2.20377,2.20377,0,0,0,2.36718,2.36621,2.63219,2.63219,0,0,0,2.36621-1.34668l1.10547,1.08789a4.16769,4.16769,0,0,1-3.66211,1.81348C1177.15234,21.21582,1175.58105,19.38477,1175.58105,16.51758Zm1.95118-.88086v.12109h4.18066V15.585a2.02057,2.02057,0,0,0-2.00391-2.29687A2.16243,2.16243,0,0,0,1177.53223,15.63672Z" transform="translate(-0.63037 -1.87207)"/>
          <path class="cls-9" d="M1187.70605,21.00879a1.70759,1.70759,0,0,1-1.917-1.86524V8.22656h1.88282V19.47168h1.24316v1.53711Z" transform="translate(-0.63037 -1.87207)"/>
          <path class="cls-9" d="M1190.10645,16.51758c0-2.86719,1.624-4.69824,4.1289-4.69824,2.50391,0,4.12793,1.831,4.12793,4.69824s-1.624,4.69824-4.12793,4.69824C1191.73047,21.21582,1190.10645,19.38477,1190.10645,16.51758Zm6.2705.75976V15.75781c0-1.58886-.86425-2.38379-2.1416-2.38379-1.27832,0-2.14258.79493-2.14258,2.38379v1.51953c0,1.58985.86426,2.38379,2.14258,2.38379C1195.5127,19.66113,1196.377,18.86719,1196.377,17.27734Z" transform="translate(-0.63037 -1.87207)"/>
          <path class="cls-9" d="M1204.667,8.95215h2.31446l3.23046,6.13183h.10352l3.22949-6.13183h2.21094V21.00879h-1.86524V11.78516h-.08593l-.9502,1.95214-2.64258,4.81836-2.64355-4.81836-.94922-1.95214h-.08691v9.22363H1204.667Z" transform="translate(-0.63037 -1.87207)"/>
          <path class="cls-9" d="M1217.9834,16.51758c0-2.86719,1.624-4.69824,4.1289-4.69824,2.50391,0,4.12793,1.831,4.12793,4.69824s-1.624,4.69824-4.12793,4.69824C1219.60742,21.21582,1217.9834,19.38477,1217.9834,16.51758Zm6.27051.75976V15.75781c0-1.58886-.86426-2.38379-2.14161-2.38379-1.27832,0-2.14257.79493-2.14257,2.38379v1.51953c0,1.58985.86425,2.38379,2.14257,2.38379C1223.38965,19.66113,1224.25391,18.86719,1224.25391,17.27734Z" transform="translate(-0.63037 -1.87207)"/>
          <path class="cls-9" d="M1228.33008,21.00879V12.02734h1.88281V13.5127h.08594a2.505,2.505,0,0,1,2.52246-1.69336c1.83008,0,2.91894,1.27832,2.91894,3.48925v5.7002h-1.88281v-5.458c0-1.39941-.53515-2.10742-1.69336-2.10742-.98437,0-1.95117.501-1.95117,1.55469v6.01074Z" transform="translate(-0.63037 -1.87207)"/>
          <path class="cls-9" d="M1240.835,21.00879a1.784,1.784,0,0,1-1.98633-1.95215V13.56445h-1.39941V12.02734h.75976c.62207,0,.82911-.25976.82911-.88183V9.57422h1.69336v2.45312h1.88281v1.53711h-1.88281v5.90723h1.74414v1.53711Z" transform="translate(-0.63037 -1.87207)"/>
          <path class="cls-9" d="M1243.97852,16.51758c0-2.86719,1.57128-4.69824,4.12793-4.69824,2.64257,0,3.99023,1.98632,3.99023,4.47363v.709h-6.167v.293a2.20377,2.20377,0,0,0,2.36719,2.36621,2.63221,2.63221,0,0,0,2.36621-1.34668l1.10546,1.08789a4.16769,4.16769,0,0,1-3.6621,1.81348C1245.5498,21.21582,1243.97852,19.38477,1243.97852,16.51758Zm1.95117-.88086v.12109h4.18066V15.585a2.02056,2.02056,0,0,0-2.0039-2.29687A2.16244,2.16244,0,0,0,1245.92969,15.63672Z" transform="translate(-0.63037 -1.87207)"/>
        </g>
        <rect class="cls-4" x="1069.79801" y="4.47325" width="15.50855" height="15.50855" rx="4.57576"/>
        <g>
          <path class="cls-9" d="M1314.46094,21.00879l-2.85059-12.05664h1.98633l1.22656,5.80371.84668,4.00781h.05176l.9668-4.00781,1.43359-5.80371h2.17676l1.416,5.80371.9502,3.99023h.05176l.88086-3.99023,1.26172-5.80371h1.917l-2.97071,12.05664h-2.19433l-1.53711-6.23535-.89844-3.66211h-.03418l-.915,3.66211-1.57226,6.23535Z" transform="translate(-0.63037 -1.87207)"/>
          <path class="cls-9" d="M1328.36426,9.43555v-.293c0-.57031.3457-.98438,1.123-.98438s1.10547.41407,1.10547.98438v.293c0,.57031-.32812.98535-1.10547.98535S1328.36426,10.00586,1328.36426,9.43555Zm.17285,2.59179h1.88281v8.98145h-1.88281Z" transform="translate(-0.63037 -1.87207)"/>
          <path class="cls-9" d="M1335.60156,21.00879a1.78444,1.78444,0,0,1-1.98633-1.95215V13.56445h-1.39843V12.02734h.75976c.62207,0,.8291-.25976.8291-.88183V9.57422h1.69239v2.45312h1.88281v1.53711h-1.88281v5.90723h1.74511v1.53711Z" transform="translate(-0.63037 -1.87207)"/>
          <path class="cls-9" d="M1339.419,8.22656h1.88281V13.5127h.08594a2.50377,2.50377,0,0,1,2.52148-1.69336c1.83105,0,2.91992,1.27832,2.91992,3.48925v5.7002h-1.88281V15.5332c0-1.38183-.53613-2.08984-1.69336-2.08984-.98438,0-1.95117.501-1.95117,1.53711v6.02832H1339.419Z" transform="translate(-0.63037 -1.87207)"/>
          <path class="cls-9" d="M1353.65039,8.95215h5.33789a2.94832,2.94832,0,0,1,3.21192,3.10937,2.27161,2.27161,0,0,1-2.08985,2.55664v.10352a2.65543,2.65543,0,0,1,2.52246,2.81543,3.245,3.245,0,0,1-3.10937,3.47168h-5.873Zm1.95215,5.0957h3.02246a1.35149,1.35149,0,0,0,1.52051-1.43359v-.55274a1.351,1.351,0,0,0-1.52051-1.43359h-3.02246Zm0,5.28516h3.35058a1.45037,1.45037,0,0,0,1.624-1.53711V17.209a1.45036,1.45036,0,0,0-1.624-1.5371h-3.35058Z" transform="translate(-0.63037 -1.87207)"/>
          <path class="cls-9" d="M1364.291,16.51758c0-2.86719,1.57128-4.69824,4.12793-4.69824,2.64257,0,3.99023,1.98632,3.99023,4.47363v.709h-6.167v.293a2.2035,2.2035,0,0,0,2.36621,2.36621,2.63376,2.63376,0,0,0,2.36719-1.34668l1.10546,1.08789a4.16769,4.16769,0,0,1-3.6621,1.81348C1365.8623,21.21582,1364.291,19.38477,1364.291,16.51758Zm1.95117-.88086v.12109h4.18066V15.585a2.02107,2.02107,0,0,0-2.0039-2.29687A2.1619,2.1619,0,0,0,1366.24219,15.63672Z" transform="translate(-0.63037 -1.87207)"/>
          <path class="cls-9" d="M1376.415,21.00879a1.70759,1.70759,0,0,1-1.917-1.86524V8.22656h1.88281V19.47168h1.24316v1.53711Z" transform="translate(-0.63037 -1.87207)"/>
          <path class="cls-9" d="M1378.81641,16.51758c0-2.86719,1.623-4.69824,4.12793-4.69824s4.12793,1.831,4.12793,4.69824-1.623,4.69824-4.12793,4.69824S1378.81641,19.38477,1378.81641,16.51758Zm6.26953.75976V15.75781c0-1.58886-.86328-2.38379-2.1416-2.38379s-2.14161.79493-2.14161,2.38379v1.51953c0,1.58985.86329,2.38379,2.14161,2.38379S1385.08594,18.86719,1385.08594,17.27734Z" transform="translate(-0.63037 -1.87207)"/>
          <path class="cls-9" d="M1393.376,8.95215h2.31445l3.23047,6.13183h.10351l3.23047-6.13183h2.21094V21.00879h-1.86621V11.78516h-.08594l-.95019,1.95214-2.64258,4.81836-2.64258-4.81836-.9502-1.95214h-.08691v9.22363H1393.376Z" transform="translate(-0.63037 -1.87207)"/>
          <path class="cls-9" d="M1406.69336,16.51758c0-2.86719,1.623-4.69824,4.12793-4.69824s4.12793,1.831,4.12793,4.69824-1.623,4.69824-4.12793,4.69824S1406.69336,19.38477,1406.69336,16.51758Zm6.26953.75976V15.75781c0-1.58886-.86328-2.38379-2.1416-2.38379s-2.1416.79493-2.1416,2.38379v1.51953c0,1.58985.86328,2.38379,2.1416,2.38379S1412.96289,18.86719,1412.96289,17.27734Z" transform="translate(-0.63037 -1.87207)"/>
          <path class="cls-9" d="M1417.04,21.00879V12.02734h1.88281V13.5127h.08594a2.50378,2.50378,0,0,1,2.52148-1.69336c1.83106,0,2.91993,1.27832,2.91993,3.48925v5.7002h-1.88282v-5.458c0-1.39941-.53613-2.10742-1.69336-2.10742-.98437,0-1.95117.501-1.95117,1.55469v6.01074Z" transform="translate(-0.63037 -1.87207)"/>
          <path class="cls-9" d="M1429.54492,21.00879a1.784,1.784,0,0,1-1.98633-1.95215V13.56445h-1.39941V12.02734h.75977c.62207,0,.8291-.25976.8291-.88183V9.57422h1.69238v2.45312h1.88281v1.53711h-1.88281v5.90723h1.74512v1.53711Z" transform="translate(-0.63037 -1.87207)"/>
          <path class="cls-9" d="M1432.6875,16.51758c0-2.86719,1.57129-4.69824,4.12793-4.69824,2.64258,0,3.99023,1.98632,3.99023,4.47363v.709h-6.167v.293a2.2035,2.2035,0,0,0,2.36621,2.36621,2.63375,2.63375,0,0,0,2.36719-1.34668l1.10547,1.08789a4.16772,4.16772,0,0,1-3.66211,1.81348C1434.25879,21.21582,1432.6875,19.38477,1432.6875,16.51758Zm1.95117-.88086v.12109h4.18067V15.585a2.02108,2.02108,0,0,0-2.00391-2.29687A2.1619,2.1619,0,0,0,1434.63867,15.63672Z" transform="translate(-0.63037 -1.87207)"/>
        </g>
        <rect class="cls-3" x="1282.37313" y="4.47325" width="15.50855" height="15.50855" rx="4.57576"/>
      </g>
    </g>
  </g>
</svg>
