<svg xmlns="http://www.w3.org/2000/svg" viewBox="0 0 1432.65869 340.38672">
  <defs>
    <style>
      .cls-1 {
        fill: #ff0;
      }

      .cls-2 {
        fill: red;
      }

      .cls-3, .cls-4, .cls-5 {
        fill: none;
        stroke-miterlimit: 10;
      }

      .cls-3, .cls-4 {
        stroke: #000;
      }

      .cls-4 {
        stroke-dasharray: 12.63512 12.63512;
      }

      .cls-5 {
        stroke: #fff;
      }

      .cls-6 {
        fill: #fff;
      }
    </style>
  </defs>
  <title>Risorsa 4</title>
  <g id="Livello_2" data-name="Livello 2">
    <g id="Testi">
      <g>
        <path class="cls-1" d="M59.73072,208.89414s79.90964-2.4954,103.54042-7.8945,47.26156-2.39961,54.72391-3.29946,35.97536-5.99451,48.50528-6.299,70.89234-6.89886,82.70773-8.69856,105.09477-9.89836,113.80085-11.39811,19.8996-8.39861,41.04293-10.49827,93.90125-4.7992,107.58223-6.89886,19.8996-6.5989,31.715-6.29895,27.35768,3.6039,36.6899,2.09965,28.60568-11.69807,38.55548-12.89787,62.80812-8.99851,70.89233-10.79821,57.21136-13.79772,67.16116-14.09767,71.5142,8.99851,71.5142,8.99851V321.32911H59.328Z" transform="translate(-0.63037 -1.87207)"/>
        <polygon class="cls-2" points="1432.659 68.891 927.532 119.041 927.532 319.457 1431.473 319.457 1432.659 68.891"/>
        <polygon class="cls-1" points="1432.659 132.425 927.532 119.041 927.532 319.457 1431.473 319.457 1432.659 132.425"/>
        <g>
          <line class="cls-3" x1="926.83728" y1="320.56763" x2="926.83728" y2="314.56763"/>
          <line class="cls-4" x1="926.83728" y1="301.9325" x2="926.83728" y2="131.3584"/>
          <line class="cls-3" x1="926.83728" y1="125.04077" x2="926.83728" y2="119.04077"/>
        </g>
        <polyline class="cls-5" points="59.344 146.197 59.58 40.245 59.58 319.982 1432.659 319.982"/>
        <line class="cls-5" x1="59.34384" y1="40.24464" x2="44.83132" y2="40.24464"/>
        <line class="cls-5" x1="59.34384" y1="133.62116" x2="44.83132" y2="133.62116"/>
        <line class="cls-5" x1="59.34384" y1="320.37419" x2="44.83132" y2="320.37419"/>
        <line class="cls-5" x1="59.34384" y1="226.99768" x2="44.83132" y2="226.99768"/>
        <g>
          <path d="M1351.541,291.72461l-2.21387-9.77734h2.10156l.92383,4.69335.51855,2.7168h.042l.61718-2.7168,1.07813-4.69335h2.32519l1.09278,4.69335.60254,2.7168h.042l.51758-2.7168.93945-4.69335h2.0166l-2.26953,9.77734h-2.42285l-1.23242-5.29492-.47657-2.14258h-.042l-.49023,2.14258-1.23242,5.29492Z" transform="translate(-0.63037 -1.87207)"/>
          <path d="M1363.3418,282.56445v-.30859c0-.58789.36425-1.02148,1.2041-1.02148.84082,0,1.20508.43359,1.20508,1.02148v.30859c0,.58789-.36426,1.02149-1.20508,1.02149C1363.70605,283.58594,1363.3418,283.15234,1363.3418,282.56445Zm.168,1.80664h2.07324v7.35352h-2.07324Z" transform="translate(-0.63037 -1.87207)"/>
          <path d="M1370.09082,291.72461a1.936,1.936,0,0,1-2.18555-2.14258v-3.59961h-1.03613v-1.61133h.51856c.55957,0,.72851-.27929.72851-.78515v-1.20313h1.86231v1.98828h1.457v1.61133h-1.457v4.13086h1.34472v1.61133Z" transform="translate(-0.63037 -1.87207)"/>
          <path d="M1372.876,281.35938h2.07324v4.25781h.084a2.00481,2.00481,0,0,1,2.04492-1.41407c1.499,0,2.29688,1.06446,2.29688,2.91407v4.60742h-2.07324v-4.43945c0-.93946-.26563-1.40039-1.02246-1.40039-.67188,0-1.33008.34961-1.33008,1.07812v4.76172H1372.876Z" transform="translate(-0.63037 -1.87207)"/>
          <path d="M1350,298.74805h4.749a2.36566,2.36566,0,0,1,2.57715,2.50781c0,1.49805-.82715,2.05859-1.82129,2.09961v.084a2.16293,2.16293,0,0,1,2.19922,2.29883,2.63155,2.63155,0,0,1-2.52148,2.78711H1350Zm2.12891,4.00586h2.11523a.82451.82451,0,0,0,.89648-.89649v-.41992a.8245.8245,0,0,0-.89648-.89648h-2.11523Zm0,3.97851h2.45117a.82546.82546,0,0,0,.91113-.88281v-.47656a.82547.82547,0,0,0-.91113-.88282h-2.45117Z" transform="translate(-0.63037 -1.87207)"/>
          <path d="M1358.7627,304.8418c0-2.32618,1.23339-3.83985,3.44628-3.83985,2.4375,0,3.418,1.76563,3.418,3.75586v.61524h-4.7207v.11133a1.44552,1.44552,0,0,0,1.625,1.584,2.329,2.329,0,0,0,1.80664-.88281l1.03711,1.28906a3.98992,3.98992,0,0,1-3.082,1.21875C1360.03809,308.69336,1358.7627,307.19336,1358.7627,304.8418Zm2.14355-.79883v.11133h2.57715v-.125c0-.89649-.40625-1.5-1.23242-1.5A1.34552,1.34552,0,0,0,1360.90625,304.043Z" transform="translate(-0.63037 -1.87207)"/>
          <path d="M1369.15234,308.52539a1.80177,1.80177,0,0,1-2.05859-2.01758v-8.34765h2.07324v8.7539h.92383v1.61133Z" transform="translate(-0.63037 -1.87207)"/>
          <path d="M1370.87305,304.8418c0-2.36719,1.28906-3.83985,3.44629-3.83985s3.44531,1.47266,3.44531,3.83985-1.28809,3.85156-3.44531,3.85156S1370.87305,307.209,1370.87305,304.8418Zm4.73535.75586v-1.5c0-.92383-.47656-1.45508-1.28906-1.45508s-1.28907.53125-1.28907,1.45508v1.5c0,.92382.47657,1.457,1.28907,1.457S1375.6084,306.52148,1375.6084,305.59766Z" transform="translate(-0.63037 -1.87207)"/>
          <path d="M1389.96,302.10938h-.042l-.71485,1.42968-1.90429,3.459-1.86328-3.44532-.74219-1.541h-.042v6.51367h-2.00391v-9.77734h2.25586l2.39551,4.58007h.02734l2.36719-4.58007h2.26953v9.77734H1389.96Z" transform="translate(-0.63037 -1.87207)"/>
          <path d="M1393.53906,304.8418c0-2.36719,1.28906-3.83985,3.44629-3.83985s3.44531,1.47266,3.44531,3.83985-1.28808,3.85156-3.44531,3.85156S1393.53906,307.209,1393.53906,304.8418Zm4.73535.75586v-1.5c0-.92383-.47656-1.45508-1.28906-1.45508s-1.28906.53125-1.28906,1.45508v1.5c0,.92382.47656,1.457,1.28906,1.457S1398.27441,306.52148,1398.27441,305.59766Z" transform="translate(-0.63037 -1.87207)"/>
          <path d="M1401.89746,308.52539v-7.35351h2.07324V302.418h.084a2.00406,2.00406,0,0,1,2.04492-1.416c1.499,0,2.29687,1.06641,2.29687,2.91407v4.60937h-2.07324V304.084c0-.9375-.26562-1.40039-1.02246-1.40039-.67187,0-1.33008.34961-1.33008,1.07813v4.76367Z" transform="translate(-0.63037 -1.87207)"/>
          <path d="M1412.81836,308.52539a1.93658,1.93658,0,0,1-2.18555-2.14453v-3.59961h-1.03613v-1.60937h.51855c.55957,0,.72754-.28126.72754-.78516v-1.20508h1.86328v1.99024h1.457v1.60937h-1.457v4.13281h1.34473v1.61133Z" transform="translate(-0.63037 -1.87207)"/>
          <path d="M1415.085,304.8418c0-2.32618,1.2334-3.83985,3.44629-3.83985,2.4375,0,3.418,1.76563,3.418,3.75586v.61524h-4.7207v.11133a1.44552,1.44552,0,0,0,1.625,1.584,2.32906,2.32906,0,0,0,1.80664-.88281l1.03711,1.28906a3.98994,3.98994,0,0,1-3.082,1.21875C1416.36035,308.69336,1415.085,307.19336,1415.085,304.8418Zm2.14356-.79883v.11133h2.57714v-.125c0-.89649-.40625-1.5-1.23242-1.5A1.34552,1.34552,0,0,0,1417.22852,304.043Z" transform="translate(-0.63037 -1.87207)"/>
        </g>
        <g>
          <path d="M1344.65625,106.02539l-2.21387-9.77734h2.10157l.92382,4.69238.51856,2.71777h.042l.61719-2.71777,1.07812-4.69238h2.3252l1.09277,4.69238.60254,2.71777h.042l.51758-2.71777.93945-4.69238h2.01661l-2.26954,9.77734h-2.42285l-1.23242-5.29492-.47656-2.14356h-.042l-.49024,2.14356-1.23242,5.29492Z" transform="translate(-0.63037 -1.87207)"/>
          <path d="M1356.457,96.86426v-.30762c0-.58887.36426-1.02246,1.2041-1.02246.84082,0,1.20508.43359,1.20508,1.02246v.30762c0,.58886-.36426,1.02246-1.20508,1.02246C1356.82129,97.88672,1356.457,97.45312,1356.457,96.86426Zm.168,1.80762h2.07324v7.35351H1356.625Z" transform="translate(-0.63037 -1.87207)"/>
          <path d="M1363.20605,106.02539a1.93629,1.93629,0,0,1-2.18554-2.14355v-3.59961h-1.03613V98.67188h.51855c.55957,0,.72852-.28028.72852-.78516v-1.2041h1.8623v1.98926h1.457v1.61035h-1.457v4.13183h1.34473v1.61133Z" transform="translate(-0.63037 -1.87207)"/>
          <path d="M1365.99121,95.66016h2.07324V99.918h.084a2.00442,2.00442,0,0,1,2.04492-1.415c1.499,0,2.29687,1.06543,2.29687,2.91406v4.6084H1370.417V101.585c0-.93848-.26562-1.40039-1.02246-1.40039-.67187,0-1.33008.34961-1.33008,1.07813v4.76269h-2.07324Z" transform="translate(-0.63037 -1.87207)"/>
          <path d="M1373.87207,102.3418c0-2.36817,1.28906-3.83887,3.44629-3.83887s3.44629,1.4707,3.44629,3.83887c0,2.36718-1.28906,3.85156-3.44629,3.85156S1373.87207,104.709,1373.87207,102.3418Zm4.73535.75586v-1.499c0-.92383-.47656-1.45605-1.28906-1.45605s-1.28906.53222-1.28906,1.45605v1.499c0,.9248.47656,1.457,1.28906,1.457S1378.60742,104.02246,1378.60742,103.09766Z" transform="translate(-0.63037 -1.87207)"/>
          <path d="M1386.57324,104.793h-.06933a1.99727,1.99727,0,0,1-2.05957,1.40039c-1.499,0-2.29688-1.05078-2.29688-2.89941V98.67188h2.07324v4.44042c0,.89649.29395,1.4004,1.04981,1.4004a1.17071,1.17071,0,0,0,1.30273-1.06446V98.67188h2.07324v7.35351h-2.07324Z" transform="translate(-0.63037 -1.87207)"/>
          <path d="M1393.15234,106.02539a1.93629,1.93629,0,0,1-2.18554-2.14355v-3.59961h-1.03614V98.67188h.51856c.55957,0,.72754-.28028.72754-.78516v-1.2041H1393.04v1.98926h1.457v1.61035h-1.457v4.13183h1.34473v1.61133Z" transform="translate(-0.63037 -1.87207)"/>
          <path d="M1343.11523,113.04785h4.749a2.36567,2.36567,0,0,1,2.57715,2.50781c0,1.498-.82715,2.0586-1.82129,2.10059v.084a2.16207,2.16207,0,0,1,2.19922,2.29786,2.631,2.631,0,0,1-2.52149,2.78711h-5.18262Zm2.12891,4.00586h2.11524a.82451.82451,0,0,0,.89648-.89648v-.41993a.82451.82451,0,0,0-.89648-.89648h-2.11524Zm0,3.97852h2.45117a.82547.82547,0,0,0,.91114-.88282v-.47558a.82546.82546,0,0,0-.91114-.88281h-2.45117Z" transform="translate(-0.63037 -1.87207)"/>
          <path d="M1351.87793,119.1416c0-2.32519,1.2334-3.83887,3.44629-3.83887,2.4375,0,3.418,1.76563,3.418,3.75489v.61621h-4.72071v.11133a1.44484,1.44484,0,0,0,1.625,1.583,2.3313,2.3313,0,0,0,1.80664-.88183l1.03711,1.28808a3.98651,3.98651,0,0,1-3.082,1.21875C1353.15332,122.99316,1351.87793,121.49414,1351.87793,119.1416Zm2.14355-.79883v.11231h2.57715v-.126c0-.89648-.40625-1.499-1.23242-1.499A1.3447,1.3447,0,0,0,1354.02148,118.34277Z" transform="translate(-0.63037 -1.87207)"/>
          <path d="M1362.26758,122.8252a1.80178,1.80178,0,0,1-2.0586-2.01758V112.46h2.07325v8.75391h.92382v1.61133Z" transform="translate(-0.63037 -1.87207)"/>
          <path d="M1363.98828,119.1416c0-2.36719,1.28906-3.83887,3.44629-3.83887s3.44531,1.47168,3.44531,3.83887-1.28808,3.85156-3.44531,3.85156S1363.98828,121.50879,1363.98828,119.1416Zm4.73535.75586v-1.499c0-.92383-.47656-1.45606-1.28906-1.45606s-1.28906.53223-1.28906,1.45606v1.499c0,.92481.47656,1.457,1.28906,1.457S1368.72363,120.82227,1368.72363,119.89746Z" transform="translate(-0.63037 -1.87207)"/>
          <path d="M1383.0752,116.41016h-.042l-.71484,1.42871-1.9043,3.46-1.86328-3.44629-.74219-1.541h-.042v6.51368h-2.0039v-9.77735h2.25585l2.39551,4.58008h.02735l2.36718-4.58008h2.26953v9.77735h-2.00292Z" transform="translate(-0.63037 -1.87207)"/>
          <path d="M1386.6543,119.1416c0-2.36719,1.28906-3.83887,3.44629-3.83887s3.44531,1.47168,3.44531,3.83887-1.28809,3.85156-3.44531,3.85156S1386.6543,121.50879,1386.6543,119.1416Zm4.73535.75586v-1.499c0-.92383-.47656-1.45606-1.28906-1.45606s-1.28907.53223-1.28907,1.45606v1.499c0,.92481.47657,1.457,1.28907,1.457S1391.38965,120.82227,1391.38965,119.89746Z" transform="translate(-0.63037 -1.87207)"/>
          <path d="M1395.0127,122.8252v-7.35352h2.07324v1.24609h.084a2.00445,2.00445,0,0,1,2.04492-1.415c1.499,0,2.29688,1.06543,2.29688,2.91407v4.6084h-2.07324v-4.44043c0-.93848-.26563-1.40039-1.02246-1.40039-.67188,0-1.33008.3496-1.33008,1.07812v4.7627Z" transform="translate(-0.63037 -1.87207)"/>
          <path d="M1405.93359,122.8252a1.93629,1.93629,0,0,1-2.18554-2.14356V117.082h-1.03614v-1.61035h.51856c.55957,0,.72754-.28027.72754-.78516v-1.2041h1.86328v1.98926h1.457V117.082h-1.457v4.13184h1.34473v1.61133Z" transform="translate(-0.63037 -1.87207)"/>
          <path d="M1408.2002,119.1416c0-2.32519,1.23339-3.83887,3.44628-3.83887,2.4375,0,3.418,1.76563,3.418,3.75489v.61621h-4.7207v.11133a1.44483,1.44483,0,0,0,1.625,1.583,2.33132,2.33132,0,0,0,1.80664-.88183l1.03711,1.28808a3.98651,3.98651,0,0,1-3.082,1.21875C1409.47559,122.99316,1408.2002,121.49414,1408.2002,119.1416Zm2.14355-.79883v.11231h2.57715v-.126c0-.89648-.40625-1.499-1.23242-1.499A1.3447,1.3447,0,0,0,1410.34375,118.34277Z" transform="translate(-0.63037 -1.87207)"/>
        </g>
        <g>
          <path class="cls-6" d="M57.0752,10.60645c0-4.95508,2.54-7.68457,6.4873-7.68457A5.4318,5.4318,0,0,1,69.043,6.36523L66.292,7.793A2.59724,2.59724,0,0,0,63.5625,5.75684c-1.86816,0-3.10742,1.25976-3.10742,3.56836v2.35156c0,2.31054,1.23926,3.57031,3.10742,3.57031a3.00933,3.00933,0,0,0,2.91895-2.18359L69.085,14.5752a5.72926,5.72926,0,0,1-5.52246,3.50585C59.61523,18.08105,57.0752,15.56152,57.0752,10.60645Z" transform="translate(-0.63037 -1.87207)"/>
          <path class="cls-6" d="M70.47266,10.501c0-4.97559,2.56152-7.5791,6.44629-7.5791,3.88378,0,6.44531,2.60351,6.44531,7.5791,0,4.97656-2.56153,7.58007-6.44531,7.58007C73.03418,18.08105,70.47266,15.47754,70.47266,10.501Zm9.51172,1.09179V9.40918c0-2.33008-1.15528-3.65234-3.06543-3.65234-1.91114,0-3.06543,1.32226-3.06543,3.65234v2.18359c0,2.33106,1.15429,3.6543,3.06543,3.6543C78.8291,15.24707,79.98438,13.92383,79.98438,11.59277Z" transform="translate(-0.63037 -1.87207)"/>
          <path class="cls-6" d="M91.07324,17.8291H85.00488V15.98145L87.294,14.23926c1.0498-.79883,1.40625-1.11328,1.40625-1.74317v-.0205c0-.56739-.50391-.71485-.90235-.71485a1.14548,1.14548,0,0,0-1.15527.94531l-1.86817-.69335a3.13791,3.13791,0,0,1,3.2334-2.05665c1.88965,0,2.98145,1.00782,2.98145,2.39258,0,1.42774-1.15528,2.35157-2.39356,3.04492l-1.23925.69336h3.71679Z" transform="translate(-0.63037 -1.87207)"/>
          <path class="cls-6" d="M98.1709,17.8291V3.17383h9.97363v2.835H101.3623v3.002h5.81641v2.81348H101.3623v3.1709h6.78223v2.834Z" transform="translate(-0.63037 -1.87207)"/>
          <path class="cls-6" d="M110.75,17.8291V6.80566h3.10742V8.6748h.126a2.94228,2.94228,0,0,1,2.96094-2.12109,3.04879,3.04879,0,0,1,3.08593,2.22656h.06348a3.42384,3.42384,0,0,1,3.35937-2.22656c2.12012,0,3.2959,1.5957,3.2959,4.36719v6.9082H123.6416V11.17285c0-1.42773-.48242-2.09961-1.51172-2.09961a1.65515,1.65515,0,0,0-1.82617,1.61719V17.8291h-3.10742V11.17285c0-1.42773-.50391-2.09961-1.51172-2.09961a1.66664,1.66664,0,0,0-1.82715,1.61719V17.8291Z" transform="translate(-0.63037 -1.87207)"/>
          <path class="cls-6" d="M129.27246,4.09766V3.63574c0-.88183.5459-1.5332,1.80566-1.5332s1.80567.65137,1.80567,1.5332v.46192c0,.88183-.5459,1.53222-1.80567,1.53222S129.27246,4.97949,129.27246,4.09766Zm.25195,2.708h3.10743V17.8291h-3.10743Z" transform="translate(-0.63037 -1.87207)"/>
          <path class="cls-6" d="M134.627,16.10742l1.82715-1.84765a3.83363,3.83363,0,0,0,2.918,1.40722c1.21777,0,1.6377-.39941,1.6377-1.05078,0-.54492-.33594-.81836-1.11231-.92383l-1.19726-.14648c-2.49805-.31445-3.71582-1.40625-3.71582-3.40137,0-2.12012,1.6582-3.59082,4.2832-3.59082a5.54153,5.54153,0,0,1,4.49316,1.72266l-1.78515,1.82617a3.68042,3.68042,0,0,0-2.54-1.13379c-1.04981,0-1.46973.37793-1.46973.92383,0,.58789.25195.90332,1.1543,1.02832l1.23926.168c2.39355.31543,3.63183,1.40722,3.63183,3.31836,0,2.12011-1.88965,3.67382-4.72363,3.67382A5.75521,5.75521,0,0,1,134.627,16.10742Z" transform="translate(-0.63037 -1.87207)"/>
          <path class="cls-6" d="M145.06445,16.10742l1.82715-1.84765a3.83363,3.83363,0,0,0,2.918,1.40722c1.21777,0,1.6377-.39941,1.6377-1.05078,0-.54492-.33594-.81836-1.11231-.92383l-1.19726-.14648c-2.49805-.31445-3.71582-1.40625-3.71582-3.40137,0-2.12012,1.6582-3.59082,4.2832-3.59082a5.54153,5.54153,0,0,1,4.49316,1.72266l-1.78515,1.82617a3.68042,3.68042,0,0,0-2.54-1.13379c-1.04981,0-1.46973.37793-1.46973.92383,0,.58789.25195.90332,1.1543,1.02832l1.23926.168c2.39355.31543,3.63183,1.40722,3.63183,3.31836,0,2.12011-1.88965,3.67382-4.72363,3.67382A5.75521,5.75521,0,0,1,145.06445,16.10742Z" transform="translate(-0.63037 -1.87207)"/>
          <path class="cls-6" d="M156.2998,4.09766V3.63574c0-.88183.5459-1.5332,1.80567-1.5332s1.80566.65137,1.80566,1.5332v.46192c0,.88183-.5459,1.53222-1.80566,1.53222S156.2998,4.97949,156.2998,4.09766Zm.252,2.708h3.10742V17.8291h-3.10742Z" transform="translate(-0.63037 -1.87207)"/>
          <path class="cls-6" d="M161.86523,12.30762c0-3.54883,1.93165-5.75391,5.16407-5.75391,3.23437,0,5.166,2.20508,5.166,5.75391,0,3.54785-1.93164,5.77343-5.166,5.77343C163.79688,18.08105,161.86523,15.85547,161.86523,12.30762Zm7.09571,1.13281V11.19434c0-1.38575-.71289-2.1836-1.93164-2.1836-1.2168,0-1.93164.79785-1.93164,2.1836v2.24609c0,1.38672.71484,2.18359,1.93164,2.18359C168.24805,15.624,168.96094,14.82715,168.96094,13.44043Z" transform="translate(-0.63037 -1.87207)"/>
          <path class="cls-6" d="M174.40039,17.8291V6.80566h3.10742V8.6748h.127a3.00554,3.00554,0,0,1,3.06445-2.12109c2.24707,0,3.44336,1.5957,3.44336,4.36719v6.9082h-3.10742V11.17285c0-1.40625-.39844-2.09961-1.53223-2.09961-1.00781,0-1.99512.52539-1.99512,1.61719V17.8291Z" transform="translate(-0.63037 -1.87207)"/>
          <path class="cls-6" d="M186.01465,16.10742l1.82715-1.84765a3.83207,3.83207,0,0,0,2.918,1.40722c1.21777,0,1.63769-.39941,1.63769-1.05078,0-.54492-.33594-.81836-1.1123-.92383l-1.19727-.14648c-2.498-.31445-3.7168-1.40625-3.7168-3.40137,0-2.12012,1.65918-3.59082,4.28321-3.59082a5.54237,5.54237,0,0,1,4.49414,1.72266l-1.78516,1.82617a3.68447,3.68447,0,0,0-2.541-1.13379c-1.04883,0-1.46875.37793-1.46875.92383,0,.58789.25195.90332,1.15429,1.02832l1.23828.168c2.39453.31543,3.63282,1.40722,3.63282,3.31836,0,2.12011-1.88965,3.67382-4.72461,3.67382A5.75452,5.75452,0,0,1,186.01465,16.10742Z" transform="translate(-0.63037 -1.87207)"/>
          <path class="cls-6" d="M205.459,1.87207h2.918a11.70388,11.70388,0,0,0-3.65234,8.69238v1.46973a11.4776,11.4776,0,0,0,3.65234,8.69238H205.4375c-2.03613-1.76367-3.65234-5.35449-3.65234-9.44824C201.78516,7.22559,203.35938,3.69824,205.459,1.87207Z" transform="translate(-0.63037 -1.87207)"/>
          <path class="cls-6" d="M220.68359,8.21289h-.06347l-1.07129,2.1416L216.69336,15.54l-2.792-5.16406-1.11231-2.31055h-.06347V17.8291h-3.00293V3.17383h3.38086L216.69336,10.04h.043l3.54785-6.86621h3.40137V17.8291h-3.002Z" transform="translate(-0.63037 -1.87207)"/>
          <path class="cls-6" d="M230.61719,17.8291c-2.14258,0-3.27539-1.11328-3.27539-3.21289V9.2207h-1.55469v-2.415h.77734c.83985,0,1.0918-.41992,1.0918-1.17578V3.8252h2.793V6.80566h2.18359v2.415h-2.18359V15.415h2.01562V17.8291Z" transform="translate(-0.63037 -1.87207)"/>
          <path class="cls-6" d="M234.39746,10.60645c0-4.95508,2.54-7.68457,6.48731-7.68457a5.431,5.431,0,0,1,5.48046,3.44335l-2.75,1.42774a2.599,2.599,0,0,0-2.73046-2.03613c-1.86817,0-3.10743,1.25976-3.10743,3.56836v2.35156c0,2.31054,1.23926,3.57031,3.10743,3.57031a3.00844,3.00844,0,0,0,2.91894-2.18359l2.60352,1.51172a5.72926,5.72926,0,0,1-5.52246,3.50585C236.9375,18.08105,234.39746,15.56152,234.39746,10.60645Z" transform="translate(-0.63037 -1.87207)"/>
          <path class="cls-6" d="M247.7959,10.501c0-4.97559,2.56152-7.5791,6.44629-7.5791,3.88379,0,6.44531,2.60351,6.44531,7.5791,0,4.97656-2.56152,7.58007-6.44531,7.58007C250.35742,18.08105,247.7959,15.47754,247.7959,10.501Zm9.51074,1.09179V9.40918c0-2.33008-1.1543-3.65234-3.06445-3.65234-1.91114,0-3.06641,1.32226-3.06641,3.65234v2.18359c0,2.33106,1.15527,3.6543,3.06641,3.6543C256.15234,15.24707,257.30664,13.92383,257.30664,11.59277Z" transform="translate(-0.63037 -1.87207)"/>
          <path class="cls-6" d="M268.39551,17.8291h-6.06739V15.98145l2.28809-1.74219c1.04981-.79883,1.40723-1.11328,1.40723-1.74317v-.0205c0-.56739-.50391-.71485-.90332-.71485a1.14625,1.14625,0,0,0-1.15528.94531l-1.86816-.69335a3.13874,3.13874,0,0,1,3.2334-2.05665c1.88965,0,2.98144,1.00782,2.98144,2.39258,0,1.42774-1.15527,2.35157-2.39355,3.04492l-1.23828.69336h3.71582Z" transform="translate(-0.63037 -1.87207)"/>
          <path class="cls-6" d="M271.56738,20.72656h-2.91894a11.70168,11.70168,0,0,0,3.65429-8.69238V10.56445a11.47355,11.47355,0,0,0-3.65429-8.69238h2.93945c2.03711,1.76367,3.6543,5.3125,3.6543,9.40625C275.24219,15.33105,273.667,18.89941,271.56738,20.72656Z" transform="translate(-0.63037 -1.87207)"/>
        </g>
        <g>
          <path class="cls-6" d="M58.22217,342.09082v-1.31641h2.74512v-7.3125h-.11182l-2.26953,2.42383-.96631-.86914,2.49316-2.70312h2.40967v8.46093h2.38086v1.31641Z" transform="translate(-0.63037 -1.87207)"/>
          <path class="cls-6" d="M69.50732,342.09082H67.40625c2.21338-1.61133,3.48779-2.89941,3.96436-5.001l-.09815-.02734a2.40208,2.40208,0,0,1-2.26953,1.42871,2.80825,2.80825,0,0,1-2.87158-3.02637,3.19939,3.19939,0,0,1,3.43213-3.31933c2.15722,0,3.4458,1.4707,3.4458,3.80957A7.70229,7.70229,0,0,1,69.50732,342.09082Zm1.86329-6.668v-.19531a1.80719,1.80719,0,0,0-3.61426,0v.19531a1.80719,1.80719,0,0,0,3.61426,0Z" transform="translate(-0.63037 -1.87207)"/>
          <path class="cls-6" d="M74.48926,339.42969a2.38691,2.38691,0,0,1,1.96142-2.40918v-.11231a2.32073,2.32073,0,0,1-1.667-2.25586c0-1.498,1.17676-2.50683,3.20752-2.50683,2.03125,0,3.208,1.00879,3.208,2.50683a2.32073,2.32073,0,0,1-1.667,2.25586v.11231a2.3865,2.3865,0,0,1,1.96093,2.40918c0,1.61035-1.23242,2.8291-3.502,2.8291C75.72217,342.25879,74.48926,341.04,74.48926,339.42969Zm5.35107.01367v-.28027c0-.9668-.67236-1.541-1.84912-1.541-1.17627,0-1.84912.57422-1.84912,1.541v.28027c0,.9668.67285,1.541,1.84912,1.541C79.168,340.98438,79.84033,340.41016,79.84033,339.44336Zm-.18213-4.41211V334.793c0-.88281-.58838-1.37305-1.667-1.37305s-1.667.49024-1.667,1.37305v.23828c0,.88184.58838,1.37207,1.667,1.37207S79.6582,335.91309,79.6582,335.03125Z" transform="translate(-0.63037 -1.87207)"/>
          <path class="cls-6" d="M89.30469,333.68652H84.9624l-.252,3.46h.09814a2.08972,2.08972,0,0,1,2.04493-1.27539,2.84258,2.84258,0,0,1,2.95556,3.05371,3.19038,3.19038,0,0,1-3.48779,3.334,3.58908,3.58908,0,0,1-3.23584-1.751l1.14844-.91015a2.30529,2.30529,0,0,0,2.11523,1.33007,1.64673,1.64673,0,0,0,1.80713-1.793v-.168a1.64719,1.64719,0,0,0-1.80713-1.793,2.05431,2.05431,0,0,0-1.65283.77051l-1.30274-.18164.36426-5.44922h5.54688Z" transform="translate(-0.63037 -1.87207)"/>
        </g>
        <g>
          <path class="cls-6" d="M901.44629,342.09082h-6.63965v-1.5127l3.12305-2.78808a3.62546,3.62546,0,0,0,1.541-2.5625v-.18262a1.4493,1.4493,0,0,0-1.583-1.52637,1.82447,1.82447,0,0,0-1.835,1.54l-1.38671-.53222a3.286,3.286,0,0,1,3.34765-2.38086,2.82685,2.82685,0,0,1,3.1377,2.89941c0,1.583-1.04981,2.61914-2.33887,3.72656l-2.29688,1.97461h4.93067Z" transform="translate(-0.63037 -1.87207)"/>
          <path class="cls-6" d="M902.92578,337.20215c0-3.19336,1.10742-5.05664,3.54395-5.05664,2.4375,0,3.54394,1.86328,3.54394,5.05664s-1.10644,5.05664-3.54394,5.05664C904.0332,342.25879,902.92578,340.39551,902.92578,337.20215Zm5.40723.85449v-1.709c0-1.709-.50391-2.85743-1.86328-2.85743-1.3584,0-1.86231,1.14844-1.86231,2.85743v1.709c0,1.709.50391,2.85742,1.86231,2.85742C907.8291,340.91406,908.333,339.76562,908.333,338.05664Z" transform="translate(-0.63037 -1.87207)"/>
          <path class="cls-6" d="M911.90039,342.09082v-1.31641h2.74512v-7.3125h-.11133l-2.26953,2.42383-.9668-.86914,2.49317-2.70312h2.41015v8.46093H918.582v1.31641Z" transform="translate(-0.63037 -1.87207)"/>
          <path class="cls-6" d="M926.18359,333.68652h-4.34277l-.25195,3.46h.09863a2.08879,2.08879,0,0,1,2.04492-1.27539,2.84221,2.84221,0,0,1,2.95508,3.05371,3.19,3.19,0,0,1-3.4873,3.334,3.58993,3.58993,0,0,1-3.23633-1.751l1.14843-.91015a2.30584,2.30584,0,0,0,2.11524,1.33007,1.64688,1.64688,0,0,0,1.80762-1.793v-.168a1.64733,1.64733,0,0,0-1.80762-1.793,2.05324,2.05324,0,0,0-1.65234.77051l-1.30274-.18164.36426-5.44922h5.54687Z" transform="translate(-0.63037 -1.87207)"/>
        </g>
        <g>
          <path class="cls-6" d="M1405.626,342.09082h-6.64063v-1.5127l3.124-2.78808a3.6255,3.6255,0,0,0,1.541-2.5625v-.18262a1.4493,1.4493,0,0,0-1.583-1.52637,1.82446,1.82446,0,0,0-1.835,1.54l-1.38672-.53222a3.286,3.286,0,0,1,3.34766-2.38086,2.82684,2.82684,0,0,1,3.13769,2.89941c0,1.583-1.05078,2.61914-2.33886,3.72656l-2.29785,1.97461h4.93164Z" transform="translate(-0.63037 -1.87207)"/>
          <path class="cls-6" d="M1407.10547,337.20215c0-3.19336,1.10644-5.05664,3.54394-5.05664s3.54395,1.86328,3.54395,5.05664-1.10645,5.05664-3.54395,5.05664S1407.10547,340.39551,1407.10547,337.20215Zm5.40723.85449v-1.709c0-1.709-.50391-2.85743-1.86329-2.85743-1.35839,0-1.86328,1.14844-1.86328,2.85743v1.709c0,1.709.50489,2.85742,1.86328,2.85742C1412.00879,340.91406,1412.5127,339.76562,1412.5127,338.05664Z" transform="translate(-0.63037 -1.87207)"/>
          <path class="cls-6" d="M1418.5166,336.334c1.20508,0,1.7793-.57421,1.7793-1.373v-.09766a1.36659,1.36659,0,0,0-1.55469-1.38672,2.24265,2.24265,0,0,0-2.01758,1.19043l-1.0498-.91113a3.5025,3.5025,0,0,1,3.10937-1.61035c1.84864,0,3.17969.93847,3.17969,2.52148a2.247,2.247,0,0,1-1.877,2.24121v.07032a2.36532,2.36532,0,0,1,2.04492,2.42285c0,1.709-1.40039,2.85742-3.48731,2.85742a3.71808,3.71808,0,0,1-3.34765-1.751l1.16211-.91015a2.34194,2.34194,0,0,0,2.18554,1.33007c1.19043,0,1.84864-.60156,1.84864-1.61035v-.09765c0-.99512-.7002-1.541-1.93262-1.541h-1.03711V336.334Z" transform="translate(-0.63037 -1.87207)"/>
          <path class="cls-6" d="M1423.90527,337.20215c0-3.19336,1.10743-5.05664,3.54395-5.05664,2.4375,0,3.54394,1.86328,3.54394,5.05664s-1.10644,5.05664-3.54394,5.05664C1425.0127,342.25879,1423.90527,340.39551,1423.90527,337.20215Zm5.40723.85449v-1.709c0-1.709-.50488-2.85743-1.86328-2.85743s-1.86231,1.14844-1.86231,2.85743v1.709c0,1.709.50391,2.85742,1.86231,2.85742S1429.3125,339.76562,1429.3125,338.05664Z" transform="translate(-0.63037 -1.87207)"/>
        </g>
        <g>
          <path class="cls-6" d="M15.51562,222.76855H11.17334l-.25195,3.46h.09814a2.0897,2.0897,0,0,1,2.04492-1.2754A2.84259,2.84259,0,0,1,16.02,228.00684a3.19037,3.19037,0,0,1-3.48779,3.334,3.58908,3.58908,0,0,1-3.23584-1.751l1.14843-.91015a2.3053,2.3053,0,0,0,2.11524,1.33008,1.64675,1.64675,0,0,0,1.80713-1.793v-.168a1.64719,1.64719,0,0,0-1.80713-1.793,2.05432,2.05432,0,0,0-1.65283.77051l-1.30274-.18164.36426-5.44922h5.54687Z" transform="translate(-0.63037 -1.87207)"/>
          <path class="cls-6" d="M17.458,226.28418c0-3.19336,1.10693-5.05664,3.54394-5.05664,2.4375,0,3.54395,1.86328,3.54395,5.05664s-1.10645,5.05664-3.54395,5.05664C18.56494,231.34082,17.458,229.47754,17.458,226.28418Zm5.40722.85449v-1.709c0-1.709-.50439-2.85742-1.86328-2.85742-1.3584,0-1.86279,1.14843-1.86279,2.85742v1.709c0,1.709.50439,2.85742,1.86279,2.85742C22.36084,229.99609,22.86523,228.84766,22.86523,227.13867Z" transform="translate(-0.63037 -1.87207)"/>
          <path class="cls-6" d="M25.85791,226.28418c0-3.19336,1.10693-5.05664,3.54395-5.05664,2.4375,0,3.54394,1.86328,3.54394,5.05664s-1.10644,5.05664-3.54394,5.05664C26.96484,231.34082,25.85791,229.47754,25.85791,226.28418Zm5.40723.85449v-1.709c0-1.709-.5044-2.85742-1.86328-2.85742-1.3584,0-1.8628,1.14843-1.8628,2.85742v1.709c0,1.709.5044,2.85742,1.8628,2.85742C30.76074,229.99609,31.26514,228.84766,31.26514,227.13867Z" transform="translate(-0.63037 -1.87207)"/>
        </g>
        <path class="cls-6" d="M25.85791,318.93848c0-3.19336,1.10693-5.05664,3.54395-5.05664,2.4375,0,3.54394,1.86328,3.54394,5.05664s-1.10644,5.05664-3.54394,5.05664C26.96484,323.99512,25.85791,322.13184,25.85791,318.93848Zm5.40723.85449v-1.709c0-1.709-.5044-2.85742-1.86328-2.85742-1.3584,0-1.8628,1.14844-1.8628,2.85742v1.709c0,1.709.5044,2.85742,1.8628,2.85742C30.76074,322.65039,31.26514,321.502,31.26514,319.793Z" transform="translate(-0.63037 -1.87207)"/>
        <g>
          <path class="cls-6" d="M1.23291,138.51953v-1.31641H3.978v-7.3125H3.86621l-2.26953,2.42383-.96631-.86914,2.49317-2.70312H5.5332v8.46093H7.91406v1.31641Z" transform="translate(-0.63037 -1.87207)"/>
          <path class="cls-6" d="M9.05811,133.63086c0-3.19336,1.10693-5.05664,3.54394-5.05664,2.4375,0,3.544,1.86328,3.544,5.05664s-1.10645,5.05664-3.544,5.05664C10.165,138.6875,9.05811,136.82422,9.05811,133.63086Zm5.40722.85449v-1.709c0-1.709-.50439-2.85742-1.86328-2.85742-1.3584,0-1.86279,1.14843-1.86279,2.85742v1.709c0,1.709.50439,2.85742,1.86279,2.85742C13.96094,137.34277,14.46533,136.19434,14.46533,134.48535Z" transform="translate(-0.63037 -1.87207)"/>
          <path class="cls-6" d="M17.458,133.63086c0-3.19336,1.10693-5.05664,3.54394-5.05664,2.4375,0,3.54395,1.86328,3.54395,5.05664s-1.10645,5.05664-3.54395,5.05664C18.56494,138.6875,17.458,136.82422,17.458,133.63086Zm5.40722.85449v-1.709c0-1.709-.50439-2.85742-1.86328-2.85742-1.3584,0-1.86279,1.14843-1.86279,2.85742v1.709c0,1.709.50439,2.85742,1.86279,2.85742C22.36084,137.34277,22.86523,136.19434,22.86523,134.48535Z" transform="translate(-0.63037 -1.87207)"/>
          <path class="cls-6" d="M25.85791,133.63086c0-3.19336,1.10693-5.05664,3.54395-5.05664,2.4375,0,3.54394,1.86328,3.54394,5.05664s-1.10644,5.05664-3.54394,5.05664C26.96484,138.6875,25.85791,136.82422,25.85791,133.63086Zm5.40723.85449v-1.709c0-1.709-.5044-2.85742-1.86328-2.85742-1.3584,0-1.8628,1.14843-1.8628,2.85742v1.709c0,1.709.5044,2.85742,1.8628,2.85742C30.76074,137.34277,31.26514,136.19434,31.26514,134.48535Z" transform="translate(-0.63037 -1.87207)"/>
        </g>
        <g>
          <path class="cls-6" d="M1.23291,45.86523v-1.3164H3.978v-7.3125H3.86621L1.59668,39.66016.63037,38.791l2.49317-2.70313H5.5332v8.46094H7.91406v1.3164Z" transform="translate(-0.63037 -1.87207)"/>
          <path class="cls-6" d="M15.51562,37.46094H11.17334l-.25195,3.459h.09814a2.09106,2.09106,0,0,1,2.04492-1.27539A2.84287,2.84287,0,0,1,16.02,42.69922a3.19037,3.19037,0,0,1-3.48779,3.334,3.58968,3.58968,0,0,1-3.23584-1.752l1.14843-.91016a2.30368,2.30368,0,0,0,2.11524,1.33008,1.64674,1.64674,0,0,0,1.80713-1.793v-.168a1.64763,1.64763,0,0,0-1.80713-1.793,2.052,2.052,0,0,0-1.65283.77148l-1.30274-.18164.36426-5.44922h5.54687Z" transform="translate(-0.63037 -1.87207)"/>
          <path class="cls-6" d="M17.458,40.97656c0-3.19336,1.10693-5.05664,3.54394-5.05664,2.4375,0,3.54395,1.86328,3.54395,5.05664S23.43945,46.0332,21.002,46.0332C18.56494,46.0332,17.458,44.16992,17.458,40.97656Zm5.40722.85352v-1.709c0-1.709-.50439-2.85742-1.86328-2.85742-1.3584,0-1.86279,1.14844-1.86279,2.85742v1.709c0,1.709.50439,2.85742,1.86279,2.85742C22.36084,44.6875,22.86523,43.53906,22.86523,41.83008Z" transform="translate(-0.63037 -1.87207)"/>
          <path class="cls-6" d="M25.85791,40.97656c0-3.19336,1.10693-5.05664,3.54395-5.05664,2.4375,0,3.54394,1.86328,3.54394,5.05664s-1.10644,5.05664-3.54394,5.05664C26.96484,46.0332,25.85791,44.16992,25.85791,40.97656Zm5.40723.85352v-1.709c0-1.709-.5044-2.85742-1.86328-2.85742-1.3584,0-1.8628,1.14844-1.8628,2.85742v1.709c0,1.709.5044,2.85742,1.8628,2.85742C30.76074,44.6875,31.26514,43.53906,31.26514,41.83008Z" transform="translate(-0.63037 -1.87207)"/>
        </g>
      </g>
    </g>
  </g>
</svg>
