<svg xmlns="http://www.w3.org/2000/svg" xmlns:xlink="http://www.w3.org/1999/xlink" viewBox="0 0 1432.65869 340.38672">
  <defs>
    <style>
      .cls-1, .cls-8 {
        fill: none;
      }

      .cls-2 {
        clip-path: url(#clip-path);
      }

      .cls-3 {
        fill: red;
      }

      .cls-4 {
        fill: #ff0;
      }

      .cls-5 {
        fill: url(#Nuovo_campione_pattern_7);
      }

      .cls-6 {
        fill: url(#Nuovo_campione_pattern_7-3);
      }

      .cls-7 {
        fill: url(#Nuovo_campione_pattern_6);
      }

      .cls-8 {
        stroke: #fff;
        stroke-miterlimit: 10;
      }

      .cls-9 {
        fill: #fff;
      }
    </style>
    <clipPath id="clip-path">
      <rect class="cls-1" x="-0.00006" y="0.00013" width="11.00701" height="11.00701"/>
    </clipPath>
    <pattern id="Nuovo_campione_pattern_7" data-name="Nuovo campione pattern 7" width="11.00701" height="11.00701" patternUnits="userSpaceOnUse" viewBox="0 0 11.007 11.007">
      <rect class="cls-1" width="11.00701" height="11.00701"/>
      <g class="cls-2">
        <g>
          <rect class="cls-4" x="-3.62508" y="-3.625" width="7.25024" height="7.25024" rx="2.02427"/>
          <rect class="cls-4" x="7.20824" y="-3.625" width="7.25024" height="7.25024" rx="2.02427"/>
          <rect class="cls-4" x="-3.62508" y="7.38202" width="7.25024" height="7.25024" rx="2.02427"/>
          <rect class="cls-4" x="7.20824" y="7.38202" width="7.25024" height="7.25024" rx="2.02427"/>
        </g>
      </g>
    </pattern>
    <pattern id="Nuovo_campione_pattern_7-3" data-name="Nuovo campione pattern 7" x="-0.63037" y="-1.87207" width="11.00701" height="11.00701" patternUnits="userSpaceOnUse" viewBox="0 0 11.007 11.007">
      <rect class="cls-1" width="11.00701" height="11.00701"/>
      <g class="cls-2">
        <g>
          <rect class="cls-4" x="-3.62508" y="-3.625" width="7.25024" height="7.25024" rx="2.02427"/>
          <rect class="cls-4" x="7.20824" y="-3.625" width="7.25024" height="7.25024" rx="2.02427"/>
          <rect class="cls-4" x="-3.62508" y="7.38202" width="7.25024" height="7.25024" rx="2.02427"/>
          <rect class="cls-4" x="7.20824" y="7.38202" width="7.25024" height="7.25024" rx="2.02427"/>
        </g>
      </g>
    </pattern>
    <pattern id="Nuovo_campione_pattern_6" data-name="Nuovo campione pattern 6" x="-0.63037" y="-1.87207" width="11.00701" height="11.00701" patternUnits="userSpaceOnUse" viewBox="0 0 11.007 11.007">
      <rect class="cls-1" width="11.00701" height="11.00701"/>
      <g class="cls-2">
        <g>
          <rect class="cls-3" x="-3.62518" y="-3.625" width="7.25024" height="7.25024" rx="2.02427"/>
          <rect class="cls-3" x="7.20814" y="-3.625" width="7.25024" height="7.25024" rx="2.02427"/>
          <rect class="cls-3" x="-3.62518" y="7.38202" width="7.25024" height="7.25024" rx="2.02427"/>
          <rect class="cls-3" x="7.20814" y="7.38202" width="7.25024" height="7.25024" rx="2.02427"/>
        </g>
      </g>
    </pattern>
  </defs>
  <title>Risorsa 12</title>
  <g id="Livello_2" data-name="Livello 2">
    <g id="Testi">
      <g>
        <path class="cls-5" d="M59.73072,208.89414s79.90964-2.4954,103.54042-7.8945,47.26156-2.39961,54.72391-3.29946,35.97536-5.99451,48.50528-6.299,70.89234-6.89886,82.70773-8.69856,105.09477-9.89836,113.80085-11.39811,19.8996-8.39861,41.04293-10.49827,93.90125-4.7992,107.58223-6.89886,19.8996-6.5989,31.715-6.29895,27.35768,3.6039,36.6899,2.09965,28.60568-11.69807,38.55548-12.89787,62.80812-8.99851,70.89233-10.79821,57.21136-13.79772,67.16116-14.09767,71.5142,8.99851,71.5142,8.99851V321.32911H59.328Z" transform="translate(-0.63037 -1.87207)"/>
        <polygon class="cls-6" points="1432.659 68.891 927.532 119.041 927.532 319.457 1431.473 319.457 1432.659 68.891"/>
        <polygon class="cls-7" points="1432.611 139.879 921.761 118.888 921.761 319.457 1431.473 319.457 1432.611 139.879"/>
        <polyline class="cls-8" points="59.344 146.197 59.58 40.245 59.58 319.982 1432.659 319.982"/>
        <line class="cls-8" x1="59.34384" y1="40.24464" x2="44.83132" y2="40.24464"/>
        <line class="cls-8" x1="59.34384" y1="133.62116" x2="44.83132" y2="133.62116"/>
        <line class="cls-8" x1="59.34384" y1="320.37419" x2="44.83132" y2="320.37419"/>
        <line class="cls-8" x1="59.34384" y1="226.99768" x2="44.83132" y2="226.99768"/>
        <g>
          <path class="cls-9" d="M57.0752,10.60645c0-4.95508,2.54-7.68457,6.4873-7.68457A5.4318,5.4318,0,0,1,69.043,6.36523L66.292,7.793A2.59724,2.59724,0,0,0,63.5625,5.75684c-1.86816,0-3.10742,1.25976-3.10742,3.56836v2.35156c0,2.31054,1.23926,3.57031,3.10742,3.57031a3.00933,3.00933,0,0,0,2.91895-2.18359L69.085,14.5752a5.72926,5.72926,0,0,1-5.52246,3.50585C59.61523,18.08105,57.0752,15.56152,57.0752,10.60645Z" transform="translate(-0.63037 -1.87207)"/>
          <path class="cls-9" d="M70.47266,10.501c0-4.97559,2.56152-7.5791,6.44629-7.5791,3.88378,0,6.44531,2.60351,6.44531,7.5791,0,4.97656-2.56153,7.58007-6.44531,7.58007C73.03418,18.08105,70.47266,15.47754,70.47266,10.501Zm9.51172,1.09179V9.40918c0-2.33008-1.15528-3.65234-3.06543-3.65234-1.91114,0-3.06543,1.32226-3.06543,3.65234v2.18359c0,2.33106,1.15429,3.6543,3.06543,3.6543C78.8291,15.24707,79.98438,13.92383,79.98438,11.59277Z" transform="translate(-0.63037 -1.87207)"/>
          <path class="cls-9" d="M91.07324,17.8291H85.00488V15.98145L87.294,14.23926c1.0498-.79883,1.40625-1.11328,1.40625-1.74317v-.0205c0-.56739-.50391-.71485-.90235-.71485a1.14548,1.14548,0,0,0-1.15527.94531l-1.86817-.69335a3.13791,3.13791,0,0,1,3.2334-2.05665c1.88965,0,2.98145,1.00782,2.98145,2.39258,0,1.42774-1.15528,2.35157-2.39356,3.04492l-1.23925.69336h3.71679Z" transform="translate(-0.63037 -1.87207)"/>
          <path class="cls-9" d="M98.1709,17.8291V3.17383h9.97363v2.835H101.3623v3.002h5.81641v2.81348H101.3623v3.1709h6.78223v2.834Z" transform="translate(-0.63037 -1.87207)"/>
          <path class="cls-9" d="M110.75,17.8291V6.80566h3.10742V8.6748h.126a2.94228,2.94228,0,0,1,2.96094-2.12109,3.04879,3.04879,0,0,1,3.08593,2.22656h.06348a3.42384,3.42384,0,0,1,3.35937-2.22656c2.12012,0,3.2959,1.5957,3.2959,4.36719v6.9082H123.6416V11.17285c0-1.42773-.48242-2.09961-1.51172-2.09961a1.65515,1.65515,0,0,0-1.82617,1.61719V17.8291h-3.10742V11.17285c0-1.42773-.50391-2.09961-1.51172-2.09961a1.66664,1.66664,0,0,0-1.82715,1.61719V17.8291Z" transform="translate(-0.63037 -1.87207)"/>
          <path class="cls-9" d="M129.27246,4.09766V3.63574c0-.88183.5459-1.5332,1.80566-1.5332s1.80567.65137,1.80567,1.5332v.46192c0,.88183-.5459,1.53222-1.80567,1.53222S129.27246,4.97949,129.27246,4.09766Zm.25195,2.708h3.10743V17.8291h-3.10743Z" transform="translate(-0.63037 -1.87207)"/>
          <path class="cls-9" d="M134.627,16.10742l1.82715-1.84765a3.83363,3.83363,0,0,0,2.918,1.40722c1.21777,0,1.6377-.39941,1.6377-1.05078,0-.54492-.33594-.81836-1.11231-.92383l-1.19726-.14648c-2.49805-.31445-3.71582-1.40625-3.71582-3.40137,0-2.12012,1.6582-3.59082,4.2832-3.59082a5.54153,5.54153,0,0,1,4.49316,1.72266l-1.78515,1.82617a3.68042,3.68042,0,0,0-2.54-1.13379c-1.04981,0-1.46973.37793-1.46973.92383,0,.58789.25195.90332,1.1543,1.02832l1.23926.168c2.39355.31543,3.63183,1.40722,3.63183,3.31836,0,2.12011-1.88965,3.67382-4.72363,3.67382A5.75521,5.75521,0,0,1,134.627,16.10742Z" transform="translate(-0.63037 -1.87207)"/>
          <path class="cls-9" d="M145.06445,16.10742l1.82715-1.84765a3.83363,3.83363,0,0,0,2.918,1.40722c1.21777,0,1.6377-.39941,1.6377-1.05078,0-.54492-.33594-.81836-1.11231-.92383l-1.19726-.14648c-2.49805-.31445-3.71582-1.40625-3.71582-3.40137,0-2.12012,1.6582-3.59082,4.2832-3.59082a5.54153,5.54153,0,0,1,4.49316,1.72266l-1.78515,1.82617a3.68042,3.68042,0,0,0-2.54-1.13379c-1.04981,0-1.46973.37793-1.46973.92383,0,.58789.25195.90332,1.1543,1.02832l1.23926.168c2.39355.31543,3.63183,1.40722,3.63183,3.31836,0,2.12011-1.88965,3.67382-4.72363,3.67382A5.75521,5.75521,0,0,1,145.06445,16.10742Z" transform="translate(-0.63037 -1.87207)"/>
          <path class="cls-9" d="M156.2998,4.09766V3.63574c0-.88183.5459-1.5332,1.80567-1.5332s1.80566.65137,1.80566,1.5332v.46192c0,.88183-.5459,1.53222-1.80566,1.53222S156.2998,4.97949,156.2998,4.09766Zm.252,2.708h3.10742V17.8291h-3.10742Z" transform="translate(-0.63037 -1.87207)"/>
          <path class="cls-9" d="M161.86523,12.30762c0-3.54883,1.93165-5.75391,5.16407-5.75391,3.23437,0,5.166,2.20508,5.166,5.75391,0,3.54785-1.93164,5.77343-5.166,5.77343C163.79688,18.08105,161.86523,15.85547,161.86523,12.30762Zm7.09571,1.13281V11.19434c0-1.38575-.71289-2.1836-1.93164-2.1836-1.2168,0-1.93164.79785-1.93164,2.1836v2.24609c0,1.38672.71484,2.18359,1.93164,2.18359C168.24805,15.624,168.96094,14.82715,168.96094,13.44043Z" transform="translate(-0.63037 -1.87207)"/>
          <path class="cls-9" d="M174.40039,17.8291V6.80566h3.10742V8.6748h.127a3.00554,3.00554,0,0,1,3.06445-2.12109c2.24707,0,3.44336,1.5957,3.44336,4.36719v6.9082h-3.10742V11.17285c0-1.40625-.39844-2.09961-1.53223-2.09961-1.00781,0-1.99512.52539-1.99512,1.61719V17.8291Z" transform="translate(-0.63037 -1.87207)"/>
          <path class="cls-9" d="M186.01465,16.10742l1.82715-1.84765a3.83207,3.83207,0,0,0,2.918,1.40722c1.21777,0,1.63769-.39941,1.63769-1.05078,0-.54492-.33594-.81836-1.1123-.92383l-1.19727-.14648c-2.498-.31445-3.7168-1.40625-3.7168-3.40137,0-2.12012,1.65918-3.59082,4.28321-3.59082a5.54237,5.54237,0,0,1,4.49414,1.72266l-1.78516,1.82617a3.68447,3.68447,0,0,0-2.541-1.13379c-1.04883,0-1.46875.37793-1.46875.92383,0,.58789.25195.90332,1.15429,1.02832l1.23828.168c2.39453.31543,3.63282,1.40722,3.63282,3.31836,0,2.12011-1.88965,3.67382-4.72461,3.67382A5.75452,5.75452,0,0,1,186.01465,16.10742Z" transform="translate(-0.63037 -1.87207)"/>
          <path class="cls-9" d="M205.459,1.87207h2.918a11.70388,11.70388,0,0,0-3.65234,8.69238v1.46973a11.4776,11.4776,0,0,0,3.65234,8.69238H205.4375c-2.03613-1.76367-3.65234-5.35449-3.65234-9.44824C201.78516,7.22559,203.35938,3.69824,205.459,1.87207Z" transform="translate(-0.63037 -1.87207)"/>
          <path class="cls-9" d="M220.68359,8.21289h-.06347l-1.07129,2.1416L216.69336,15.54l-2.792-5.16406-1.11231-2.31055h-.06347V17.8291h-3.00293V3.17383h3.38086L216.69336,10.04h.043l3.54785-6.86621h3.40137V17.8291h-3.002Z" transform="translate(-0.63037 -1.87207)"/>
          <path class="cls-9" d="M230.61719,17.8291c-2.14258,0-3.27539-1.11328-3.27539-3.21289V9.2207h-1.55469v-2.415h.77734c.83985,0,1.0918-.41992,1.0918-1.17578V3.8252h2.793V6.80566h2.18359v2.415h-2.18359V15.415h2.01562V17.8291Z" transform="translate(-0.63037 -1.87207)"/>
          <path class="cls-9" d="M234.39746,10.60645c0-4.95508,2.54-7.68457,6.48731-7.68457a5.431,5.431,0,0,1,5.48046,3.44335l-2.75,1.42774a2.599,2.599,0,0,0-2.73046-2.03613c-1.86817,0-3.10743,1.25976-3.10743,3.56836v2.35156c0,2.31054,1.23926,3.57031,3.10743,3.57031a3.00844,3.00844,0,0,0,2.91894-2.18359l2.60352,1.51172a5.72926,5.72926,0,0,1-5.52246,3.50585C236.9375,18.08105,234.39746,15.56152,234.39746,10.60645Z" transform="translate(-0.63037 -1.87207)"/>
          <path class="cls-9" d="M247.7959,10.501c0-4.97559,2.56152-7.5791,6.44629-7.5791,3.88379,0,6.44531,2.60351,6.44531,7.5791,0,4.97656-2.56152,7.58007-6.44531,7.58007C250.35742,18.08105,247.7959,15.47754,247.7959,10.501Zm9.51074,1.09179V9.40918c0-2.33008-1.1543-3.65234-3.06445-3.65234-1.91114,0-3.06641,1.32226-3.06641,3.65234v2.18359c0,2.33106,1.15527,3.6543,3.06641,3.6543C256.15234,15.24707,257.30664,13.92383,257.30664,11.59277Z" transform="translate(-0.63037 -1.87207)"/>
          <path class="cls-9" d="M268.39551,17.8291h-6.06739V15.98145l2.28809-1.74219c1.04981-.79883,1.40723-1.11328,1.40723-1.74317v-.0205c0-.56739-.50391-.71485-.90332-.71485a1.14625,1.14625,0,0,0-1.15528.94531l-1.86816-.69335a3.13874,3.13874,0,0,1,3.2334-2.05665c1.88965,0,2.98144,1.00782,2.98144,2.39258,0,1.42774-1.15527,2.35157-2.39355,3.04492l-1.23828.69336h3.71582Z" transform="translate(-0.63037 -1.87207)"/>
          <path class="cls-9" d="M271.56738,20.72656h-2.91894a11.70168,11.70168,0,0,0,3.65429-8.69238V10.56445a11.47355,11.47355,0,0,0-3.65429-8.69238h2.93945c2.03711,1.76367,3.6543,5.3125,3.6543,9.40625C275.24219,15.33105,273.667,18.89941,271.56738,20.72656Z" transform="translate(-0.63037 -1.87207)"/>
        </g>
        <g>
          <path class="cls-9" d="M58.22217,342.09082v-1.31641h2.74512v-7.3125h-.11182l-2.26953,2.42383-.96631-.86914,2.49316-2.70312h2.40967v8.46093h2.38086v1.31641Z" transform="translate(-0.63037 -1.87207)"/>
          <path class="cls-9" d="M69.50732,342.09082H67.40625c2.21338-1.61133,3.48779-2.89941,3.96436-5.001l-.09815-.02734a2.40208,2.40208,0,0,1-2.26953,1.42871,2.80825,2.80825,0,0,1-2.87158-3.02637,3.19939,3.19939,0,0,1,3.43213-3.31933c2.15722,0,3.4458,1.4707,3.4458,3.80957A7.70229,7.70229,0,0,1,69.50732,342.09082Zm1.86329-6.668v-.19531a1.80719,1.80719,0,0,0-3.61426,0v.19531a1.80719,1.80719,0,0,0,3.61426,0Z" transform="translate(-0.63037 -1.87207)"/>
          <path class="cls-9" d="M74.48926,339.42969a2.38691,2.38691,0,0,1,1.96142-2.40918v-.11231a2.32073,2.32073,0,0,1-1.667-2.25586c0-1.498,1.17676-2.50683,3.20752-2.50683,2.03125,0,3.208,1.00879,3.208,2.50683a2.32073,2.32073,0,0,1-1.667,2.25586v.11231a2.3865,2.3865,0,0,1,1.96093,2.40918c0,1.61035-1.23242,2.8291-3.502,2.8291C75.72217,342.25879,74.48926,341.04,74.48926,339.42969Zm5.35107.01367v-.28027c0-.9668-.67236-1.541-1.84912-1.541-1.17627,0-1.84912.57422-1.84912,1.541v.28027c0,.9668.67285,1.541,1.84912,1.541C79.168,340.98438,79.84033,340.41016,79.84033,339.44336Zm-.18213-4.41211V334.793c0-.88281-.58838-1.37305-1.667-1.37305s-1.667.49024-1.667,1.37305v.23828c0,.88184.58838,1.37207,1.667,1.37207S79.6582,335.91309,79.6582,335.03125Z" transform="translate(-0.63037 -1.87207)"/>
          <path class="cls-9" d="M89.30469,333.68652H84.9624l-.252,3.46h.09814a2.08972,2.08972,0,0,1,2.04493-1.27539,2.84258,2.84258,0,0,1,2.95556,3.05371,3.19038,3.19038,0,0,1-3.48779,3.334,3.58908,3.58908,0,0,1-3.23584-1.751l1.14844-.91015a2.30529,2.30529,0,0,0,2.11523,1.33007,1.64673,1.64673,0,0,0,1.80713-1.793v-.168a1.64719,1.64719,0,0,0-1.80713-1.793,2.05431,2.05431,0,0,0-1.65283.77051l-1.30274-.18164.36426-5.44922h5.54688Z" transform="translate(-0.63037 -1.87207)"/>
        </g>
        <g>
          <path class="cls-9" d="M901.44629,342.09082h-6.63965v-1.5127l3.12305-2.78808a3.62546,3.62546,0,0,0,1.541-2.5625v-.18262a1.4493,1.4493,0,0,0-1.583-1.52637,1.82447,1.82447,0,0,0-1.835,1.54l-1.38671-.53222a3.286,3.286,0,0,1,3.34765-2.38086,2.82685,2.82685,0,0,1,3.1377,2.89941c0,1.583-1.04981,2.61914-2.33887,3.72656l-2.29688,1.97461h4.93067Z" transform="translate(-0.63037 -1.87207)"/>
          <path class="cls-9" d="M902.92578,337.20215c0-3.19336,1.10742-5.05664,3.54395-5.05664,2.4375,0,3.54394,1.86328,3.54394,5.05664s-1.10644,5.05664-3.54394,5.05664C904.0332,342.25879,902.92578,340.39551,902.92578,337.20215Zm5.40723.85449v-1.709c0-1.709-.50391-2.85743-1.86328-2.85743-1.3584,0-1.86231,1.14844-1.86231,2.85743v1.709c0,1.709.50391,2.85742,1.86231,2.85742C907.8291,340.91406,908.333,339.76562,908.333,338.05664Z" transform="translate(-0.63037 -1.87207)"/>
          <path class="cls-9" d="M911.90039,342.09082v-1.31641h2.74512v-7.3125h-.11133l-2.26953,2.42383-.9668-.86914,2.49317-2.70312h2.41015v8.46093H918.582v1.31641Z" transform="translate(-0.63037 -1.87207)"/>
          <path class="cls-9" d="M926.18359,333.68652h-4.34277l-.25195,3.46h.09863a2.08879,2.08879,0,0,1,2.04492-1.27539,2.84221,2.84221,0,0,1,2.95508,3.05371,3.19,3.19,0,0,1-3.4873,3.334,3.58993,3.58993,0,0,1-3.23633-1.751l1.14843-.91015a2.30584,2.30584,0,0,0,2.11524,1.33007,1.64688,1.64688,0,0,0,1.80762-1.793v-.168a1.64733,1.64733,0,0,0-1.80762-1.793,2.05324,2.05324,0,0,0-1.65234.77051l-1.30274-.18164.36426-5.44922h5.54687Z" transform="translate(-0.63037 -1.87207)"/>
        </g>
        <g>
          <path class="cls-9" d="M1405.626,342.09082h-6.64063v-1.5127l3.124-2.78808a3.6255,3.6255,0,0,0,1.541-2.5625v-.18262a1.4493,1.4493,0,0,0-1.583-1.52637,1.82446,1.82446,0,0,0-1.835,1.54l-1.38672-.53222a3.286,3.286,0,0,1,3.34766-2.38086,2.82684,2.82684,0,0,1,3.13769,2.89941c0,1.583-1.05078,2.61914-2.33886,3.72656l-2.29785,1.97461h4.93164Z" transform="translate(-0.63037 -1.87207)"/>
          <path class="cls-9" d="M1407.10547,337.20215c0-3.19336,1.10644-5.05664,3.54394-5.05664s3.54395,1.86328,3.54395,5.05664-1.10645,5.05664-3.54395,5.05664S1407.10547,340.39551,1407.10547,337.20215Zm5.40723.85449v-1.709c0-1.709-.50391-2.85743-1.86329-2.85743-1.35839,0-1.86328,1.14844-1.86328,2.85743v1.709c0,1.709.50489,2.85742,1.86328,2.85742C1412.00879,340.91406,1412.5127,339.76562,1412.5127,338.05664Z" transform="translate(-0.63037 -1.87207)"/>
          <path class="cls-9" d="M1418.5166,336.334c1.20508,0,1.7793-.57421,1.7793-1.373v-.09766a1.36659,1.36659,0,0,0-1.55469-1.38672,2.24265,2.24265,0,0,0-2.01758,1.19043l-1.0498-.91113a3.5025,3.5025,0,0,1,3.10937-1.61035c1.84864,0,3.17969.93847,3.17969,2.52148a2.247,2.247,0,0,1-1.877,2.24121v.07032a2.36532,2.36532,0,0,1,2.04492,2.42285c0,1.709-1.40039,2.85742-3.48731,2.85742a3.71808,3.71808,0,0,1-3.34765-1.751l1.16211-.91015a2.34194,2.34194,0,0,0,2.18554,1.33007c1.19043,0,1.84864-.60156,1.84864-1.61035v-.09765c0-.99512-.7002-1.541-1.93262-1.541h-1.03711V336.334Z" transform="translate(-0.63037 -1.87207)"/>
          <path class="cls-9" d="M1423.90527,337.20215c0-3.19336,1.10743-5.05664,3.54395-5.05664,2.4375,0,3.54394,1.86328,3.54394,5.05664s-1.10644,5.05664-3.54394,5.05664C1425.0127,342.25879,1423.90527,340.39551,1423.90527,337.20215Zm5.40723.85449v-1.709c0-1.709-.50488-2.85743-1.86328-2.85743s-1.86231,1.14844-1.86231,2.85743v1.709c0,1.709.50391,2.85742,1.86231,2.85742S1429.3125,339.76562,1429.3125,338.05664Z" transform="translate(-0.63037 -1.87207)"/>
        </g>
        <g>
          <path class="cls-9" d="M15.51562,222.76855H11.17334l-.25195,3.46h.09814a2.0897,2.0897,0,0,1,2.04492-1.2754A2.84259,2.84259,0,0,1,16.02,228.00684a3.19037,3.19037,0,0,1-3.48779,3.334,3.58908,3.58908,0,0,1-3.23584-1.751l1.14843-.91015a2.3053,2.3053,0,0,0,2.11524,1.33008,1.64675,1.64675,0,0,0,1.80713-1.793v-.168a1.64719,1.64719,0,0,0-1.80713-1.793,2.05432,2.05432,0,0,0-1.65283.77051l-1.30274-.18164.36426-5.44922h5.54687Z" transform="translate(-0.63037 -1.87207)"/>
          <path class="cls-9" d="M17.458,226.28418c0-3.19336,1.10693-5.05664,3.54394-5.05664,2.4375,0,3.54395,1.86328,3.54395,5.05664s-1.10645,5.05664-3.54395,5.05664C18.56494,231.34082,17.458,229.47754,17.458,226.28418Zm5.40722.85449v-1.709c0-1.709-.50439-2.85742-1.86328-2.85742-1.3584,0-1.86279,1.14843-1.86279,2.85742v1.709c0,1.709.50439,2.85742,1.86279,2.85742C22.36084,229.99609,22.86523,228.84766,22.86523,227.13867Z" transform="translate(-0.63037 -1.87207)"/>
          <path class="cls-9" d="M25.85791,226.28418c0-3.19336,1.10693-5.05664,3.54395-5.05664,2.4375,0,3.54394,1.86328,3.54394,5.05664s-1.10644,5.05664-3.54394,5.05664C26.96484,231.34082,25.85791,229.47754,25.85791,226.28418Zm5.40723.85449v-1.709c0-1.709-.5044-2.85742-1.86328-2.85742-1.3584,0-1.8628,1.14843-1.8628,2.85742v1.709c0,1.709.5044,2.85742,1.8628,2.85742C30.76074,229.99609,31.26514,228.84766,31.26514,227.13867Z" transform="translate(-0.63037 -1.87207)"/>
        </g>
        <path class="cls-9" d="M25.85791,318.93848c0-3.19336,1.10693-5.05664,3.54395-5.05664,2.4375,0,3.54394,1.86328,3.54394,5.05664s-1.10644,5.05664-3.54394,5.05664C26.96484,323.99512,25.85791,322.13184,25.85791,318.93848Zm5.40723.85449v-1.709c0-1.709-.5044-2.85742-1.86328-2.85742-1.3584,0-1.8628,1.14844-1.8628,2.85742v1.709c0,1.709.5044,2.85742,1.8628,2.85742C30.76074,322.65039,31.26514,321.502,31.26514,319.793Z" transform="translate(-0.63037 -1.87207)"/>
        <g>
          <path class="cls-9" d="M1.23291,138.51953v-1.31641H3.978v-7.3125H3.86621l-2.26953,2.42383-.96631-.86914,2.49317-2.70312H5.5332v8.46093H7.91406v1.31641Z" transform="translate(-0.63037 -1.87207)"/>
          <path class="cls-9" d="M9.05811,133.63086c0-3.19336,1.10693-5.05664,3.54394-5.05664,2.4375,0,3.544,1.86328,3.544,5.05664s-1.10645,5.05664-3.544,5.05664C10.165,138.6875,9.05811,136.82422,9.05811,133.63086Zm5.40722.85449v-1.709c0-1.709-.50439-2.85742-1.86328-2.85742-1.3584,0-1.86279,1.14843-1.86279,2.85742v1.709c0,1.709.50439,2.85742,1.86279,2.85742C13.96094,137.34277,14.46533,136.19434,14.46533,134.48535Z" transform="translate(-0.63037 -1.87207)"/>
          <path class="cls-9" d="M17.458,133.63086c0-3.19336,1.10693-5.05664,3.54394-5.05664,2.4375,0,3.54395,1.86328,3.54395,5.05664s-1.10645,5.05664-3.54395,5.05664C18.56494,138.6875,17.458,136.82422,17.458,133.63086Zm5.40722.85449v-1.709c0-1.709-.50439-2.85742-1.86328-2.85742-1.3584,0-1.86279,1.14843-1.86279,2.85742v1.709c0,1.709.50439,2.85742,1.86279,2.85742C22.36084,137.34277,22.86523,136.19434,22.86523,134.48535Z" transform="translate(-0.63037 -1.87207)"/>
          <path class="cls-9" d="M25.85791,133.63086c0-3.19336,1.10693-5.05664,3.54395-5.05664,2.4375,0,3.54394,1.86328,3.54394,5.05664s-1.10644,5.05664-3.54394,5.05664C26.96484,138.6875,25.85791,136.82422,25.85791,133.63086Zm5.40723.85449v-1.709c0-1.709-.5044-2.85742-1.86328-2.85742-1.3584,0-1.8628,1.14843-1.8628,2.85742v1.709c0,1.709.5044,2.85742,1.8628,2.85742C30.76074,137.34277,31.26514,136.19434,31.26514,134.48535Z" transform="translate(-0.63037 -1.87207)"/>
        </g>
        <g>
          <path class="cls-9" d="M1.23291,45.86523v-1.3164H3.978v-7.3125H3.86621L1.59668,39.66016.63037,38.791l2.49317-2.70313H5.5332v8.46094H7.91406v1.3164Z" transform="translate(-0.63037 -1.87207)"/>
          <path class="cls-9" d="M15.51562,37.46094H11.17334l-.25195,3.459h.09814a2.09106,2.09106,0,0,1,2.04492-1.27539A2.84287,2.84287,0,0,1,16.02,42.69922a3.19037,3.19037,0,0,1-3.48779,3.334,3.58968,3.58968,0,0,1-3.23584-1.752l1.14843-.91016a2.30368,2.30368,0,0,0,2.11524,1.33008,1.64674,1.64674,0,0,0,1.80713-1.793v-.168a1.64763,1.64763,0,0,0-1.80713-1.793,2.052,2.052,0,0,0-1.65283.77148l-1.30274-.18164.36426-5.44922h5.54687Z" transform="translate(-0.63037 -1.87207)"/>
          <path class="cls-9" d="M17.458,40.97656c0-3.19336,1.10693-5.05664,3.54394-5.05664,2.4375,0,3.54395,1.86328,3.54395,5.05664S23.43945,46.0332,21.002,46.0332C18.56494,46.0332,17.458,44.16992,17.458,40.97656Zm5.40722.85352v-1.709c0-1.709-.50439-2.85742-1.86328-2.85742-1.3584,0-1.86279,1.14844-1.86279,2.85742v1.709c0,1.709.50439,2.85742,1.86279,2.85742C22.36084,44.6875,22.86523,43.53906,22.86523,41.83008Z" transform="translate(-0.63037 -1.87207)"/>
          <path class="cls-9" d="M25.85791,40.97656c0-3.19336,1.10693-5.05664,3.54395-5.05664,2.4375,0,3.54394,1.86328,3.54394,5.05664s-1.10644,5.05664-3.54394,5.05664C26.96484,46.0332,25.85791,44.16992,25.85791,40.97656Zm5.40723.85352v-1.709c0-1.709-.5044-2.85742-1.86328-2.85742-1.3584,0-1.8628,1.14844-1.8628,2.85742v1.709c0,1.709.5044,2.85742,1.8628,2.85742C30.76074,44.6875,31.26514,43.53906,31.26514,41.83008Z" transform="translate(-0.63037 -1.87207)"/>
        </g>
        <g>
          <path class="cls-9" d="M1091.28809,16.98438l-2.84961-12.05665h1.98632l1.22657,5.80372.8457,4.00781h.05176l.96777-4.00781,1.4336-5.80372h2.17675l1.416,5.80372.95019,3.99023h.05176l.88086-3.99023,1.26074-5.80372h1.917l-2.97071,12.05665h-2.19336l-1.53711-6.23536-.89843-3.66211h-.03516l-.915,3.66211-1.57226,6.23536Z" transform="translate(-0.63037 -1.87207)"/>
          <path class="cls-9" d="M1105.19238,5.41113v-.293c0-.57031.34571-.98437,1.12305-.98437s1.10547.41406,1.10547.98437v.293c0,.57032-.32813.98535-1.10547.98535S1105.19238,5.98145,1105.19238,5.41113Zm.17285,2.5918h1.88282v8.98145h-1.88282Z" transform="translate(-0.63037 -1.87207)"/>
          <path class="cls-9" d="M1112.42969,16.98438a1.784,1.784,0,0,1-1.98633-1.95215V9.54H1109.044V8.00293h.75976c.62207,0,.8291-.25977.8291-.88184V5.5498h1.69336V8.00293h1.88281V9.54h-1.88281v5.90723h1.74414v1.53711Z" transform="translate(-0.63037 -1.87207)"/>
          <path class="cls-9" d="M1116.24609,4.20215h1.88282V9.48828h.08691a2.50379,2.50379,0,0,1,2.52148-1.69336c1.83106,0,2.91895,1.27832,2.91895,3.48926v5.7002h-1.88281V11.50879c0-1.38184-.53516-2.08984-1.69239-2.08984-.98437,0-1.95214.501-1.95214,1.5371v6.02833h-1.88282Z" transform="translate(-0.63037 -1.87207)"/>
          <path class="cls-9" d="M1125.65918,12.49316c0-2.86718,1.624-4.69824,4.12891-4.69824,2.5039,0,4.12793,1.83106,4.12793,4.69824s-1.624,4.69825-4.12793,4.69825C1127.2832,17.19141,1125.65918,15.36035,1125.65918,12.49316Zm6.27051.75977V11.7334c0-1.58887-.86426-2.38379-2.1416-2.38379-1.27832,0-2.14258.79492-2.14258,2.38379v1.51953c0,1.58984.86426,2.38379,2.14258,2.38379C1131.06543,15.63672,1131.92969,14.84277,1131.92969,13.25293Z" transform="translate(-0.63037 -1.87207)"/>
          <path class="cls-9" d="M1141.44629,15.499h-.06836a2.46909,2.46909,0,0,1-2.52246,1.69239c-1.84766,0-2.93652-1.26075-2.93652-3.47168V8.00293h1.88281v5.47461c0,1.36523.57031,2.09082,1.72754,2.09082.96777,0,1.917-.501,1.917-1.55469V8.00293h1.88281v8.98145h-1.88281Z" transform="translate(-0.63037 -1.87207)"/>
          <path class="cls-9" d="M1148.51074,16.98438a1.784,1.784,0,0,1-1.98633-1.95215V9.54H1145.125V8.00293h.75977c.62207,0,.8291-.25977.8291-.88184V5.5498h1.69336V8.00293H1150.29V9.54h-1.88281v5.90723h1.74414v1.53711Z" transform="translate(-0.63037 -1.87207)"/>
          <path class="cls-9" d="M1156.542,4.92773h5.33692a2.9491,2.9491,0,0,1,3.21289,3.10938,2.27161,2.27161,0,0,1-2.08985,2.55664v.10352a2.65474,2.65474,0,0,1,2.52149,2.81543,3.24485,3.24485,0,0,1-3.1084,3.47168H1156.542Zm1.95215,5.09571h3.02246a1.35073,1.35073,0,0,0,1.51953-1.4336V8.03711a1.35027,1.35027,0,0,0-1.51953-1.43359h-3.02246Zm0,5.28515h3.35059a1.45036,1.45036,0,0,0,1.624-1.53711v-.58691a1.45037,1.45037,0,0,0-1.624-1.53711h-3.35059Z" transform="translate(-0.63037 -1.87207)"/>
          <path class="cls-9" d="M1167.18164,12.49316c0-2.86718,1.57129-4.69824,4.12793-4.69824,2.64258,0,3.99023,1.98633,3.99023,4.47363v.709h-6.167v.293A2.20378,2.20378,0,0,0,1171.5,15.63672a2.63219,2.63219,0,0,0,2.36621-1.34668l1.10547,1.08789a4.16772,4.16772,0,0,1-3.66211,1.81348C1168.75293,17.19141,1167.18164,15.36035,1167.18164,12.49316Zm1.95117-.88086v.1211h4.18067v-.17285a2.02058,2.02058,0,0,0-2.00391-2.29688A2.16245,2.16245,0,0,0,1169.13281,11.6123Z" transform="translate(-0.63037 -1.87207)"/>
          <path class="cls-9" d="M1179.30664,16.98438a1.70759,1.70759,0,0,1-1.917-1.86524V4.20215h1.88281V15.44727h1.24316v1.53711Z" transform="translate(-0.63037 -1.87207)"/>
          <path class="cls-9" d="M1181.707,12.49316c0-2.86718,1.624-4.69824,4.12891-4.69824,2.5039,0,4.12793,1.83106,4.12793,4.69824s-1.624,4.69825-4.12793,4.69825C1183.33105,17.19141,1181.707,15.36035,1181.707,12.49316Zm6.27051.75977V11.7334c0-1.58887-.86426-2.38379-2.1416-2.38379-1.27832,0-2.14258.79492-2.14258,2.38379v1.51953c0,1.58984.86426,2.38379,2.14258,2.38379C1187.11328,15.63672,1187.97754,14.84277,1187.97754,13.25293Z" transform="translate(-0.63037 -1.87207)"/>
          <path class="cls-9" d="M1196.26758,4.92773h2.31445l3.23047,6.13184h.10352l3.22949-6.13184h2.21094V16.98438h-1.86524V7.76074h-.08594l-.95019,1.95215-2.64258,4.81836L1199.169,9.71289l-.94922-1.95215h-.08692v9.22364h-1.86523Z" transform="translate(-0.63037 -1.87207)"/>
          <path class="cls-9" d="M1209.584,12.49316c0-2.86718,1.624-4.69824,4.12891-4.69824,2.50391,0,4.12793,1.83106,4.12793,4.69824s-1.624,4.69825-4.12793,4.69825C1211.208,17.19141,1209.584,15.36035,1209.584,12.49316Zm6.27051.75977V11.7334c0-1.58887-.86426-2.38379-2.1416-2.38379-1.27832,0-2.14258.79492-2.14258,2.38379v1.51953c0,1.58984.86426,2.38379,2.14258,2.38379C1214.99023,15.63672,1215.85449,14.84277,1215.85449,13.25293Z" transform="translate(-0.63037 -1.87207)"/>
          <path class="cls-9" d="M1219.93066,16.98438V8.00293h1.88282V9.48828h.08593a2.50507,2.50507,0,0,1,2.52247-1.69336c1.83007,0,2.91894,1.27832,2.91894,3.48926v5.7002H1225.458v-5.458c0-1.39942-.53516-2.10742-1.69336-2.10742-.98438,0-1.95117.501-1.95117,1.55468v6.01075Z" transform="translate(-0.63037 -1.87207)"/>
          <path class="cls-9" d="M1232.43555,16.98438a1.784,1.784,0,0,1-1.98633-1.95215V9.54h-1.39942V8.00293h.75977c.62207,0,.8291-.25977.8291-.88184V5.5498h1.69336V8.00293h1.88281V9.54H1232.332v5.90723h1.74414v1.53711Z" transform="translate(-0.63037 -1.87207)"/>
          <path class="cls-9" d="M1235.5791,12.49316c0-2.86718,1.57129-4.69824,4.12793-4.69824,2.64258,0,3.99024,1.98633,3.99024,4.47363v.709h-6.167v.293a2.20378,2.20378,0,0,0,2.36719,2.36621,2.63219,2.63219,0,0,0,2.36621-1.34668l1.10547,1.08789a4.16772,4.16772,0,0,1-3.66211,1.81348C1237.15039,17.19141,1235.5791,15.36035,1235.5791,12.49316Zm1.95117-.88086v.1211h4.18067v-.17285a2.02058,2.02058,0,0,0-2.00391-2.29688A2.16245,2.16245,0,0,0,1237.53027,11.6123Z" transform="translate(-0.63037 -1.87207)"/>
        </g>
        <rect class="cls-4" x="1061.39859" y="0.44883" width="15.50855" height="15.50855" rx="4.57576"/>
        <g>
          <path class="cls-9" d="M1306.06152,16.98438l-2.85058-12.05665h1.98633l1.22656,5.80372.84668,4.00781h.05176l.96679-4.00781,1.4336-5.80372h2.17675l1.416,5.80372.95019,3.99023h.05176l.88086-3.99023L1316.46,4.92773h1.917l-2.9707,12.05665h-2.19434L1311.6748,10.749l-.89843-3.66211h-.03418l-.915,3.66211-1.57227,6.23536Z" transform="translate(-0.63037 -1.87207)"/>
          <path class="cls-9" d="M1319.96484,5.41113v-.293c0-.57031.34571-.98437,1.123-.98437s1.10547.41406,1.10547.98437v.293c0,.57032-.32813.98535-1.10547.98535S1319.96484,5.98145,1319.96484,5.41113Zm.17286,2.5918h1.88281v8.98145h-1.88281Z" transform="translate(-0.63037 -1.87207)"/>
          <path class="cls-9" d="M1327.20215,16.98438a1.78444,1.78444,0,0,1-1.98633-1.95215V9.54h-1.39844V8.00293h.75977c.62207,0,.8291-.25977.8291-.88184V5.5498h1.69238V8.00293h1.88282V9.54h-1.88282v5.90723h1.74512v1.53711Z" transform="translate(-0.63037 -1.87207)"/>
          <path class="cls-9" d="M1331.01953,4.20215h1.88281V9.48828h.08594a2.50379,2.50379,0,0,1,2.52149-1.69336c1.83105,0,2.91992,1.27832,2.91992,3.48926v5.7002h-1.88281V11.50879c0-1.38184-.53614-2.08984-1.69336-2.08984-.98438,0-1.95118.501-1.95118,1.5371v6.02833h-1.88281Z" transform="translate(-0.63037 -1.87207)"/>
          <path class="cls-9" d="M1345.251,4.92773h5.33789a2.94832,2.94832,0,0,1,3.21191,3.10938,2.27161,2.27161,0,0,1-2.08984,2.55664v.10352a2.65543,2.65543,0,0,1,2.52246,2.81543,3.245,3.245,0,0,1-3.10938,3.47168h-5.873Zm1.95214,5.09571h3.02247a1.35149,1.35149,0,0,0,1.5205-1.4336V8.03711a1.351,1.351,0,0,0-1.5205-1.43359h-3.02247Zm0,5.28515h3.35059a1.45036,1.45036,0,0,0,1.624-1.53711v-.58691a1.45037,1.45037,0,0,0-1.624-1.53711h-3.35059Z" transform="translate(-0.63037 -1.87207)"/>
          <path class="cls-9" d="M1355.8916,12.49316c0-2.86718,1.57129-4.69824,4.12793-4.69824,2.64258,0,3.99024,1.98633,3.99024,4.47363v.709h-6.167v.293a2.20351,2.20351,0,0,0,2.36621,2.36621,2.63375,2.63375,0,0,0,2.36719-1.34668l1.10547,1.08789a4.16772,4.16772,0,0,1-3.66211,1.81348C1357.46289,17.19141,1355.8916,15.36035,1355.8916,12.49316Zm1.95117-.88086v.1211h4.18067v-.17285a2.02108,2.02108,0,0,0-2.00391-2.29688A2.16191,2.16191,0,0,0,1357.84277,11.6123Z" transform="translate(-0.63037 -1.87207)"/>
          <path class="cls-9" d="M1368.01562,16.98438a1.70759,1.70759,0,0,1-1.917-1.86524V4.20215h1.88282V15.44727h1.24316v1.53711Z" transform="translate(-0.63037 -1.87207)"/>
          <path class="cls-9" d="M1370.417,12.49316c0-2.86718,1.62305-4.69824,4.12793-4.69824s4.12793,1.83106,4.12793,4.69824-1.623,4.69825-4.12793,4.69825S1370.417,15.36035,1370.417,12.49316Zm6.26953.75977V11.7334c0-1.58887-.86328-2.38379-2.1416-2.38379s-2.1416.79492-2.1416,2.38379v1.51953c0,1.58984.86328,2.38379,2.1416,2.38379S1376.68652,14.84277,1376.68652,13.25293Z" transform="translate(-0.63037 -1.87207)"/>
          <path class="cls-9" d="M1384.97656,4.92773h2.31446l3.23046,6.13184h.10352l3.23047-6.13184h2.21094V16.98438h-1.86621V7.76074h-.08594l-.9502,1.95215-2.64258,4.81836-2.64257-4.81836-.9502-1.95215h-.08691v9.22364h-1.86524Z" transform="translate(-0.63037 -1.87207)"/>
          <path class="cls-9" d="M1398.294,12.49316c0-2.86718,1.623-4.69824,4.12793-4.69824s4.12792,1.83106,4.12792,4.69824-1.623,4.69825-4.12792,4.69825S1398.294,15.36035,1398.294,12.49316Zm6.26953.75977V11.7334c0-1.58887-.86328-2.38379-2.1416-2.38379s-2.14161.79492-2.14161,2.38379v1.51953c0,1.58984.86328,2.38379,2.14161,2.38379S1404.56348,14.84277,1404.56348,13.25293Z" transform="translate(-0.63037 -1.87207)"/>
          <path class="cls-9" d="M1408.64062,16.98438V8.00293h1.88282V9.48828h.08594a2.50378,2.50378,0,0,1,2.52148-1.69336c1.83105,0,2.91992,1.27832,2.91992,3.48926v5.7002H1414.168v-5.458c0-1.39942-.53613-2.10742-1.69336-2.10742-.98438,0-1.95117.501-1.95117,1.55468v6.01075Z" transform="translate(-0.63037 -1.87207)"/>
          <path class="cls-9" d="M1421.14551,16.98438a1.784,1.784,0,0,1-1.98633-1.95215V9.54h-1.39941V8.00293h.75976c.62207,0,.8291-.25977.8291-.88184V5.5498h1.69239V8.00293h1.88281V9.54H1421.041v5.90723h1.74511v1.53711Z" transform="translate(-0.63037 -1.87207)"/>
          <path class="cls-9" d="M1424.28809,12.49316c0-2.86718,1.57129-4.69824,4.12793-4.69824,2.64257,0,3.99023,1.98633,3.99023,4.47363v.709h-6.167v.293a2.20351,2.20351,0,0,0,2.36621,2.36621,2.63376,2.63376,0,0,0,2.36719-1.34668l1.10546,1.08789a4.16769,4.16769,0,0,1-3.6621,1.81348C1425.85938,17.19141,1424.28809,15.36035,1424.28809,12.49316Zm1.95117-.88086v.1211h4.18066v-.17285a2.02108,2.02108,0,0,0-2.0039-2.29688A2.16191,2.16191,0,0,0,1426.23926,11.6123Z" transform="translate(-0.63037 -1.87207)"/>
        </g>
        <rect class="cls-3" x="1273.97371" y="0.44883" width="15.50855" height="15.50855" rx="4.57576"/>
      </g>
    </g>
  </g>
</svg>
