<?xml version="1.0" encoding="utf-8"?>
<!-- Generator: Adobe Illustrator 23.0.1, SVG Export Plug-In . SVG Version: 6.00 Build 0)  -->
<svg version="1.1" id="Livello_1" xmlns="http://www.w3.org/2000/svg" xmlns:xlink="http://www.w3.org/1999/xlink" x="0px" y="0px"
	 viewBox="0 0 73.9 69.8" style="enable-background:new 0 0 73.9 69.8;" xml:space="preserve">
<style type="text/css">
	.st0{fill:#FFFFFF;}
	.st1{fill:none;stroke:#000000;stroke-width:2;stroke-linecap:round;stroke-linejoin:round;}
</style>
<title>Asset 12</title>
<polygon class="st0" points="0.8,32.8 5.2,36.6 5.5,36.6 12.4,29.1 12.4,29.5 12.4,69 61.7,69.1 61.5,29 68.5,36.6 68.8,36.5 
	73.2,32.6 44,0.8 29.8,0.9 0.8,32.5 "/>
<polygon class="st1" points="68.6,36.4 72.9,32.6 44,1 29.9,1 1,32.6 5.3,36.4 31.4,8.3 42.3,8.3 "/>
<path class="st1" d="M37.1,68.6l24.2,0.2V29.3H12.6v39.5l24.2-0.2H37.1z"/>
<path d="M37,46.8c1,0.1,7.1,0.8,7.1,9.6v10.9H29.9V56.4C29.9,47.6,35.9,46.9,37,46.8 M37,44.8c0,0-0.1,0-0.1,0
	c-0.9,0.1-8.9,0.9-8.9,11.6v10.9c0,1.1,0.9,2,2,2H44c1.1,0,2-0.9,2-2V56.4c0-10.7-8-11.5-8.9-11.6C37,44.8,37,44.8,37,44.8z"/>
<line class="st1" x1="37" y1="8.3" x2="37" y2="29.3"/>
<circle class="st1" cx="41.2" cy="57.4" r="0.2"/>
<line class="st1" x1="21.1" y1="19.4" x2="52" y2="19.4"/>
<line class="st1" x1="12.6" y1="33.7" x2="61.4" y2="33.7"/>
</svg>
