<svg xmlns="http://www.w3.org/2000/svg" viewBox="0 0 54.32535 70.31714">
  <defs>
    <style>
      .cls-1 {
        fill: #fff;
      }
    </style>
  </defs>
  <title>Asset 4</title>
  <g id="Layer_2" data-name="Layer 2">
    <g id="Layer_1-2" data-name="Layer 1">
      <g>
        <g>
          <path d="M6.80331,52.69861a1.00009,1.00009,0,0,1-.95361-.7002L2.55331,41.50964a.9888.9888,0,0,1-.04052-.1958L2.0455,36.85632a1,1,0,0,1,1.38086-1.02685c.61377.25683,1.27588.50488,1.96826.73779a.999.999,0,0,1,.64746.69092A51.78718,51.78718,0,0,1,7.80331,51.72107a1,1,0,0,1-.85888.96777A1.06541,1.06541,0,0,1,6.80331,52.69861Z"/>
          <path class="cls-1" d="M3.04,36.75171c.66766.27942,1.34723.53186,2.03586.76337A50.56568,50.56568,0,0,1,6.80377,51.69843L3.50726,41.20984,3.04,36.75171m.00021-2a2.00006,2.00006,0,0,0-1.98932,2.2085l.46729,4.45813a2.00172,2.00172,0,0,0,.08111.39119L4.89578,52.2981a2,2,0,0,0,3.9075-.55484,52.79471,52.79471,0,0,0-1.79455-14.742,2,2,0,0,0-1.29556-1.382c-.66929-.225-1.3089-.46476-1.90107-.7126a1.99842,1.99842,0,0,0-.77191-.15506Z"/>
        </g>
        <g>
          <path d="M11.48056,61.224a1.00083,1.00083,0,0,1-.72168-.30762,22.59117,22.59117,0,0,1-2.00049-2.38183.998.998,0,0,1-.18017-.72559,52.08515,52.08515,0,0,0-.86817-19.09912.99992.99992,0,0,1,.97412-1.22559,1.02638,1.02638,0,0,1,.19971.02c1.06885.21778,2.02979.36914,2.93848.4624.13281.01368.26513.021.39795.02833l.33252.022a.99957.99957,0,0,1,.90771.83886A52.87148,52.87148,0,0,1,12.44931,60.473a1.00008,1.00008,0,0,1-.96875.751Z"/>
          <path class="cls-1" d="M8.684,38.48407c.995.2027,2.00372.37115,3.03629.47736.25015.02575.50222.03234.75311.05206a51.81,51.81,0,0,1-.9928,21.21045,21.4789,21.4789,0,0,1-1.9122-2.27521A52.97409,52.97409,0,0,0,8.684,38.48407m0-2a2.00006,2.00006,0,0,0-1.94833,2.45164,51.09125,51.09125,0,0,1,.85232,18.734,2.0001,2.0001,0,0,0,.36,1.45125A23.54879,23.54879,0,0,0,10.0379,61.609a2,2,0,0,0,3.37982-.88733,53.87278,53.87278,0,0,0,1.03074-22.02333,2,2,0,0,0-1.81836-1.67873c-.116-.00911-.23227-.01591-.34851-.02255-.119-.00682-.238-.01294-.35639-.02513-.8761-.0901-1.80563-.23651-2.84192-.44762A2.00061,2.00061,0,0,0,8.684,36.484Z"/>
        </g>
        <g>
          <path d="M47.523,52.69861a1.07257,1.07257,0,0,1-.1416-.00977,1.00129,1.00129,0,0,1-.85938-.96777,51.77277,51.77277,0,0,1,1.76075-14.46289,1.0013,1.0013,0,0,1,.64843-.69092c.69141-.23242,1.35352-.481,1.96875-.73779a.99957.99957,0,0,1,1.37989,1.02685l-.46778,4.458a1.01841,1.01841,0,0,1-.04.19531L48.47617,51.99841A1.0004,1.0004,0,0,1,47.523,52.69861Z"/>
          <path class="cls-1" d="M51.2854,36.75171h.005m-.005,0-.46728,4.45813L47.52161,51.69843a50.56527,50.56527,0,0,1,1.7279-14.18335c.68866-.23151,1.36823-.484,2.03589-.76337m-.00021-2q-.03837,0-.07672.00147a1.99,1.99,0,0,0-.73472.1701c-.58111.242-1.20718.47609-1.86154.69608a2,2,0,0,0-1.29559,1.382,52.79456,52.79456,0,0,0-1.79453,14.742,2,2,0,0,0,3.90751.55484l3.2965-10.48859a2.00174,2.00174,0,0,0,.08112-.39119l.45645-4.35478a2.00136,2.00136,0,0,0-1.96878-2.31183l-.0097,0Zm.00021,4h0Z"/>
        </g>
        <g>
          <path d="M42.84433,61.224a1.00008,1.00008,0,0,1-.96875-.751,52.86961,52.86961,0,0,1-1.01074-21.61719.99969.99969,0,0,1,.9082-.83935l.332-.02148c.13281-.00733.26465-.01465.39746-.02833.90821-.09326,1.86914-.24462,2.93946-.4624a1.02134,1.02134,0,0,1,.19921-.02.99992.99992,0,0,1,.97461,1.22559,52.11839,52.11839,0,0,0-.86914,19.09961.99929.99929,0,0,1-.17968.7251,22.54234,22.54234,0,0,1-2.001,2.38232A1.00229,1.00229,0,0,1,42.84433,61.224Z"/>
          <path class="cls-1" d="M45.64133,38.48407h.005m-.005,0a52.97388,52.97388,0,0,0-.8844,19.46466,21.47563,21.47563,0,0,1-1.91223,2.27521,51.8105,51.8105,0,0,1-.99277-21.21045c.25088-.01972.503-.02631.75311-.05206,1.03253-.10621,2.04129-.27466,3.03629-.47736m0-2q-.041,0-.082.00168a2.00305,2.00305,0,0,0-.357.04667c-1.02029.20676-1.93725.35061-2.80194.43953-.11865.01221-.23767.01833-.35663.02515-.11624.00664-.23248.01344-.34851.02255a2,2,0,0,0-1.81836,1.67873,53.87288,53.87288,0,0,0,1.0307,22.02331,2,2,0,0,0,3.37983.88738,23.54656,23.54656,0,0,0,2.09-2.48811,2.0001,2.0001,0,0,0,.36-1.45125,51.084,51.084,0,0,1,.82928-18.63414,2.0011,2.0011,0,0,0-1.90921-2.55144l-.01608-.00006Zm0,4h0Z"/>
        </g>
        <g>
          <path d="M39.39511,37.13464a28.683,28.683,0,0,1-6.09961-.64843A16.64077,16.64077,0,0,1,30.37363,35.433a11.6483,11.6483,0,0,0-2.9336-.99121l-.46386-.00342a11.23082,11.23082,0,0,0-3.02442.99463,16.64077,16.64077,0,0,1-2.92187,1.05323,28.68522,28.68522,0,0,1-6.09912.64843q-.83643,0-1.67188-.04687A27.99672,27.99672,0,0,1,2.22177,34.118a1.00088,1.00088,0,0,1-.54639-.79l-.42822-4.08545a.98354.98354,0,0,1,.00537-.24853,22.84439,22.84439,0,0,1-.25244-3.374c0-13.3125,11.3291-24.09131,25.8208-24.60157a.97933.97933,0,0,1,.18848-.01855c.00586,0,.11719.0039.12891.00439,0,0,.17285-.00439.17871-.00439a.99368.99368,0,0,1,.19433.019C41.9996,1.53259,53.32578,12.30994,53.32578,25.62a22.89271,22.89271,0,0,1-.25489,3.38964.84784.84784,0,0,1,.00684.2334L52.649,33.32849a.99921.99921,0,0,1-.5459.78955A27.98573,27.98573,0,0,1,41.066,37.08777Q40.231,37.13465,39.39511,37.13464ZM30.86,28.202a8.11455,8.11455,0,0,0,5.63477,2.32177c3.71777,0,5.24121-.4497,7.05176-1.8999a14.012,14.012,0,0,0-6.78809-1.89111A11.65556,11.65556,0,0,0,30.86,28.202ZM10.77548,28.622c1.8125,1.45166,3.33545,1.90185,7.05518,1.90185a8.15265,8.15265,0,0,0,5.63183-2.32373,11.65989,11.65989,0,0,0-5.896-1.46728A13.95187,13.95187,0,0,0,10.77548,28.622Z"/>
          <path class="cls-1" d="M27.31729,2v.013c13.88709.417,25.00806,10.81958,25.00806,23.60706a21.79473,21.79473,0,0,1-.28656,3.51629l.04458.00232-.42822,4.08545a26.92915,26.92915,0,0,1-10.645,2.86511q-.80667.04525-1.61493.04535a27.6595,27.6595,0,0,1-5.88641-.62549c-1.92331-.41943-4.14032-1.86554-5.9624-2.06152a1.84764,1.84764,0,0,0-.19727-.00918c-.06216,0-.1243.0019-.18643.00332-.06217-.00142-.12427-.00332-.18643-.00332a1.8482,1.8482,0,0,0-.1973.00918c-1.82205.196-4.03906,1.64209-5.96237,2.06152a27.65763,27.65763,0,0,1-5.88641.62549q-.80773,0-1.61493-.04535a26.92906,26.92906,0,0,1-10.645-2.86511L2.242,29.13867l.04459-.00232A21.79132,21.79132,0,0,1,2,25.62006C2,12.83258,13.121,2.43,27.00809,2.013V2c.05185.001.10281.00519.1546.00647.05179-.00128.10275-.00549.1546-.00647m9.17725,29.52393c4.62237,0,6.20718-.72388,8.71643-3.01612a15.04311,15.04311,0,0,0-8.4523-2.77484c-4.88651,0-7.39575,2.29224-7.39575,2.29224a9.25879,9.25879,0,0,0,7.13162,3.49872m-18.6637,0a9.25877,9.25877,0,0,0,7.13159-3.49872S22.45319,25.733,17.56671,25.733a15.04326,15.04326,0,0,0-8.45233,2.77484c2.50928,2.29224,4.09409,3.01612,8.71646,3.01612M27.00806,0a1.99974,1.99974,0,0,0-.29468.02182C11.71472.58441,0,11.78734,0,25.62006a23.85866,23.85866,0,0,0,.247,3.412,1.84707,1.84707,0,0,0,.00589.31513L.68112,33.4326a1.99993,1.99993,0,0,0,1.09244,1.57924,28.98556,28.98556,0,0,0,11.42966,3.07425c.5736.03218,1.1546.04849,1.727.04849a29.67975,29.67975,0,0,0,6.31253-.6714,17.4063,17.4063,0,0,0,3.10559-1.11192,11.13431,11.13431,0,0,1,2.64456-.91515l.08349.00411c.02347.00058.06778.00123.10187.00123l.03025-.00026.14065-.0028a11.17054,11.17054,0,0,1,2.628.91288,17.40729,17.40729,0,0,0,3.10553,1.11191,29.68,29.68,0,0,0,6.31256.6714c.57239,0,1.15341-.01631,1.72693-.04849a28.98556,28.98556,0,0,0,11.42969-3.07425,1.99993,1.99993,0,0,0,1.09244-1.57924l.42822-4.08543a2.00272,2.00272,0,0,0,.00745-.32595,23.86294,23.86294,0,0,0,.24542-3.40116c0-13.83442-11.71851-25.03843-26.71979-25.59848A1.954,1.954,0,0,0,27.31625,0l-.03668.00034L27.15967.005,27.04581.00035,27.00806,0Zm5.727,28.41162a11.54308,11.54308,0,0,1,4.02356-.67865,12.423,12.423,0,0,1,4.79361,1.01833c-1.14084.56064-2.53327.77263-5.05774.77263a6.91972,6.91972,0,0,1-3.75943-1.11231Zm-19.96225.33955a12.42634,12.42634,0,0,1,4.79385-1.0182,11.54049,11.54049,0,0,1,4.023.67963,6.924,6.924,0,0,1-3.75888,1.11133c-2.52472,0-3.91708-.212-5.058-.77276Z"/>
        </g>
        <g>
          <path d="M27.00839,69.31726a1.01254,1.01254,0,0,1-.27344-.03809c-3.835-.24218-8.96826-2.50585-13.16015-5.8164a.99973.99973,0,0,1-.34033-1.06494A54.12347,54.12347,0,0,0,14.794,39.25574a.99993.99993,0,0,1,.96338-1.144,30.54861,30.54861,0,0,0,4.2041-.39794,19.08318,19.08318,0,0,0,2.89062-.82764,17.24988,17.24988,0,0,1,3.875-.99756.9319.9319,0,0,1,.28223-.04443c.00293,0,.16016.00879.19336.01269.0332-.0039.07129-.01221.10449-.01269H27.317a.99626.99626,0,0,1,.2998.04589,17.3451,17.3451,0,0,1,3.85645.99659,19.07817,19.07817,0,0,0,2.89062.82715,30.54134,30.54134,0,0,0,4.2041.39794,1,1,0,0,1,.96289,1.14405A54.1261,54.1261,0,0,0,41.0914,62.39783a1.00035,1.00035,0,0,1-.33984,1.06494c-4.19825,3.31543-9.34082,5.58056-13.17774,5.81738a.91409.91409,0,0,1-.25781.03711c-.00293,0-.15625-.00879-.18945-.01269-.03321.0039-.07422.0122-.1084.01269ZM25.93613,54.43494c-.91211,0-1.80957.02539-2.668.07568a.59172.59172,0,0,0-.6377.61523c.00977.34571.248.39014.4541.39014.98633-.05566,1.93653-.083,2.89063-.083q.605,0,1.21094.01416c.35644-.00927.76074-.01416,1.16406-.01416.9541,0,1.9043.02735,2.82422.08057l.0166.00049c.26562,0,.49414-.04981.50391-.38819a.59172.59172,0,0,0-.6377-.61523c-.8584-.05029-1.75586-.07568-2.668-.07568q-.52587,0-1.05176.01074l-.25683.00146C26.63437,54.43835,26.28476,54.43494,25.93613,54.43494ZM29.982,42.6947c-.26563,0-.43458.1499-.43458.228s.16895.228.43458.228c.26464,0,.43359-.14991.43359-.228S30.24667,42.6947,29.982,42.6947Zm-5.63868,0c-.26465,0-.43359.1499-.43359.228s.16894.228.43359.228c.26563,0,.43457-.14991.43457-.228S24.609,42.6947,24.34335,42.6947Z"/>
          <path class="cls-1" d="M27.31729,36.84424v.02514c2.21662.13959,4.64383,1.45679,6.882,1.83051a31.37968,31.37968,0,0,0,4.34216.41144,55.02165,55.02165,0,0,0,1.58963,23.56659c-4.22134,3.33349-9.33239,5.46722-12.81378,5.61444v.02478c-.04858-.00043-.10538-.01111-.1546-.01239-.04926.00128-.106.012-.1546.01239v-.02478c-3.48139-.14722-8.59244-2.281-12.81378-5.61444a55.02212,55.02212,0,0,0,1.58963-23.56659,31.37939,31.37939,0,0,0,4.34213-.41144c2.23819-.37372,4.6654-1.69092,6.882-1.83051v-.02514c.0509.00055.10348.01062.1546.01257.05112-.002.1037-.012.1546-.01257m2.6644,7.30658a1.243,1.243,0,1,0-1.43408-1.22815,1.34318,1.34318,0,0,0,1.43408,1.22815m-5.638,0a1.243,1.243,0,1,0-1.43408-1.22815,1.34318,1.34318,0,0,0,1.43408,1.22815m2.9736,9.29675-.0495-.00055-.05871.00017-.04639-.00047-.04639.00047-.05871-.00017-.0495.00055v-.00171q-.53791-.0108-1.07608-.011c-.90573,0-1.81287.024-2.72208.07713-2.05649.12015-2.11246,3.00371-.12518,3.00371q.06124,0,.12518-.00371,1.384-.08087,2.762-.07922.5956,0,1.19077.01392.59509-.01378,1.19076-.01392,1.37852,0,2.762.07922c.04269.00251.08423.00371.12518.00371,1.98691,0,1.93118-2.88356-.12518-3.00371-.9093-.05316-1.81629-.07713-2.72208-.07713q-.53828,0-1.07608.011v.00171m-.30923-18.60333a1.99968,1.99968,0,0,0-.48188.05891,18.45731,18.45731,0,0,0-3.99527,1.03629,18.42614,18.42614,0,0,1-2.73422.78776,29.46744,29.46744,0,0,1-4.06521.38481,2,2,0,0,0-1.92658,2.28811,53.13462,53.13462,0,0,1-1.53046,22.71737,2,2,0,0,0,.68039,2.13c4.31369,3.40645,9.624,5.74458,13.64246,6.02472a1.92062,1.92062,0,0,0,.41171.04489l.01679-.00008c.0441-.00039.09021-.00227.1373-.00538q.07131.00473.1365.00538l.01773.00008a1.99923,1.99923,0,0,0,.42642-.046c4.0167-.28494,9.31852-2.62145,13.6268-6.02362a2,2,0,0,0,.68039-2.13,53.13426,53.13426,0,0,1-1.53045-22.71736A2,2,0,0,0,38.5939,37.112a29.46743,29.46743,0,0,1-4.06524-.38481,18.4261,18.4261,0,0,1-2.7342-.78776,18.36564,18.36564,0,0,0-4.01556-1.03836,1.92372,1.92372,0,0,0-.46277-.05683l-.02045.00011c-.04409.00047-.08859.00232-.13333.00523-.04513-.003-.08911-.00476-.13266-.00523l-.02163-.00012Z"/>
        </g>
      </g>
    </g>
  </g>
</svg>
