<?xml version="1.0" encoding="utf-8"?>
<!-- Generator: Adobe Illustrator 23.0.1, SVG Export Plug-In . SVG Version: 6.00 Build 0)  -->
<svg version="1.1" id="Livello_1" xmlns="http://www.w3.org/2000/svg" xmlns:xlink="http://www.w3.org/1999/xlink" x="0px" y="0px"
	 viewBox="0 0 54.3 70.3" style="enable-background:new 0 0 54.3 70.3;" xml:space="preserve">
<style type="text/css">
	.st0{fill:#FF0000;}
</style>
<title>Asset 4</title>
<path class="st0" d="M6.8,52.7c-0.4,0-0.8-0.3-1-0.7L2.6,41.5c0-0.1,0-0.1,0-0.2L2,36.9c-0.1-0.5,0.3-1,0.9-1.1c0.2,0,0.3,0,0.5,0.1
	c0.6,0.3,1.3,0.5,2,0.7C5.7,36.7,6,36.9,6,37.3c1.3,4.7,1.9,9.6,1.8,14.5C7.8,52.3,7.4,52.7,6.8,52.7C6.9,52.7,6.9,52.7,6.8,52.7z"
	/>
<path class="st0" d="M11.5,61.2c-0.3,0-0.5-0.1-0.7-0.3c-0.7-0.7-1.4-1.5-2-2.4c-0.2-0.2-0.2-0.5-0.2-0.7C9.5,51.4,9.2,45,7.7,38.7
	c-0.1-0.5,0.2-1.1,0.7-1.2c0.1,0,0.1,0,0.2,0c0.1,0,0.1,0,0.2,0c1.1,0.2,2,0.4,2.9,0.5c0.1,0,0.3,0,0.4,0h0.3c0.5,0,0.8,0.4,0.9,0.8
	c1.2,7.2,0.8,14.6-1,21.6C12.3,60.9,11.9,61.2,11.5,61.2z"/>
<path class="st0" d="M47.5,52.7L47.5,52.7c-0.6-0.1-0.9-0.5-1-1c-0.1-4.9,0.5-9.7,1.8-14.5c0.1-0.3,0.3-0.6,0.6-0.7
	c0.7-0.2,1.4-0.5,2-0.7c0.5-0.2,1.1,0,1.3,0.5c0.1,0.2,0.1,0.3,0.1,0.5l-0.5,4.5c0,0.1,0,0.1,0,0.2L48.5,52
	C48.3,52.4,48,52.7,47.5,52.7z"/>
<path class="st0" d="M42.8,61.2c-0.5,0-0.9-0.3-1-0.8c-1.8-7.1-2.2-14.4-1-21.6c0.1-0.5,0.4-0.8,0.9-0.8H42c0.1,0,0.3,0,0.4,0
	c0.9-0.1,1.9-0.2,2.9-0.5c0.1,0,0.1,0,0.2,0c0.6,0,1,0.4,1,1c0,0.1,0,0.2,0,0.2C45,45,44.7,51.4,45.6,57.8c0,0.3,0,0.5-0.2,0.7
	c-0.6,0.8-1.3,1.6-2,2.4C43.4,61.1,43.1,61.2,42.8,61.2z"/>
<path class="st0" d="M39.4,37.1c-2.1,0-4.1-0.2-6.1-0.6c-1-0.3-2-0.6-2.9-1.1s-1.9-0.8-2.9-1H27c-1.1,0.2-2.1,0.5-3,1
	c-1,0.5-2,0.8-3,1.1c-2,0.4-4,0.7-6.1,0.6c-0.6,0-1.1,0-1.7,0c-3.8-0.2-7.6-1.2-11-3c-0.3-0.2-0.5-0.5-0.5-0.8l-0.4-4.1
	c0-0.1,0-0.2,0-0.2C1.1,27.9,1,26.7,1,25.6C1,12.3,12.3,1.5,26.8,1c0.1,0,0.1,0,0.2,0h0.1h0.2c0.1,0,0.1,0,0.2,0
	C42,1.5,53.3,12.3,53.3,25.6c0,1.1-0.1,2.3-0.3,3.4c0,0.1,0,0.2,0,0.2l-0.4,4.1c0,0.3-0.2,0.6-0.5,0.8c-3.4,1.7-7.2,2.7-11,3
	C40.5,37.1,40,37.1,39.4,37.1z M30.9,28.2c1.5,1.5,3.5,2.3,5.6,2.3c3.7,0,5.2-0.4,7.1-1.9c-2.1-1.2-4.4-1.8-6.8-1.9
	C34.7,26.7,32.7,27.2,30.9,28.2z M10.8,28.6c1.8,1.5,3.3,1.9,7.1,1.9c2.1,0,4.1-0.9,5.6-2.3c-1.8-1-3.8-1.5-5.9-1.5
	C15.2,26.8,12.8,27.4,10.8,28.6z"/>
<path class="st0" d="M27,69.3c-0.1,0-0.2,0-0.3,0c-3.8-0.2-9-2.5-13.2-5.8c-0.3-0.3-0.5-0.7-0.3-1.1c2.2-7.5,2.7-15.4,1.6-23.1
	c-0.1-0.5,0.3-1.1,0.8-1.1h0.1c1.4,0,2.8-0.2,4.2-0.4c1-0.2,2-0.5,2.9-0.8c1.2-0.5,2.5-0.8,3.9-1c0.1,0,0.2,0,0.3,0h0.2h0.1l0,0
	c0.1,0,0.2,0,0.3,0c1.3,0.2,2.6,0.5,3.9,1c0.9,0.4,1.9,0.6,2.9,0.8c1.4,0.2,2.8,0.4,4.2,0.4c0.6,0,1,0.5,1,1v0.1
	C38.4,47,39,54.9,41.2,62.4c0.1,0.4,0,0.8-0.3,1.1c-4.2,3.3-9.3,5.6-13.2,5.8c-0.1,0-0.2,0-0.3,0h-0.2C27.1,69.3,27.1,69.3,27,69.3
	L27,69.3z M25.9,54.4c-0.9,0-1.8,0-2.7,0.1c-0.3,0-0.6,0.2-0.6,0.5c0,0,0,0,0,0.1c0,0.3,0.2,0.4,0.5,0.4c1-0.1,1.9-0.1,2.9-0.1
	c0.4,0,0.8,0,1.2,0c0.4,0,0.8,0,1.2,0c1,0,1.9,0,2.8,0.1l0,0c0.3,0,0.5,0,0.5-0.4c0-0.3-0.2-0.6-0.6-0.6c0,0,0,0-0.1,0
	c-0.9-0.1-1.8-0.1-2.7-0.1c-0.4,0-0.7,0-1.1,0h-0.3C26.6,54.4,26.3,54.4,25.9,54.4z M30,42.7c-0.3,0-0.4,0.1-0.4,0.2
	s0.2,0.2,0.4,0.2c0.3,0,0.4-0.1,0.4-0.2S30.2,42.7,30,42.7z M24.3,42.7c-0.3,0-0.4,0.1-0.4,0.2s0.2,0.2,0.4,0.2
	c0.3,0,0.4-0.1,0.4-0.2S24.6,42.7,24.3,42.7L24.3,42.7z"/>
<path d="M3,36.8c0.7,0.3,1.3,0.5,2,0.8c1.2,4.6,1.8,9.4,1.7,14.2L3.5,41.2L3,36.8 M3,34.8c-1.1,0-2,0.9-2,2c0,0.1,0,0.1,0,0.2
	l0.5,4.5c0,0.1,0,0.3,0.1,0.4l3.3,10.5c0.3,1.1,1.5,1.6,2.5,1.3c0.8-0.3,1.4-1,1.4-1.9c0.1-5-0.5-9.9-1.8-14.7
	c-0.2-0.6-0.7-1.2-1.3-1.4C5,35.5,4.4,35.2,3.8,35C3.6,34.8,3.3,34.8,3,34.8L3,34.8z"/>
<path d="M8.7,38.5c1,0.2,2,0.4,3,0.5c0.3,0,0.5,0,0.8,0.1c1.1,7.1,0.8,14.3-1,21.2c-0.7-0.7-1.3-1.5-1.9-2.3
	C10.5,51.5,10.2,44.9,8.7,38.5 M8.7,36.5c-1.1,0-2,0.9-2,2c0,0.2,0,0.3,0.1,0.5c1.4,6.1,1.7,12.5,0.9,18.7c-0.1,0.5,0.1,1,0.4,1.5
	c0.6,0.9,1.3,1.7,2.1,2.5c0.8,0.8,2,0.8,2.8,0.1c0.3-0.3,0.5-0.6,0.6-0.9c1.9-7.2,2.2-14.7,1-22c-0.1-0.9-0.9-1.6-1.8-1.7
	c-0.1,0-0.2,0-0.3,0s-0.2,0-0.4,0c-0.9-0.1-1.8-0.2-2.8-0.4C9,36.5,8.8,36.5,8.7,36.5L8.7,36.5z"/>
<path d="M51.3,36.8L51.3,36.8 M51.3,36.8l-0.5,4.5l-3.3,10.5c-0.1-4.8,0.5-9.6,1.7-14.2C49.9,37.3,50.6,37,51.3,36.8 M51.3,34.8
	C51.3,34.8,51.2,34.8,51.3,34.8c-0.3,0-0.6,0.1-0.8,0.2c-0.6,0.2-1.2,0.5-1.9,0.7c-0.6,0.2-1.1,0.7-1.3,1.4
	c-1.3,4.8-1.9,9.8-1.8,14.7c0,1.1,0.9,2,2,2c0.9,0,1.6-0.6,1.9-1.4l3.3-10.5c0-0.1,0.1-0.3,0.1-0.4l0.5-4.4c0.2-1.1-0.6-2.1-1.7-2.3
	C51.5,34.8,51.4,34.8,51.3,34.8L51.3,34.8L51.3,34.8z M51.3,38.8L51.3,38.8z"/>
<path d="M45.6,38.5L45.6,38.5 M45.6,38.5c-1.5,6.4-1.8,13-0.9,19.5c-0.6,0.8-1.2,1.6-1.9,2.3c-1.8-6.9-2.1-14.1-1-21.2
	c0.3,0,0.5,0,0.8-0.1C43.6,38.9,44.6,38.7,45.6,38.5 M45.6,36.5L45.6,36.5c-0.2,0-0.3,0-0.4,0c-1,0.2-1.9,0.4-2.8,0.4
	c-0.1,0-0.2,0-0.4,0c-0.1,0-0.2,0-0.3,0c-0.9,0.1-1.7,0.8-1.8,1.7c-1.2,7.3-0.8,14.8,1,22c0.3,1.1,1.4,1.7,2.4,1.4
	c0.4-0.1,0.7-0.3,0.9-0.6c0.8-0.8,1.5-1.6,2.1-2.5c0.3-0.4,0.4-0.9,0.4-1.5c-0.9-6.2-0.6-12.5,0.8-18.6c0.3-1.1-0.3-2.2-1.4-2.5
	C46,36.5,45.8,36.5,45.6,36.5L45.6,36.5L45.6,36.5z M45.6,40.5L45.6,40.5z"/>
<path d="M27.3,2L27.3,2c13.9,0.4,25,10.8,25,23.6c0,1.2-0.1,2.4-0.3,3.5l0,0l-0.4,4.1c-3.3,1.7-6.9,2.7-10.6,2.9c-0.5,0-1.1,0-1.6,0
	c-2,0-4-0.2-5.9-0.6c-1.9-0.4-4.1-1.9-6-2.1c-0.1,0-0.1,0-0.2,0s-0.1,0-0.2,0s-0.1,0-0.2,0s-0.1,0-0.2,0c-1.8,0.2-4,1.6-6,2.1
	c-1.9,0.4-3.9,0.6-5.9,0.6c-0.5,0-1.1,0-1.6,0C9.6,35.9,6,34.9,2.7,33.2l-0.4-4.1l0,0C2.1,28,2,26.8,2,25.6C2,12.8,13.1,2.4,27,2
	l0,0C27.1,2,27.1,2,27.3,2L27.3,2 M36.5,31.5c4.6,0,6.2-0.7,8.7-3c-2.5-1.8-5.4-2.7-8.5-2.8c-4.9,0-7.4,2.3-7.4,2.3
	C31.1,30.2,33.7,31.5,36.5,31.5 M17.8,31.5c2.8,0,5.4-1.3,7.1-3.5c0,0-2.5-2.3-7.4-2.3c-3,0.1-6,1-8.5,2.8
	C11.6,30.8,13.2,31.5,17.8,31.5 M27,0c-0.1,0-0.2,0-0.3,0C11.7,0.6,0,11.8,0,25.6c0,1.1,0.1,2.3,0.2,3.4c0,0.1,0,0.2,0,0.3l0.4,4.1
	c0.1,0.7,0.5,1.3,1.1,1.6c3.6,1.8,7.4,2.8,11.4,3.1c0.6,0,1.2,0,1.7,0c2.1,0,4.2-0.2,6.3-0.7c1.1-0.3,2.1-0.6,3.1-1.1
	c0.8-0.4,1.7-0.7,2.6-0.9h0.1H27l0,0h0.1c0.9,0.2,1.8,0.5,2.6,0.9c1,0.5,2,0.8,3.1,1.1c2.1,0.4,4.2,0.7,6.3,0.7c0.6,0,1.2,0,1.7,0
	c4-0.2,7.9-1.3,11.4-3.1c0.6-0.3,1-0.9,1.1-1.6l0.4-4.1c0-0.1,0-0.2,0-0.3c0.2-1.1,0.2-2.3,0.2-3.4c0-13.8-11.7-25-26.7-25.6
	c-0.1,0-0.2,0-0.3,0l0,0h-0.1L27,0L27,0z M32.7,28.4c1.3-0.5,2.7-0.7,4-0.7c1.6,0,3.3,0.4,4.8,1c-1.1,0.6-2.5,0.8-5.1,0.8
	C35.2,29.5,33.9,29.1,32.7,28.4z M12.8,28.8c1.5-0.7,3.1-1,4.8-1c1.4,0,2.7,0.2,4,0.7c-1.1,0.7-2.4,1.1-3.8,1.1
	C15.3,29.5,13.9,29.3,12.8,28.8L12.8,28.8z"/>
<path d="M27.3,36.8L27.3,36.8c2.2,0.2,4.6,1.5,6.9,1.9c1.4,0.2,2.9,0.4,4.3,0.4C37.4,47,37.9,55,40.1,62.7
	c-4.2,3.3-9.3,5.5-12.8,5.6l0,0c0,0-0.1,0-0.2,0c0,0-0.1,0-0.2,0l0,0c-3.5-0.1-8.6-2.3-12.8-5.6C16.4,55,17,47,15.8,39.1
	c1.5,0,2.9-0.2,4.3-0.4c2.2-0.4,4.7-1.7,6.9-1.8l0,0C27.1,36.9,27.1,36.9,27.3,36.8C27.2,36.9,27.3,36.8,27.3,36.8 M30,44.2
	c0.7-0.1,1.1-0.7,1-1.4s-0.7-1.1-1.4-1c-0.6,0.1-1.1,0.6-1.1,1.2C28.6,43.7,29.2,44.2,30,44.2 M24.3,44.2c0.7-0.1,1.1-0.7,1-1.4
	s-0.7-1.1-1.4-1c-0.6,0.1-1.1,0.6-1.1,1.2C23,43.7,23.6,44.2,24.3,44.2 M27.3,53.4L27.3,53.4h-0.1l0,0l0,0h-0.1l0,0l0,0
	c-0.4,0-0.7,0-1.1,0c-0.9,0-1.8,0-2.7,0.1c-2.1,0.1-2.1,3-0.1,3h0.1c0.9-0.1,1.8-0.1,2.8-0.1c0.4,0,0.8,0,1.2,0c0.4,0,0.8,0,1.2,0
	c0.9,0,1.8,0,2.8,0.1h0.1c2,0,1.9-2.9-0.1-3c-0.9-0.1-1.8-0.1-2.7-0.1C28,53.4,27.7,53.4,27.3,53.4L27.3,53.4 M27,34.8
	c-0.2,0-0.3,0-0.5,0.1c-1.4,0.2-2.7,0.5-4,1c-0.9,0.3-1.8,0.6-2.7,0.8c-1.3,0.2-2.7,0.4-4.1,0.4c-1.1,0-2,0.9-1.9,2.1
	c0,0.1,0,0.2,0,0.2c1.1,7.6,0.6,15.3-1.5,22.7c-0.2,0.8,0,1.6,0.7,2.1c4.3,3.4,9.6,5.7,13.6,6c0.1,0,0.3,0,0.4,0l0,0h0.1h0.1l0,0
	c0.1,0,0.3,0,0.4,0c4-0.3,9.3-2.6,13.6-6c0.6-0.5,0.9-1.3,0.7-2.1c-2.1-7.4-2.7-15.1-1.5-22.7c0.2-1.1-0.6-2.1-1.7-2.3
	c-0.1,0-0.2,0-0.2,0c-1.4,0-2.7-0.2-4.1-0.4c-0.9-0.2-1.8-0.5-2.7-0.8c-1.3-0.5-2.6-0.8-4-1c-0.2,0-0.3-0.1-0.5-0.1l0,0H27
	C27.1,34.8,27.1,34.8,27,34.8L27,34.8L27,34.8z"/>
</svg>
