<svg xmlns="http://www.w3.org/2000/svg" viewBox="0 0 64.7662 72.61639">
  <defs>
    <style>
      .cls-1 {
        fill: #fff;
      }
    </style>
  </defs>
  <title>Asset 2</title>
  <g id="Layer_2" data-name="Layer 2">
    <g id="Layer_1-2" data-name="Layer 1">
      <g>
        <g>
          <path d="M43.81219,71.616a26.172,26.172,0,0,1-5.77-.769,16.05215,16.05215,0,0,1-8.98535-5.3247,15.40554,15.40554,0,0,0-9.32764-5.23291C8.51532,58.0052,6.49823,51.8924,6.41766,51.63313a1.02548,1.02548,0,0,1-.04395-.249c-.00927-.19775-.147-4.89258,7.15039-8.32617a23.18864,23.18864,0,0,0,5.06543-3.96436c4.00293-3.69335,8.98487-8.28955,16.7212-8.28955a27.06453,27.06453,0,0,1,11.76562,3.09229c15.208,7.4458,16.73731,14.32715,16.68848,16.93994-.03174,1.72607-.72852,3.14209-1.77393,3.60693-1.4375.63868-4.93555,3.40479-7.88281,9.29932C51.87762,68.20344,49.70233,71.616,43.81317,71.616Z"/>
          <path class="cls-1" d="M35.31066,31.80415A25.79041,25.79041,0,0,1,46.63633,34.7943c19.13359,9.3675,16.7419,17.93775,14.94814,18.735s-5.38135,3.78685-8.371,9.7661c-2.30371,4.60742-4.25142,7.321-9.40158,7.321a25.26324,25.26324,0,0,1-5.54653-.74382c-9.5668-2.19239-7.57371-8.37094-18.33636-10.56334S7.3726,51.33689,7.3726,51.33689s-.19931-4.18547,6.57716-7.3744c5.22878-2.46061,10.45533-12.15834,21.3609-12.15834m0-2c-8.12718,0-13.2684,4.743-17.39944,8.55408a22.669,22.669,0,0,1-4.81305,3.79464C5.33606,45.80561,5.348,50.86692,5.37486,51.432a2.00072,2.00072,0,0,0,.08761.49767c.08757.28215,2.2802,6.93818,14.06734,9.33927A14.40406,14.40406,0,0,1,28.34062,66.22a17.10319,17.10319,0,0,0,9.478,5.602,27.14817,27.14817,0,0,0,5.99329.79436c6.45213,0,8.88527-3.81626,11.19042-8.42658,2.8204-5.64082,6.07009-8.24434,7.39437-8.8329,1.39942-.622,2.32892-2.38948,2.36811-4.503.06451-3.48314-2.09058-10.43456-17.24907-17.85592a28.04219,28.04219,0,0,0-12.2051-3.19389Z"/>
        </g>
        <g>
          <path d="M6.56317,40.59357A5.42384,5.42384,0,0,1,2.01092,38.742c-1.1084-1.42969-1.30713-3.56933-.58935-6.35937a48.17652,48.17652,0,0,1,3.04-7.8833c1.57618-3.46241,3.06446-6.73291,3.06446-9.90528,0-.792,0-2.11767,1.1582-2.11767.98584,0,1.481-.00049,3.978,14.52881.24121.78808,2.1748,7.4121.19336,10.95459a4.28024,4.28024,0,0,1-2.78516,2.15039A14.65611,14.65611,0,0,1,6.56317,40.59357Z"/>
          <path class="cls-1" d="M8.68437,13.47659c.63966-.00179,3.00309,13.76248,3.00309,13.76248S15.0346,37.83836,9.82794,39.14a13.68323,13.68323,0,0,1-3.26473.45359c-3.41552,0-5.47084-1.91622-4.17337-6.96192,1.67357-6.50835,6.13643-12.27287,6.13643-18.0374,0-.78.058-1.11743.1581-1.1177m.00013-2H8.6789c-1.42839.004-2.15263,1.05294-2.15263,3.1177,0,2.95542-1.44481,6.12959-2.97446,9.49014a48.93621,48.93621,0,0,0-3.099,8.04918c-.79844,3.105-.54015,5.53461.76767,7.22126.7919,1.0213,2.36164,2.23874,5.34269,2.23874a15.64521,15.64521,0,0,0,3.7498-.51331,5.31239,5.31239,0,0,0,3.41513-2.63193c2.13869-3.82374.2885-10.42825-.09187-11.67715-.11458-.6615-.65274-3.74655-1.24724-6.79608-.39508-2.02657-.73866-3.64743-1.02118-4.81759-.47691-1.97515-.88879-3.681-2.68335-3.681Z"/>
        </g>
        <g>
          <path d="M21.8786,30.33088c-2.19287,0-5.95411-1.208-6.502-9.2959a30.67123,30.67123,0,0,1,5.792-19.65478.99942.99942,0,0,1,.78418-.37989,1.01491,1.01491,0,0,1,.2788.03955,1.00036,1.00036,0,0,1,.71582.85694c.00928.0874.94922,8.84228,3.81983,15.12158,3.227,7.05859-2.19287,12.59668-2.248,12.65185a.99537.99537,0,0,1-.30078.20655,6.15848,6.15848,0,0,1-2.33936.4541Z"/>
          <path class="cls-1" d="M21.95271,2.0001s.92976,8.9257,3.905,15.43405S23.81224,28.9632,23.81224,28.9632a5.23072,5.23072,0,0,1-1.93354.36791c-2.03871,0-5.02234-1.25107-5.50456-8.36386A29.93108,29.93108,0,0,1,21.95271,2.0001M21.95285,0a2,2,0,0,0-1.569.75963,31.76342,31.76342,0,0,0-6.00516,20.3429c.20851,3.07544,1.35669,10.22859,7.5,10.22859a7.13979,7.13979,0,0,0,2.746-.54036,1.99973,1.99973,0,0,0,.60179-.41334c.24512-.24512,5.96262-6.09137,2.4502-13.7748-2.80645-6.13913-3.72576-14.72374-3.7347-14.80974A2.00044,2.00044,0,0,0,21.95285,0Z"/>
        </g>
        <g>
          <path d="M34.59539,29.45979a5.97342,5.97342,0,0,1-1.17285-.11817c-3.644-.729-4.813-4.09424-3.57373-10.28857,1.439-7.19532.3711-15.95557.36035-16.04346A1,1,0,0,1,30.903,1.931a1.44762,1.44762,0,0,1,.42627-.05909c1.75977,0,4.43066,2.29493,7.16455,13.2295,1.56738,6.26953,1.47559,10.40966-.27978,12.6582a4.41739,4.41739,0,0,1-3.61817,1.7002Z"/>
          <path class="cls-1" d="M31.32917,2.87162c.60341,0,3.2556.71759,6.19437,12.47263,2.86909,11.47639-.68312,13.11534-2.92755,13.11534a5.02878,5.02878,0,0,1-.97746-.09867c-1.85952-.3719-4.27691-1.67356-2.78928-9.11168s.3719-16.3638.3719-16.3638a.47213.47213,0,0,1,.128-.01382m0-2a2.46251,2.46251,0,0,0-.72563.1052,2.00071,2.00071,0,0,0-1.387,2.156c.01071.08623,1.05569,8.70349-.34844,15.72417-.75641,3.782-.65443,6.55992.31177,8.49232a5.469,5.469,0,0,0,4.04643,2.97275,7.00228,7.00228,0,0,0,1.36971.13751,5.45424,5.45424,0,0,0,4.40613-2.08484c1.95753-2.50717,2.10856-6.92814.46171-13.51559C37.11077,5.447,34.4499.87161,31.32917.87161Z"/>
        </g>
        <g>
          <path d="M46.77508,32.58088a5.26458,5.26458,0,0,1-.8623-.07227,5.201,5.201,0,0,1-3.47608-2.30468c-1.54492-2.26661-1.93017-5.92823-1.05664-10.04639,1.252-5.90381.18262-14.64307.17188-14.73047a.99978.99978,0,0,1,1.458-1.00879c.39844.20947,3.99414,2.36133,7.55079,13.21777,2.4414,7.45215,1.41162,11.14405.11816,12.92872a4.72045,4.72045,0,0,1-3.90332,2.01611Z"/>
          <path class="cls-1" d="M42.54425,5.30282s3.53309,1.85953,7.06619,12.64476c3.28857,10.03876.29457,13.63307-2.83483,13.63307a4.25271,4.25271,0,0,1-.69827-.05853c-3.34714-.55786-5.0207-5.02072-3.719-11.15715s.18595-15.06215.18595-15.06215m.0005-1.99991a2.00027,2.00027,0,0,0-1.98512,2.2475c.01071.086,1.05731,8.67122-.15779,14.39955-.9435,4.44792-.51429,8.28946,1.2086,10.81692a6.1775,6.1775,0,0,0,4.13811,2.728,6.26718,6.26718,0,0,0,1.02706.08575,5.69854,5.69854,0,0,0,4.71319-2.429c1.43005-1.97328,2.59472-5.97387.02227-13.82667C47.90826,6.32693,44.18544,3.9065,43.47573,3.533a1.99764,1.99764,0,0,0-.931-.23006Z"/>
        </g>
        <g>
          <path d="M57.63055,38.26447a5.26428,5.26428,0,0,1-1.40723-.20019,5.69546,5.69546,0,0,1-3.52783-2.93506,10.6884,10.6884,0,0,1-.31494-8.2002c1.40576-4.21679.33545-16.5791.32471-16.70361a1,1,0,0,1,1.874-.56689,86.69354,86.69354,0,0,1,6.78271,16.771c1.57764,5.917.63038,8.82324-.44287,10.21973A4.06186,4.06186,0,0,1,57.631,38.26447Z"/>
          <path class="cls-1" d="M53.70138,10.13758a86.67249,86.67249,0,0,1,6.69431,16.54978c1.97155,7.39337.0238,10.57693-2.76529,10.57693a4.26542,4.26542,0,0,1-1.13971-.1636c-3.34714-.92977-4.64881-5.39263-3.1612-9.85549s.37189-17.10762.37189-17.10762m.00006-2.00017a2.00089,2.00089,0,0,0-1.99234,2.17583c.29981,3.40311.83441,12.96529-.277,16.29951a11.69936,11.69936,0,0,0,.3805,8.98684,6.67342,6.67342,0,0,0,4.14279,3.42813,6.26829,6.26829,0,0,0,1.675.23657,5.04216,5.04216,0,0,0,4.08182-2.00647c1.20968-1.57457,2.29852-4.776.6159-11.08578a87.80424,87.80424,0,0,0-6.871-16.99216,2.00038,2.00038,0,0,0-1.75574-1.04247Z"/>
        </g>
      </g>
    </g>
  </g>
</svg>
