<svg xmlns="http://www.w3.org/2000/svg" viewBox="0 0 73.90776 69.81357">
  <defs>
    <style>
      .cls-1 {
        fill: none;
        stroke: #fff;
        stroke-linecap: round;
        stroke-linejoin: round;
        stroke-width: 2px;
      }

      .cls-2 {
        fill: #fff;
      }
    </style>
  </defs>
  <title>Asset 12</title>
  <g id="Layer_2" data-name="Layer 2">
    <g id="Layer_1-2" data-name="Layer 1">
      <g>
        <polygon points="0.828 32.752 5.225 36.586 5.507 36.551 12.366 29.094 12.437 29.516 12.402 68.985 61.65 69.077 61.472 29.033 68.499 36.571 68.754 36.507 73.162 32.643 44.001 0.767 29.788 0.863 0.819 32.515 0.828 32.752"/>
        <polygon class="cls-1" points="68.574 36.411 72.908 32.639 44.017 1 29.891 1 1 32.639 5.334 36.411 31.449 8.298 42.274 8.298 68.574 36.411"/>
        <path class="cls-1" d="M12.55649,29.33154v39.482l24.23723-.18044v.18044l.16021-.09018.16011.09018v-.18044l24.23723.18044v-39.482Z"/>
        <path class="cls-2" d="M36.95393,46.80339c1.01862.06211,7.06259.79879,7.06259,9.59107V67.32752H29.89123V56.39446c0-8.79228,6.04407-9.529,7.0627-9.59107m0-2q-.06088,0-.12169.00371c-.91516.0558-8.941.85494-8.941,11.58736V67.32752a2,2,0,0,0,2,2H44.01652a2,2,0,0,0,2-2V56.39446c0-10.73241-8.02574-11.53156-8.94088-11.58736q-.06079-.0037-.12171-.00371Z"/>
        <line class="cls-1" x1="36.95388" y1="8.2981" x2="36.95388" y2="29.33154"/>
        <circle class="cls-1" cx="41.17389" cy="57.4356" r="0.17631"/>
        <line class="cls-1" x1="21.12793" y1="19.40881" x2="52.01038" y2="19.40881"/>
        <line class="cls-1" x1="12.55649" y1="33.70528" x2="61.35127" y2="33.70528"/>
      </g>
    </g>
  </g>
</svg>
