<?xml version="1.0" encoding="utf-8"?>
<!-- Generator: Adobe Illustrator 23.0.1, SVG Export Plug-In . SVG Version: 6.00 Build 0)  -->
<svg version="1.1" id="Livello_1" xmlns="http://www.w3.org/2000/svg" xmlns:xlink="http://www.w3.org/1999/xlink" x="0px" y="0px"
	 viewBox="0 0 67.8 78.6" style="enable-background:new 0 0 67.8 78.6;" xml:space="preserve">
<style type="text/css">
	.st0{fill:#FFFFFF;}
</style>
<path class="st0" d="M57.2,66.4c-2.3,0-4.5-0.8-6.3-2.3c-1.4-1.2-3.3-1.9-5.2-1.8c-2-0.1-4,0.6-5.6,1.9c-3.6,3-8.8,3-12.4,0
	c-1.6-1.3-3.6-1.9-5.6-1.9c-1.9-0.1-3.8,0.5-5.2,1.8c-1.8,1.5-4,2.3-6.3,2.3c-3.8,0-7.3-1.8-9.4-4.9c-0.3-0.5-0.1-1.1,0.3-1.4l0,0
	l1.3-0.8L4,58.6c0.5-0.3,1.1-0.2,1.4,0.3c1.2,1.7,3.2,2.6,5.2,2.6c1.3,0,2.5-0.5,3.4-1.4c2.3-1.9,5.2-2.8,8.2-2.7
	c3-0.1,6,0.9,8.4,2.7c0.9,0.8,2.1,1.3,3.4,1.4c1.3,0,2.4-0.5,3.4-1.4c2.4-1.8,5.4-2.8,8.4-2.7c3-0.1,5.9,0.9,8.2,2.7
	c0.9,0.9,2.1,1.3,3.4,1.4c2,0,4-0.9,5.2-2.6c0.2-0.3,0.5-0.5,0.8-0.5c0.2,0,0.4,0.1,0.5,0.2l1.3,0.8l1.3,0.8
	c0.5,0.3,0.6,0.9,0.3,1.4l0,0C64.5,64.6,61,66.5,57.2,66.4z"/>
<title>Asset 11</title>
<path d="M45.7,58.3c2.8-0.1,5.4,0.8,7.6,2.6c1.1,1,2.5,1.5,4,1.5c2.4,0,4.6-1.1,6-3l1.3,0.8l1.3,0.8c-1.9,2.8-5.2,4.5-8.6,4.4
	c-2.1,0-4.1-0.8-5.7-2.1c-1.6-1.4-3.7-2.1-5.8-2c-2.2-0.1-4.4,0.7-6.2,2.1c-3.3,2.7-8,2.7-11.3,0c-1.7-1.4-3.9-2.1-6.2-2.1
	c-2.1-0.1-4.2,0.6-5.8,2c-1.6,1.4-3.6,2.1-5.7,2.1C7.2,65.4,4,63.8,2,61l1.3-0.8l1.3-0.8c1.4,1.9,3.7,3.1,6,3c1.5,0,2.9-0.6,4-1.5
	c2.1-1.7,4.8-2.7,7.6-2.6c2.8-0.1,5.6,0.8,7.8,2.6c1.1,0.9,2.5,1.5,3.9,1.5c1.5,0,2.8-0.6,3.9-1.5C40.1,59.2,42.9,58.3,45.7,58.3
	 M45.7,56.3c-3.2-0.1-6.4,1-9,2.9c-1.3,0.9-1.8,1.2-2.8,1.2s-1.5-0.3-2.8-1.2c-2.6-2-5.7-3-9-2.9c-3.2-0.1-6.3,0.9-8.8,2.9
	c-0.7,0.7-1.7,1.2-2.8,1.2c-1.7,0-3.3-0.7-4.4-2.1c-0.4-0.6-1-0.9-1.7-0.9c-0.4,0-0.7,0.1-1.1,0.3L2,58.5l-1.3,0.8
	c-0.9,0.6-1.2,1.8-0.6,2.8l0,0c2.3,3.4,6.2,5.4,10.3,5.4c2.5,0,5-0.9,6.9-2.5c1.3-1.1,2.9-1.7,4.6-1.6c1.8-0.1,3.6,0.5,5,1.7
	c3.9,3.2,9.6,3.2,13.5,0c1.4-1.2,3.2-1.8,5-1.7c1.7-0.1,3.4,0.5,4.6,1.6c1.9,1.6,4.4,2.5,6.9,2.5c4.1,0,8-2,10.3-5.4
	c0.6-0.9,0.3-2.2-0.6-2.8l0,0l-1.3-0.8L64,57.7c-0.9-0.6-2.2-0.3-2.8,0.6c-1,1.4-2.7,2.1-4.4,2.1c-1,0-2-0.4-2.8-1.2
	C52,57.3,48.9,56.2,45.7,56.3L45.7,56.3z"/>
<path class="st0" d="M33.9,53.3c-14.4,0-26.1-11.7-26.1-26.1S19.5,1,33.9,1S60,12.7,60,27.1C60,41.6,48.3,53.2,33.9,53.3z
	 M28.3,47.5c3.7,1,7.7,1,11.4-0.1l-3.2-7.6c-1,0.2-2,0.3-3,0.3c-0.7,0-1.5-0.1-2.2-0.2L28.3,47.5z M15.5,37.6c1.9,3.4,4.7,6.1,8.1,8
	l3-7.4c-1.5-1-2.8-2.2-3.9-3.7L15.5,37.6z M44.3,45.5c3.4-1.9,6.1-4.7,8-8.1l-7.9-3.2c-0.9,1.4-2.1,2.6-3.4,3.6L44.3,45.5z
	 M13.5,21.5c-1,3.7-1,7.7,0.1,11.4l7.3-3.1c-0.4-1.8-0.4-3.6,0-5.4L13.5,21.5z M54.3,32.7c1-3.7,1-7.7-0.1-11.4l-8,3.3
	c0.3,1.6,0.4,3.2,0.1,4.8L54.3,32.7z M33.8,23.4c-2,0-3.6,1.6-3.6,3.6s1.6,3.6,3.6,3.6s3.6-1.6,3.6-3.6C37.4,25,35.8,23.4,33.8,23.4
	L33.8,23.4z M40.9,16.6c1.3,0.9,2.5,2.1,3.4,3.5l7.9-3.3c-1.9-3.4-4.7-6.1-8.1-8L40.9,16.6z M22.8,19.9c1-1.5,2.3-2.7,3.8-3.6
	l-3.2-7.5c-3.4,1.9-6.1,4.7-8,8.1L22.8,19.9z M33.5,14.3c0.9,0,1.9,0.1,2.8,0.3l3.2-7.8c-3.7-1-7.7-1-11.4,0.1l3.2,7.7
	C32,14.3,32.8,14.3,33.5,14.3z"/>
<path d="M33.9,2C47.8,2,59,13.3,59,27.1S47.8,52.3,33.9,52.3S8.8,41,8.8,27.1l0,0C8.8,13.3,20,2,33.9,2 M30.7,15.6
	c2-0.5,4.2-0.5,6.2,0.1l3.9-9.6c-4.6-1.5-9.6-1.5-14.1,0.1L30.7,15.6 M43.9,21.3l9.7-4.1c-2.2-4.3-5.7-7.8-10-9.9l-4,9.7
	C41.4,18,42.9,19.5,43.9,21.3 M23.2,21.2c1.1-1.9,2.7-3.4,4.6-4.5l-3.9-9.3c-4.3,2.2-7.8,5.7-9.9,10L23.2,21.2 M54.9,34.1
	c1.5-4.6,1.5-9.6-0.1-14.1l-9.7,4.1c0.6,2,0.6,4.1,0.1,6.1L54.9,34.1 M13,34.3l9.1-3.8c-0.6-2.1-0.6-4.4,0-6.6l-9.2-3.7
	C11.4,24.8,11.4,29.7,13,34.3 M33.8,31.6c2.6,0,4.6-2.1,4.6-4.6s-2.1-4.6-4.6-4.6s-4.6,2.1-4.6,4.6S31.2,31.6,33.8,31.6L33.8,31.6
	 M43.8,46.9c4.3-2.2,7.8-5.7,9.9-10L44,33c-1,1.8-2.5,3.4-4.2,4.5L43.8,46.9 M24.2,47l3.7-9.2c-2-1.1-3.6-2.6-4.7-4.6L14.1,37
	C16.3,41.4,19.8,44.9,24.2,47 M33.5,39.2c-0.9,0-1.9-0.1-2.8-0.3l-3.8,9.3c4.6,1.5,9.6,1.5,14.1-0.1l-4-9.4
	C36,39,34.8,39.2,33.5,39.2 M33.9,0C18.9,0,6.8,12.1,6.8,27.1s12.1,27.1,27.1,27.1S61,42.1,61,27.1C61,12.2,48.9,0,33.9,0z
	 M29.4,7.5c2.9-0.7,5.8-0.7,8.7-0.1l-2.4,6c-0.7-0.1-1.4-0.2-2.1-0.2c-0.6,0-1.1,0-1.6,0.1L29.4,7.5L29.4,7.5z M42.1,16.2l2.5-6.1
	c2.5,1.6,4.6,3.7,6.2,6.1l-6.1,2.6C43.9,17.8,43.1,17,42.1,16.2L42.1,16.2z M16.9,16.4c1.6-2.5,3.7-4.6,6.1-6.2l2.4,5.7
	c-1.1,0.8-2.1,1.7-2.9,2.8L16.9,16.4L16.9,16.4z M47.4,25.3l6.2-2.6c0.7,2.9,0.7,5.8,0.1,8.7l-6.2-2.5c0.1-0.5,0.1-1.1,0.1-1.6
	C47.5,26.6,47.5,25.9,47.4,25.3L47.4,25.3z M14.3,31.6c-0.7-2.9-0.7-5.8-0.1-8.7l5.5,2.3c-0.2,1.4-0.2,2.8,0,4.1L14.3,31.6
	L14.3,31.6z M33.8,29.6c-1.4,0-2.6-1.2-2.6-2.6s1.2-2.6,2.6-2.6s2.6,1.2,2.6,2.6l0,0C36.4,28.5,35.2,29.6,33.8,29.6z M42.3,38.1
	c1-0.8,1.8-1.7,2.6-2.7l6,2.5c-1.6,2.5-3.7,4.6-6.1,6.2C44.8,44,42.3,38.1,42.3,38.1z M17,38l5.5-2.3c0.8,1.1,1.8,2.1,3,2.9
	l-2.3,5.6C20.7,42.6,18.6,40.5,17,38L17,38z M33.5,41.2c0.8,0,1.6-0.1,2.4-0.2l2.4,5.8c-2.9,0.7-5.8,0.7-8.7,0.1l2.3-5.7
	C32.5,41.2,33,41.2,33.5,41.2L33.5,41.2z"/>
<path class="st0" d="M57.2,77.6c-2.3,0-4.5-0.8-6.3-2.3c-1.4-1.2-3.3-1.9-5.2-1.8c-2-0.1-4,0.6-5.6,1.9c-3.6,3-8.8,3-12.4,0
	c-1.6-1.3-3.6-1.9-5.6-1.9c-1.9-0.1-3.8,0.5-5.2,1.8c-1.8,1.5-4,2.3-6.3,2.3c-3.8,0-7.3-1.8-9.4-4.9c-0.3-0.5-0.1-1.1,0.3-1.4l0,0
	l1.3-0.8L4,69.8c0.5-0.3,1.1-0.2,1.4,0.3c1.2,1.7,3.2,2.6,5.2,2.6c1.3,0,2.5-0.5,3.4-1.4c2.3-1.9,5.2-2.8,8.2-2.7
	c3-0.1,6,0.9,8.4,2.7c0.9,0.8,2.1,1.3,3.4,1.4c1.3,0,2.4-0.5,3.4-1.4c2.4-1.8,5.4-2.8,8.4-2.7c3-0.1,5.9,0.9,8.2,2.7
	c0.9,0.9,2.1,1.3,3.4,1.4c2,0,4-0.9,5.2-2.6c0.2-0.3,0.5-0.5,0.8-0.5c0.2,0,0.4,0.1,0.5,0.2l1.3,0.8l1.3,0.8
	c0.5,0.3,0.6,0.9,0.3,1.4l0,0C64.5,75.8,61,77.7,57.2,77.6z"/>
<path d="M45.7,69.5c2.8-0.1,5.4,0.8,7.6,2.6c1.1,1,2.5,1.5,4,1.5c2.4,0,4.6-1.1,6-3l1.3,0.8l1.3,0.8c-1.9,2.8-5.2,4.5-8.6,4.4
	c-2.1,0-4.1-0.8-5.7-2.1c-1.6-1.4-3.7-2.1-5.8-2c-2.2-0.1-4.4,0.7-6.2,2.1c-3.3,2.7-8,2.7-11.3,0c-1.7-1.4-3.9-2.1-6.2-2.1
	c-2.1-0.1-4.2,0.6-5.8,2c-1.6,1.4-3.6,2.1-5.7,2.1C7.2,76.6,4,75,2,72.2l1.3-0.8l1.3-0.8c1.4,1.9,3.7,3.1,6,3c1.5,0,2.9-0.6,4-1.5
	c2.1-1.7,4.8-2.7,7.6-2.6c2.8-0.1,5.6,0.8,7.8,2.6c1.1,0.9,2.5,1.5,3.9,1.5c1.5,0,2.8-0.6,3.9-1.5C40.1,70.4,42.9,69.5,45.7,69.5
	 M45.7,67.5c-3.2-0.1-6.4,1-9,2.9c-1.3,0.9-1.8,1.2-2.8,1.2s-1.5-0.3-2.8-1.2c-2.6-2-5.7-3-9-2.9c-3.2-0.1-6.3,0.9-8.8,2.9
	c-0.7,0.7-1.7,1.2-2.8,1.2c-1.7,0-3.3-0.7-4.4-2.1c-0.4-0.6-1-0.9-1.7-0.9c-0.4,0-0.7,0.1-1.1,0.3L2,69.7l-1.3,0.8
	c-0.9,0.6-1.2,1.8-0.6,2.8l0,0c2.3,3.4,6.2,5.4,10.3,5.4c2.5,0,5-0.9,6.9-2.5c1.3-1.1,2.9-1.7,4.6-1.6c1.8-0.1,3.6,0.5,5,1.7
	c3.9,3.2,9.6,3.2,13.5,0c1.4-1.2,3.2-1.8,5-1.7c1.7-0.1,3.4,0.5,4.6,1.6c1.9,1.6,4.4,2.5,6.9,2.5c4.1,0,8-2,10.3-5.4
	c0.6-0.9,0.3-2.2-0.6-2.8l0,0l-1.3-0.8L64,68.9c-0.9-0.6-2.2-0.3-2.8,0.6c-1,1.4-2.7,2.1-4.4,2.1c-1,0-2-0.4-2.8-1.2
	C52,68.5,48.9,67.4,45.7,67.5L45.7,67.5z"/>
</svg>
