<?xml version="1.0" encoding="utf-8"?>
<!-- Generator: Adobe Illustrator 23.0.1, SVG Export Plug-In . SVG Version: 6.00 Build 0)  -->
<svg version="1.1" id="Livello_1" xmlns="http://www.w3.org/2000/svg" xmlns:xlink="http://www.w3.org/1999/xlink" x="0px" y="0px"
	 viewBox="0 0 64.8 72.6" style="enable-background:new 0 0 64.8 72.6;" xml:space="preserve">
<style type="text/css">
	.st0{fill:#FFFFFF;}
</style>
<path class="st0" d="M43.8,71.6c-1.9,0-3.9-0.3-5.8-0.8c-3.5-0.7-6.7-2.6-9-5.3c-2.4-2.8-5.7-4.7-9.3-5.2C8.5,58,6.5,51.9,6.4,51.6
	c0-0.1,0-0.2,0-0.2c0-0.2-0.1-4.9,7.2-8.3c1.9-1.1,3.6-2.4,5.1-4c4-3.7,9-8.3,16.7-8.3c4.1,0.1,8.1,1.2,11.8,3.1
	c15.2,7.4,16.7,14.3,16.7,16.9c0,1.7-0.7,3.1-1.8,3.6c-1.4,0.6-4.9,3.4-7.9,9.3C51.9,68.2,49.7,71.6,43.8,71.6L43.8,71.6z"/>
<path class="st0" d="M6.6,40.6c-1.7,0.1-3.4-0.5-4.6-1.9c-1.1-1.4-1.3-3.6-0.6-6.4c0.8-2.7,1.8-5.3,3-7.9C6,21,7.5,17.8,7.5,14.6
	c0-0.8,0-2.1,1.2-2.1c1,0,1.5,0,4,14.5c0.2,0.8,2.2,7.4,0.2,11c-0.6,1.1-1.6,1.9-2.8,2.2C8.9,40.4,7.7,40.6,6.6,40.6z"/>
<path class="st0" d="M21.9,30.3c-2.2,0-6-1.2-6.5-9.3C15,14,17,7.1,21.2,1.4C21.4,1.1,21.6,1,22,1c0.1,0,0.2,0,0.3,0
	c0.4,0.1,0.7,0.5,0.7,0.9c0,0.1,0.9,8.8,3.8,15.1c3.2,7.1-2.2,12.6-2.2,12.7c-0.1,0.1-0.2,0.2-0.3,0.2
	C23.5,30.2,22.7,30.3,21.9,30.3L21.9,30.3z"/>
<path class="st0" d="M34.6,29.5c-0.4,0-0.8,0-1.2-0.1c-3.6-0.7-4.8-4.1-3.6-10.3c1.4-7.2,0.4-16,0.4-16c-0.1-0.5,0.2-0.9,0.7-1.1
	c0.1,0,0.3-0.1,0.4-0.1c1.8,0,4.4,2.3,7.2,13.2c1.6,6.3,1.5,10.4-0.3,12.7C37.3,28.9,36,29.5,34.6,29.5L34.6,29.5z"/>
<path class="st0" d="M46.8,32.6c-0.3,0-0.6,0-0.9-0.1c-1.4-0.2-2.7-1.1-3.5-2.3c-1.5-2.3-1.9-5.9-1.1-10c1.3-5.9,0.2-14.6,0.2-14.7
	c-0.1-0.5,0.3-1,0.9-1.1c0.2,0,0.4,0,0.6,0.1c0.4,0.2,4,2.4,7.6,13.2c2.4,7.5,1.4,11.1,0.1,12.9C49.8,31.8,48.3,32.6,46.8,32.6
	L46.8,32.6z"/>
<path class="st0" d="M57.6,38.3c-0.5,0-0.9-0.1-1.4-0.2c-1.5-0.4-2.8-1.5-3.5-2.9c-1.2-2.6-1.3-5.5-0.3-8.2
	c1.4-4.2,0.3-16.6,0.3-16.7c0-0.6,0.4-1,0.9-1.1c0.4,0,0.8,0.2,1,0.5c2.8,5.3,5.1,11,6.8,16.8c1.6,5.9,0.6,8.8-0.4,10.2
	C60.1,37.7,58.9,38.3,57.6,38.3L57.6,38.3z"/>
<title>Asset 2</title>
<path d="M35.3,31.8c4,0.1,7.8,1.1,11.3,3c19.1,9.4,16.7,17.9,14.9,18.7s-5.4,3.8-8.4,9.8c-2.3,4.6-4.3,7.3-9.4,7.3
	c-1.9,0-3.7-0.3-5.5-0.7c-9.6-2.2-7.6-8.4-18.3-10.6s-12.6-8-12.6-8s-0.2-4.2,6.6-7.4C19.2,41.5,24.4,31.8,35.3,31.8 M35.3,29.8
	c-8.1,0-13.3,4.7-17.4,8.6c-1.4,1.5-3,2.8-4.8,3.8c-7.8,3.7-7.8,8.7-7.7,9.3c0,0.2,0,0.3,0.1,0.5c0.1,0.3,2.3,6.9,14.1,9.3
	c3.4,0.5,6.6,2.3,8.8,5c2.5,2.9,5.8,4.8,9.5,5.6c2,0.5,4,0.8,6,0.8c6.5,0,8.9-3.8,11.2-8.4c2.8-5.6,6.1-8.2,7.4-8.8
	c1.4-0.6,2.3-2.4,2.4-4.5c0.1-3.5-2.1-10.4-17.2-17.9C43.7,31,39.6,29.9,35.3,29.8L35.3,29.8z"/>
<path d="M8.7,13.5c0.6,0,3,13.8,3,13.8S15,37.8,9.8,39.1c-1.1,0.3-2.2,0.4-3.3,0.5c-3.4,0-5.5-1.9-4.2-7c1.7-6.5,6.1-12.3,6.1-18
	C8.5,13.8,8.6,13.5,8.7,13.5 M8.7,11.5L8.7,11.5c-1.4,0-2.2,1.1-2.2,3.1c0,3-1.4,6.1-3,9.5c-1.3,2.6-2.3,5.3-3.1,8
	c-0.8,3.1-0.5,5.5,0.8,7.2c0.8,1,2.4,2.2,5.3,2.2c1.3,0,2.5-0.2,3.7-0.5c1.5-0.4,2.7-1.3,3.4-2.6c2.1-3.8,0.3-10.4-0.1-11.7
	C13.5,26.1,13,23,12.4,20c-0.4-2-0.7-3.6-1-4.8C10.9,13.2,10.5,11.5,8.7,11.5L8.7,11.5z"/>
<path d="M22,2c0,0,0.9,8.9,3.9,15.4s-2,11.5-2,11.5c-0.6,0.2-1.3,0.4-1.9,0.4c-2,0-5-1.3-5.5-8.4C16,14.2,18,7.5,22,2 M22,0
	c-0.6,0-1.2,0.3-1.6,0.8c-4.3,5.9-6.4,13.1-6,20.3c0.2,3.1,1.4,10.2,7.5,10.2c0.9,0,1.9-0.2,2.7-0.5c0.2-0.1,0.4-0.2,0.6-0.4
	c0.2-0.2,6-6.1,2.5-13.8C24.9,10.5,24,1.9,23.9,1.8C23.8,0.8,23,0,22,0z"/>
<path d="M31.3,2.9c0.6,0,3.3,0.7,6.2,12.5c2.9,11.5-0.7,13.1-2.9,13.1c-0.3,0-0.7,0-1-0.1c-1.9-0.4-4.3-1.7-2.8-9.1
	s0.4-16.4,0.4-16.4C31.2,2.9,31.3,2.9,31.3,2.9 M31.3,0.9c-0.2,0-0.5,0-0.7,0.1c-0.9,0.3-1.5,1.2-1.4,2.2c0,0.1,1.1,8.7-0.3,15.7
	c-0.8,3.8-0.7,6.6,0.3,8.5c0.8,1.6,2.3,2.7,4,3c0.5,0.1,0.9,0.1,1.4,0.1c1.7,0,3.3-0.7,4.4-2.1c2-2.5,2.1-6.9,0.5-13.5
	C37.1,5.4,34.4,0.9,31.3,0.9L31.3,0.9z"/>
<path d="M42.5,5.3c0,0,3.5,1.9,7.1,12.6c3.3,10,0.3,13.6-2.8,13.6c-0.2,0-0.5,0-0.7-0.1c-3.3-0.6-5-5-3.7-11.2S42.5,5.3,42.5,5.3
	 M42.5,3.3c-1.1,0-2,0.9-2,2c0,0.1,0,0.2,0,0.2c0,0.1,1.1,8.7-0.2,14.4c-0.9,4.4-0.5,8.3,1.2,10.8c0.9,1.4,2.4,2.4,4.1,2.7
	c0.3,0.1,0.7,0.1,1,0.1c1.9,0,3.6-0.9,4.7-2.4c1.4-2,2.6-6,0-13.8c-3.6-11-7.3-13.4-8-13.8C43.2,3.4,42.9,3.3,42.5,3.3L42.5,3.3z"/>
<path d="M53.7,10.1c2.8,5.3,5,10.8,6.7,16.5c2,7.4,0,10.6-2.8,10.6c-0.4,0-0.8-0.1-1.1-0.2c-3.3-0.9-4.6-5.4-3.2-9.9
	S53.7,10.1,53.7,10.1 M53.7,8.1c-1.1,0-2,0.9-2,2c0,0.1,0,0.1,0,0.2c0.3,3.4,0.8,13-0.3,16.3c-1.1,2.9-0.9,6.2,0.4,9
	c0.8,1.7,2.3,2.9,4.1,3.4c0.5,0.2,1.1,0.2,1.7,0.2c1.6,0,3.1-0.7,4.1-2c1.2-1.6,2.3-4.8,0.6-11.1c-1.7-5.9-4-11.6-6.9-17
	C55.1,8.5,54.4,8.1,53.7,8.1L53.7,8.1z"/>
</svg>
